<svg width="39" height="39" viewBox="0 0 39 39" fill="none" xmlns="http://www.w3.org/2000/svg">
<path d="M38.1275 21.202L19.9473 1.0231C19.783 0.84051 19.582 0.694072 19.358 0.59371C19.1341 0.493347 18.8923 0.441406 18.6492 0.441406C18.4061 0.441406 18.1673 0.493347 17.9489 0.59371C17.7306 0.694072 17.5378 0.84051 17.3836 1.0231L0.336133 21.202C0.284615 21.2628 0.252197 21.3376 0.24274 21.4173C0.233284 21.4971 0.247189 21.5785 0.282797 21.6519C0.318406 21.7253 0.374218 21.7875 0.443585 21.8312C0.512953 21.8749 0.592952 21.8982 0.674054 21.8984H4.97336C5.21752 21.8984 5.44811 21.7929 5.60749 21.6082L16.8544 8.29805L17.6843 38.0045C17.6908 38.2367 17.8871 38.4266 18.1207 38.4266H21.3054C21.5389 38.4266 21.7247 38.2367 21.7182 38.0045L20.8883 8.29805L32.8789 21.6082C33.0433 21.7929 33.2798 21.8984 33.5292 21.8984H37.8285C38.1895 21.8984 38.3741 21.4763 38.1275 21.202Z" fill="#2D4A28"/>
</svg>
