<?xml version="1.0" standalone="no"?>
<!DOCTYPE svg PUBLIC "-//W3C//DTD SVG 1.1//EN" "http://www.w3.org/Graphics/SVG/1.1/DTD/svg11.dtd" >
<svg xmlns="http://www.w3.org/2000/svg" xmlns:xlink="http://www.w3.org/1999/xlink" version="1.1">
<metadata>
Created by FontForge 20170731 at Fri Jun 24 18:55:37 2022
 By Aleksey,,,
(c) Nikita Kanarev Fonts, 2018
</metadata>
<defs>
<font id="Archaism-Ct2Wd100" horiz-adv-x="1204" >
  <font-face 
    font-family="Reverse"
    font-weight="800"
    font-stretch="normal"
    units-per-em="2048"
    panose-1="0 0 0 0 0 0 0 0 0 0"
    ascent="1536"
    descent="-512"
    x-height="1024"
    cap-height="1434"
    bbox="-340 -569 2146 2341"
    underline-thickness="102"
    underline-position="-307"
    unicode-range="U+000D-FB02"
  />
<missing-glyph horiz-adv-x="2187" 
d="M748 870l-121 -122q-7 -19 -21 -33q-36 -37 -129.5 -71t-128.5 -62q31 -41 105 -115t137 -127q21 37 47 137.5t57 130.5q5 8 19 8t41 -16q2 -2 8 -2t10 4l-43 43l121 123zM1065 487q-32 33 -55 67.5t-30 52.5l-7 18l-125 123l-100 -103l151 -151q45 -44 154 -133.5
t153 -133.5q114 -111 140 -184l30 -16l82 82q-26 45 -119 141q-62 61 -143.5 125.5t-130.5 111.5zM1550 778l-100 101l-14 -11l102 -102zM1171 410q57 44 248 235l-102 103l-123 -123q-22 -64 -102 -144q40 -43 79 -71zM1561 715q-6 6 -11.5 14.5t-7.5 13.5l-2 5l-123 122
l-102 -102l121 -123l-43 -43q4 -4 10 -4q4 0 6 2q27 16 43 16q13 0 21 -8q30 -30 56.5 -130t47.5 -138q64 55 138 128.5t104 113.5q-35 28 -128.5 62t-129.5 71zM1073 330l-80 65q-121 -101 -166 -145q-82 -82 -120 -141l84 -82l28 16q45 108 254 287zM717 879l-103 -101
l13 -12l102 102zM1073 -569l-1032 1032v39l1034 1034h39l1032 -1032v-37l-1034 -1036h-39z" />
    <glyph glyph-name="fi" unicode="fi" horiz-adv-x="1325" 
d="M647 1556q205 0 325 -110t120 -289v-24h-84v24q0 77 -94 123.5t-267 46.5t-265.5 -46.5t-92.5 -123.5v-133h403v-229h-403v-795h-84v795h-119v229h119v133q0 180 118 289.5t324 109.5zM1008 1024h84v-1024h-84v1024z" />
    <glyph glyph-name="fl" unicode="fl" horiz-adv-x="1228" 
d="M205 1137q0 180 109.5 289.5t301.5 109.5h476v-1536h-84v1307h-392q-155 0 -241 -46.5t-86 -123.5v-113h403v-229h-403v-795h-84v795h-119v229h119v113z" />
    <glyph glyph-name="fb" unicode="fb" horiz-adv-x="2056" 
d="M205 1137q0 180 109.5 289.5t301.5 109.5h476v-754q79 260 411 260q227 0 349 -141t122 -389q0 -249 -122 -389.5t-349 -140.5q-332 0 -411 260v-242h-84v1307h-392q-155 0 -241 -46.5t-86 -123.5v-113h403v-229h-403v-795h-84v795h-119v229h119v113zM1489 811
q-195 0 -296 -64t-101 -184v-102q0 -120 101 -184t296 -64q212 0 306.5 70t94.5 229q0 158 -95 228.5t-306 70.5z" />
    <glyph glyph-name="fh" unicode="fh" horiz-adv-x="2048" 
d="M205 1137q0 180 109.5 289.5t301.5 109.5h476v-750q80 256 381 256q207 0 313 -106.5t106 -312.5v-623h-82v623q0 94 -89.5 142t-262.5 48q-180 0 -273 -64.5t-93 -185.5v-563h-84v1307h-392q-155 0 -241 -46.5t-86 -123.5v-113h403v-229h-403v-795h-84v795h-119v229h119
v113z" />
    <glyph glyph-name="fj" unicode="fj" horiz-adv-x="1255" 
d="M647 1556q205 0 325 -110t120 -289v-24h-84v24q0 77 -94 123.5t-267 46.5t-265.5 -46.5t-92.5 -123.5v-133h403v-229h-403v-795h-84v795h-119v229h119v133q0 180 118 289.5t324 109.5zM797 -526q-138 0 -215.5 101t-77.5 273h82q0 -145 211 -145q103 0 157 40t54 116
v1165h82v-1186q0 -171 -77 -267.5t-216 -96.5z" />
    <glyph glyph-name="fk" unicode="fk" horiz-adv-x="1959" 
d="M205 1137q0 180 109.5 289.5t301.5 109.5h476v-899h151l379 387h258l-491 -500l518 -524h-125l-404 408h-286v-408h-84v1307h-392q-155 0 -241 -46.5t-86 -123.5v-113h403v-229h-403v-795h-84v795h-119v229h119v113z" />
    <glyph glyph-name="ft" unicode="ft" horiz-adv-x="1607" 
d="M1196 211q128 0 190 30.5t62 104.5h82q0 -171 -87.5 -267.5t-246.5 -96.5t-246.5 96.5t-87.5 267.5v449h-573v-795h-84v795h-119v229h119v113q0 180 109.5 289.5t301.5 109.5h103v-229h-103q-155 0 -241 -46.5t-86 -123.5v-113h573l15 219h67v-219h469v-229h-469v-449
q0 -74 62 -104.5t190 -30.5z" />
    <glyph glyph-name=".notdef" horiz-adv-x="2187" 
d="M748 870l-121 -122q-7 -19 -21 -33q-36 -37 -129.5 -71t-128.5 -62q31 -41 105 -115t137 -127q21 37 47 137.5t57 130.5q5 8 19 8t41 -16q2 -2 8 -2t10 4l-43 43l121 123zM1065 487q-32 33 -55 67.5t-30 52.5l-7 18l-125 123l-100 -103l151 -151q45 -44 154 -133.5
t153 -133.5q114 -111 140 -184l30 -16l82 82q-26 45 -119 141q-62 61 -143.5 125.5t-130.5 111.5zM1550 778l-100 101l-14 -11l102 -102zM1171 410q57 44 248 235l-102 103l-123 -123q-22 -64 -102 -144q40 -43 79 -71zM1561 715q-6 6 -11.5 14.5t-7.5 13.5l-2 5l-123 122
l-102 -102l121 -123l-43 -43q4 -4 10 -4q4 0 6 2q27 16 43 16q13 0 21 -8q30 -30 56.5 -130t47.5 -138q64 55 138 128.5t104 113.5q-35 28 -128.5 62t-129.5 71zM1073 330l-80 65q-121 -101 -166 -145q-82 -82 -120 -141l84 -82l28 16q45 108 254 287zM717 879l-103 -101
l13 -12l102 102zM1073 -569l-1032 1032v39l1034 1034h39l1032 -1032v-37l-1034 -1036h-39z" />
    <glyph glyph-name="uni0000" horiz-adv-x="0" 
 />
    <glyph glyph-name="uni0000" horiz-adv-x="0" 
 />
    <glyph glyph-name="uni000D" unicode="&#xd;" horiz-adv-x="512" 
 />
    <glyph glyph-name="space" unicode=" " horiz-adv-x="512" 
 />
    <glyph glyph-name="exclam" unicode="!" horiz-adv-x="628" 
d="M190 1434h250l-82 -1061h-86zM164 125q0 71 38 110t111 39q72 0 112 -39t40 -110t-40 -110.5t-112 -39.5q-73 0 -111 39.5t-38 110.5z" />
    <glyph glyph-name="quotedbl" unicode="&#x22;" horiz-adv-x="815" 
d="M168 1042h-66v494h246v-72zM512 1042h-66v494h246v-72z" />
    <glyph glyph-name="numbersign" unicode="#" horiz-adv-x="1394" 
d="M387 340l-74 -340h-84l74 340h-221v229h272l64 289h-336v229h385l76 347h84l-76 -347h457l75 347h82l-75 -347h223v-229h-273l-63 -289h336v-229h-387l-74 -340h-82l74 340h-457zM502 858l-64 -289h457l63 289h-456z" />
    <glyph glyph-name="dollar" unicode="$" horiz-adv-x="1288" 
d="M1130 961q0 93 -37 147.5t-133.5 83.5t-267.5 29v-449q205 -20 287 -41q188 -49 238 -183q20 -54 20 -124q0 -87 -33.5 -166t-98 -142.5t-171 -101.5t-242.5 -39v-245h-76v245q-544 3 -544 506v37h86v-37q0 -96 39.5 -152t140.5 -85.5t278 -30.5v481q-74 7 -112 11.5
t-103.5 16.5t-101 26t-81 39.5t-69 58.5t-40.5 82t-17 110q0 84 31.5 158t93 133t164.5 93.5t235 35.5v225h76v-225q525 -3 525 -497v-37h-87v37zM1151 424q0 47 -14 84.5t-34.5 63.5t-58.5 46.5t-71 32t-87.5 20.5t-93 13.5t-100.5 9.5v-481q245 0 352 48t107 163z
M178 1038q0 -45 13 -82t33.5 -62.5t55.5 -45t67.5 -31.5t83 -21.5t89 -14t96.5 -9.5v449q-232 0 -335 -42t-103 -141z" />
    <glyph glyph-name="percent" unicode="%" horiz-adv-x="1572" 
d="M414 1004q122 0 191 33t69 91t-69 91.5t-191 33.5q-260 0 -260 -125q0 -124 260 -124zM414 803q-163 0 -247.5 85t-84.5 240q0 156 84 241t248 85q155 0 243 -86t88 -240q0 -152 -88 -238.5t-243 -86.5zM299 0h-88l1065 1434h88zM1159 182q124 0 192 33t68 92
q0 58 -68.5 91.5t-191.5 33.5q-260 0 -260 -125t260 -125zM1159 -18q-160 0 -246 85.5t-86 239.5q0 155 86 240.5t246 85.5q156 0 244 -86.5t88 -239.5t-88 -239t-244 -86z" />
    <glyph glyph-name="ampersand" unicode="&#x26;" horiz-adv-x="1343" 
d="M221 1032q0 -47 14.5 -77.5t55 -56t119.5 -37t202 -11.5h678v-238h-145v-198q0 -208 -137.5 -323.5t-378.5 -115.5q-243 0 -379.5 115.5t-136.5 323.5q0 231 180 319q-86 40 -122 113.5t-36 185.5q0 200 132 313t362 113q240 0 376 -112.5t136 -313.5v-74h-86v74
q0 90 -107.5 139.5t-318.5 49.5q-195 0 -301.5 -50t-106.5 -139zM629 213q212 0 321 51.5t109 149.5v198h-447q-413 0 -413 -198q0 -96 113 -148.5t317 -52.5z" />
    <glyph glyph-name="quotesingle" unicode="'" horiz-adv-x="471" 
d="M168 1042h-66v494h246v-72z" />
    <glyph glyph-name="parenleft" unicode="(" horiz-adv-x="735" 
d="M123 637q0 204 13.5 367.5t38 282.5t63.5 207t84 143.5t105.5 89t122.5 46.5t140 13h25v-238h-25q-65 0 -115.5 -9t-102.5 -33.5t-90 -66.5t-72 -111.5t-55 -164t-33.5 -227t-12.5 -299.5t12.5 -299.5t33.5 -227t55 -164t72 -111.5t90 -66.5t102.5 -33.5t115.5 -9h25
v-238h-25q-78 0 -140 13t-122.5 46.5t-105.5 89t-84 143.5t-63.5 207t-38 282.5t-13.5 367.5z" />
    <glyph glyph-name="parenright" unicode=")" horiz-adv-x="735" 
d="M612 637q0 -204 -13.5 -367.5t-38 -282.5t-63.5 -207t-84 -143.5t-105.5 -89t-122.5 -46.5t-140 -13h-25v238h25q65 0 115.5 9t102.5 33.5t90 66.5t72 111.5t55 164t33.5 227t12.5 299.5t-12.5 299.5t-33.5 227t-55 164t-72 111.5t-90 66.5t-102.5 33.5t-115.5 9h-25v238
h25q78 0 140 -13t122.5 -46.5t105.5 -89t84 -143.5t63.5 -207t38 -282.5t13.5 -367.5z" />
    <glyph glyph-name="asterisk" unicode="*" horiz-adv-x="931" 
d="M797 821l-160 -112l-168 346h-4l-170 -348l-158 116l279 271l-385 55l61 186l344 -182l-67 383h196l-67 -383l346 182l57 -188l-383 -53z" />
    <glyph glyph-name="plus" unicode="+" horiz-adv-x="1171" 
d="M1034 850v-238h-405v-331h-86v331h-406v238h406v330h86v-330h405z" />
    <glyph glyph-name="comma" unicode="," horiz-adv-x="423" 
d="M102 -246l-41 361q-8 71 33 115t117 44q72 0 111.5 -39t39.5 -110q0 -54 -43 -125l-151 -246h-66z" />
    <glyph glyph-name="hyphen" unicode="-" horiz-adv-x="937" 
d="M786 664v-238h-632v238h632z" />
    <glyph glyph-name="period" unicode="." horiz-adv-x="423" 
d="M61 125q0 71 38.5 110t111.5 39q72 0 111.5 -39t39.5 -110t-39.5 -110.5t-111.5 -39.5q-73 0 -111.5 39.5t-38.5 110.5z" />
    <glyph glyph-name="slash" unicode="/" horiz-adv-x="890" 
d="M768 1434l-559 -1434h-86l559 1434h86z" />
    <glyph glyph-name="zero" unicode="0" horiz-adv-x="1232" 
d="M1026 469v500q0 121 -106 186.5t-304 65.5q-202 0 -305.5 -65.5t-103.5 -186.5v-500q0 -121 103.5 -186.5t305.5 -65.5q198 0 304 65.5t106 186.5zM1112 969v-500q0 -231 -131.5 -360t-364.5 -129q-231 0 -363 129t-132 360v500q0 231 132 360t363 129q233 0 364.5 -129
t131.5 -360z" />
    <glyph glyph-name="one" unicode="1" horiz-adv-x="1060" 
d="M621 238v921l-451 -160h-8v261l459 174h86v-1196h294v-238h-892v238h512z" />
    <glyph glyph-name="two" unicode="2" horiz-adv-x="1234" 
d="M1112 1016q0 -64 -23.5 -121t-50.5 -97.5t-107 -104.5t-130.5 -99.5t-183.5 -124.5q-70 -47 -107 -72l-234 -157h836v-240h-991v240l350 235q190 128 293.5 203.5t165.5 137.5t79 103t17 97q0 99 -105.5 152t-304.5 53q-198 0 -303.5 -53.5t-105.5 -151.5v-113h-86v113
q0 210 131.5 326t363.5 116q236 0 366 -115.5t130 -326.5z" />
    <glyph glyph-name="three" unicode="3" horiz-adv-x="1261" 
d="M1040 418q0 103 -107.5 160t-301.5 57h-121v237l438 324h-698v-172h-86v410h930v-238l-463 -342v-2q232 0 363.5 -114.5t131.5 -319.5q0 -210 -131 -326.5t-364 -116.5t-364.5 116.5t-131.5 326.5v92h86v-92q0 -99 105.5 -152t304.5 -53q194 0 301.5 53.5t107.5 151.5z
" />
    <glyph glyph-name="four" unicode="4" horiz-adv-x="1189" 
d="M78 504l274 930h90l-274 -930h754v678h86v-678h100v-238h-100v-266h-86v266h-844v238z" />
    <glyph glyph-name="five" unicode="5" horiz-adv-x="1220" 
d="M1036 418q0 104 -105.5 160.5t-303.5 56.5h-461v799h913v-238h-827v-324h375q236 0 365.5 -119t129.5 -335q0 -211 -129.5 -327t-365.5 -116q-229 0 -362.5 117t-133.5 326v31h86v-31q0 -99 105.5 -152t304.5 -53t304 53t105 152z" />
    <glyph glyph-name="six" unicode="6" horiz-adv-x="1257" 
d="M639 1221q-210 0 -320 -53t-110 -152v-398q53 117 165.5 179.5t272.5 62.5q240 0 374 -116t134 -326q0 -211 -135 -327t-381 -116q-240 0 -378 117t-138 326v598q0 210 136.5 326t379.5 116q244 0 380 -116t136 -326v-31h-86v31q0 100 -107.5 152.5t-322.5 52.5zM639 623
q-210 0 -320 -53t-110 -152t110 -152t320 -53t320 53t110 152t-110 152t-320 53z" />
    <glyph glyph-name="seven" unicode="7" horiz-adv-x="1050" 
d="M49 1196v238h928v-238l-541 -1196h-86l541 1196h-842z" />
    <glyph glyph-name="eight" unicode="8" horiz-adv-x="1236" 
d="M1135 418q0 -208 -136.5 -323t-380.5 -115q-246 0 -381 114.5t-135 323.5q0 216 170 317q-147 106 -147 297q0 201 131 313.5t362 112.5q233 0 363.5 -112.5t130.5 -313.5q0 -197 -149 -297q172 -105 172 -317zM618 217q204 0 317.5 52.5t113.5 148.5t-113.5 148
t-317.5 52q-210 0 -320 -51.5t-110 -148.5t110 -149t320 -52zM618 1221q-197 0 -302 -50t-105 -139q0 -90 104.5 -139t302.5 -49q196 0 302 49t106 139q0 89 -106.5 139t-301.5 50z" />
    <glyph glyph-name="nine" unicode="9" horiz-adv-x="1257" 
d="M618 213q203 0 317 53.5t114 151.5v397q-53 -117 -166 -179.5t-273 -62.5q-240 0 -374 116.5t-134 326.5q0 211 135 326.5t381 115.5q240 0 378.5 -116.5t138.5 -325.5v-598q0 -210 -136.5 -326.5t-380.5 -116.5q-242 0 -379 116.5t-137 326.5v31h86v-31
q0 -100 107.5 -152.5t322.5 -52.5zM618 811q210 0 320.5 53t110.5 152t-110.5 152t-320.5 53t-320 -53t-110 -152t110 -152t320 -53z" />
    <glyph glyph-name="colon" unicode=":" horiz-adv-x="423" 
d="M61 125q0 71 38.5 110t111.5 39q72 0 111.5 -39t39.5 -110t-39.5 -110.5t-111.5 -39.5q-73 0 -111.5 39.5t-38.5 110.5zM61 772q0 71 38.5 110.5t111.5 39.5q72 0 111.5 -39.5t39.5 -110.5t-39.5 -110t-111.5 -39q-73 0 -111.5 39t-38.5 110z" />
    <glyph glyph-name="semicolon" unicode=";" horiz-adv-x="423" 
d="M102 -246l-41 361q-8 71 33 115t117 44q72 0 111.5 -39t39.5 -110q0 -54 -43 -125l-151 -246h-66zM61 772q0 71 38.5 110.5t111.5 39.5q72 0 111.5 -39.5t39.5 -110.5t-39.5 -110t-111.5 -39q-73 0 -111.5 39t-38.5 110z" />
    <glyph glyph-name="less" unicode="&#x3c;" horiz-adv-x="1021" 
d="M41 776l819 486h10v-246l-802 -299l802 -303v-244h-10l-819 489v117z" />
    <glyph glyph-name="equal" unicode="=" horiz-adv-x="1173" 
d="M1036 608v-237h-899v237h899zM1036 1092v-238h-899v238h899z" />
    <glyph glyph-name="greater" unicode="&#x3e;" horiz-adv-x="1021" 
d="M162 1262l819 -486v-117l-819 -489h-10v244l802 303l-802 299v246h10z" />
    <glyph glyph-name="question" unicode="?" horiz-adv-x="1239" 
d="M1112 1030q0 -168 -116 -277t-330 -112v-268h-86v463h41q196 0 300.5 51t104.5 143q0 91 -105.5 141t-299.5 50q-202 0 -305 -43.5t-103 -126.5v-93h-86v93q0 193 130 300t364 107q232 0 361.5 -113t129.5 -315zM625 -25q-73 0 -111.5 39.5t-38.5 110.5t38.5 110
t111.5 39q72 0 111.5 -39t39.5 -110t-39.5 -110.5t-111.5 -39.5z" />
    <glyph glyph-name="at" unicode="@" horiz-adv-x="1941" 
d="M1839 512q0 -446 -230.5 -696t-637.5 -250q-423 0 -646 247.5t-223 698.5t223 698.5t646 247.5q409 0 638.5 -249.5t229.5 -696.5zM180 512q0 -345 202 -537t589 -192q380 0 585 191.5t205 537.5q0 342 -207 535.5t-583 193.5q-387 0 -589 -192t-202 -537zM958 1042
q194 0 305 -85.5t111 -235.5v-721h-84v248q-46 -124 -162 -195t-290 -71q-153 0 -240.5 84t-87.5 233q0 146 87.5 227.5t240.5 81.5h452v113q0 92 -332 92q-333 0 -333 -92v-25h-84v25q0 151 111 236t306 85zM594 307q0 -47 66 -71.5t188 -24.5q442 0 442 192h-442
q-254 0 -254 -96z" />
    <glyph glyph-name="A" unicode="A" horiz-adv-x="1300" 
d="M1079 254h-860l-72 -254h-92l406 1434h368l416 -1434h-92zM287 492h725l-156 532l-49 188h-322l-49 -188z" />
    <glyph glyph-name="B" unicode="B" horiz-adv-x="1288" 
d="M1174 430q0 -204 -121.5 -317t-343.5 -113h-545v1434h551q220 0 328 -107t108 -305q0 -216 -184 -289q101 -41 154 -119t53 -184zM1087 430q0 87 -96.5 134.5t-281.5 47.5h-459v-374h459q186 0 282 49.5t96 142.5zM1065 1022q0 85 -79.5 129.5t-270.5 44.5h-465v-346h465
q193 0 271.5 43t78.5 129z" />
    <glyph glyph-name="C" unicode="C" horiz-adv-x="1431" 
d="M1319 854h-86v31q0 158 -143 247t-359 89q-258 0 -398 -133.5t-140 -370.5t140 -370.5t398 -133.5q140 0 252.5 41t181 123.5t68.5 193.5v37h88v-37q0 -186 -78.5 -322.5t-210.5 -205t-301 -68.5q-294 0 -459.5 196t-165.5 546t165.5 545.5t459.5 195.5q124 0 231 -38.5
t186.5 -110t125 -181t45.5 -243.5v-31z" />
    <glyph glyph-name="D" unicode="D" horiz-adv-x="1404" 
d="M164 1434h510q294 0 459 -189.5t165 -527.5t-165 -527.5t-459 -189.5h-510v1434zM674 1196h-424v-958h424q259 0 398.5 126t139.5 353q0 225 -140 352t-398 127z" />
    <glyph glyph-name="E" unicode="E" horiz-adv-x="1175" 
d="M164 0v1434h899v-238h-813v-348h780v-238h-780v-372h813v-238h-899z" />
    <glyph glyph-name="F" unicode="F" horiz-adv-x="1155" 
d="M250 0h-86v1434h899v-238h-813v-348h780v-238h-780v-610z" />
    <glyph glyph-name="G" unicode="G" horiz-adv-x="1462" 
d="M731 213q143 0 257 21.5t183.5 66t69.5 105.5v18h-520v238h606v-662h-86v240q-56 -128 -191 -196.5t-319 -68.5q-294 0 -459.5 196t-165.5 546t165.5 545.5t459.5 195.5q123 0 230 -38.5t186 -110t124.5 -181t45.5 -243.5v-31h-86v31q0 158 -142 247t-358 89
q-258 0 -398 -133.5t-140 -370.5t140 -370.5t398 -133.5z" />
    <glyph glyph-name="H" unicode="H" horiz-adv-x="1413" 
d="M1249 0h-86v612h-913v-612h-86v1434h86v-584h913v584h86v-1434z" />
    <glyph glyph-name="I" unicode="I" horiz-adv-x="634" 
d="M164 0v238h110v958h-110v238h307v-238h-111v-958h111v-238h-307z" />
    <glyph glyph-name="J" unicode="J" horiz-adv-x="1193" 
d="M158 518v-47q0 -66 16 -110.5t58.5 -79.5t122 -51.5t200.5 -16.5q100 0 171 11.5t115 31.5t68.5 53.5t33.5 71t9 90.5v963h86v-963q0 -246 -111.5 -371t-371.5 -125q-257 0 -370 125.5t-113 370.5v47h86z" />
    <glyph glyph-name="K" unicode="K" horiz-adv-x="1316" 
d="M164 0v1434h86v-562h186l453 562h309l-573 -711l622 -723h-135l-555 635h-307v-635h-86z" />
    <glyph glyph-name="L" unicode="L" horiz-adv-x="1120" 
d="M1051 238v-238h-887v1434h86v-1196h801z" />
    <glyph glyph-name="M" unicode="M" horiz-adv-x="1792" 
d="M1626 1434v-1434h-86v1024l2 223h-6l-514 -981h-100l-508 981h-8l4 -223v-1024h-246v1434h260l473 -916h4l473 916h252z" />
    <glyph glyph-name="N" unicode="N" horiz-adv-x="1458" 
d="M1057 0l-809 1227h-4l4 -203v-1024h-84v1434h237l809 -1227h4l-4 203v1024h84v-1434h-237z" />
    <glyph glyph-name="O" unicode="O" horiz-adv-x="1462" 
d="M1278 717q0 237 -142 370.5t-405 133.5t-405 -133.5t-142 -370.5t142 -370.5t405 -133.5t405 133.5t142 370.5zM106 717q0 350 165.5 545.5t459.5 195.5t459.5 -195.5t165.5 -545.5t-165.5 -546t-459.5 -196t-459.5 196t-165.5 546z" />
    <glyph glyph-name="P" unicode="P" horiz-adv-x="1228" 
d="M666 1196h-416v-401h416q183 0 280.5 52t97.5 148t-97.5 148.5t-280.5 52.5zM164 1434h502q221 0 342.5 -115.5t121.5 -323.5q0 -207 -121.5 -322.5t-342.5 -115.5h-416v-557h-86v1434z" />
    <glyph glyph-name="Q" unicode="Q" horiz-adv-x="1511" 
d="M731 -25q-294 0 -459.5 196t-165.5 546t165.5 545.5t459.5 195.5t459.5 -195.5t165.5 -545.5q0 -161 -50 -292t-151 -212h258v-238h-682zM731 213q259 0 399 133.5t140 370.5t-140 370.5t-399 133.5q-258 0 -398 -133.5t-140 -370.5t140 -370.5t398 -133.5z" />
    <glyph glyph-name="R" unicode="R" horiz-adv-x="1308" 
d="M1171 995q0 -187 -101.5 -300.5t-287.5 -133.5l428 -561h-98l-424 557h-438v-557h-86v1434h538q222 0 345.5 -116t123.5 -323zM1085 995q0 96 -99 148.5t-284 52.5h-452v-401h452q185 0 284 52t99 148z" />
    <glyph glyph-name="S" unicode="S" horiz-adv-x="1296" 
d="M1190 424q0 -88 -33 -167t-97.5 -143t-171 -101.5t-241.5 -37.5q-541 0 -541 506v37h87v-37q0 -97 39.5 -153.5t139 -85.5t275.5 -29q244 0 350.5 48.5t106.5 162.5q0 76 -33.5 127.5t-90 77.5t-130 40t-154 21t-161.5 15.5t-154.5 28t-130 53t-90 97t-33.5 154.5
q0 85 31 159t92.5 133.5t163.5 93.5t233 34q522 0 522 -497v-37h-86v37q0 94 -37 148.5t-133 83t-266 28.5q-232 0 -333 -41.5t-101 -141.5q0 -75 33.5 -126.5t90 -77t130 -39.5t154.5 -21t161.5 -15t154 -28t130 -54t90 -98t33.5 -155z" />
    <glyph glyph-name="T" unicode="T" horiz-adv-x="1179" 
d="M47 1196v238h1086v-238h-500v-1196h-86v1196h-500z" />
    <glyph glyph-name="U" unicode="U" horiz-adv-x="1400" 
d="M1245 1434v-826q0 -300 -143 -466.5t-400 -166.5q-263 0 -404.5 165.5t-141.5 467.5v826h86v-826q0 -189 118.5 -292t341.5 -103q219 0 338 103.5t119 291.5v826h86z" />
    <glyph glyph-name="V" unicode="V" horiz-adv-x="1286" 
d="M754 0h-224l-479 1434h92l342 -1024l78 -263h4l72 263l344 1024h252z" />
    <glyph glyph-name="W" unicode="W" horiz-adv-x="2007" 
d="M1962 1434l-365 -1434h-254l-276 1012l-63 270h-5l-59 -270l-276 -1012h-254l-365 1434h88l262 -1024l60 -271h4l63 271l281 1024h237l281 -1024l63 -271h5l59 271l262 1024h252z" />
    <glyph glyph-name="X" unicode="X" horiz-adv-x="1327" 
d="M928 1434h280l-434 -756l467 -678h-106l-310 453l-98 151h-8l-82 -151l-264 -453h-287l469 799l-436 635h104l281 -410l98 -152h8l82 152z" />
    <glyph glyph-name="Y" unicode="Y" horiz-adv-x="1193" 
d="M555 0v422l-514 1012h92l299 -590l80 -176h4l78 176l299 590h260l-512 -1012v-422h-86z" />
    <glyph glyph-name="Z" unicode="Z" horiz-adv-x="1196" 
d="M1065 1196l-846 -954v-4h866v-238h-974v238l845 954v4h-804v238h913v-238z" />
    <glyph glyph-name="bracketleft" unicode="[" horiz-adv-x="673" 
d="M184 -512v2298h469v-238h-383v-1822h383v-238h-469z" />
    <glyph glyph-name="backslash" unicode="\" horiz-adv-x="890" 
d="M682 0l-559 1434h86l559 -1434h-86z" />
    <glyph glyph-name="bracketright" unicode="]" horiz-adv-x="673" 
d="M489 1786v-2298h-469v238h383v1822h-383v238h469z" />
    <glyph glyph-name="asciicircum" unicode="^" horiz-adv-x="1019" 
d="M950 793v-25h-65l-250 285l-121 155h-8l-121 -155l-250 -285h-65v25l405 641h70z" />
    <glyph glyph-name="underscore" unicode="_" horiz-adv-x="1861" 
d="M164 221h1536v-246h-1536v246z" />
    <glyph glyph-name="grave" unicode="`" horiz-adv-x="495" 
d="M440 1182h-65l-332 354h258z" />
    <glyph glyph-name="a" unicode="a" horiz-adv-x="1138" 
d="M567 1042q194 0 305 -85.5t111 -235.5v-721h-84v248q-46 -123 -162.5 -194.5t-290.5 -71.5q-153 0 -240 84t-87 233q0 146 87 227.5t240 81.5h453v113q0 92 -332 92q-334 0 -334 -92v-25h-83v25q0 151 111 236t306 85zM203 307q0 -47 66 -71.5t188 -24.5q442 0 442 192
h-442q-254 0 -254 -96z" />
    <glyph glyph-name="b" unicode="b" horiz-adv-x="1212" 
d="M1130 512q0 -249 -122 -389.5t-349 -140.5q-332 0 -411 260v-242h-84v1536h84v-754q79 260 411 260q227 0 349 -141t122 -389zM645 811q-195 0 -296 -64t-101 -184v-102q0 -120 101 -184t296 -64q212 0 307 70t95 229q0 158 -95.5 228.5t-306.5 70.5z" />
    <glyph glyph-name="c" unicode="c" horiz-adv-x="1118" 
d="M571 811q-216 0 -314.5 -71.5t-98.5 -227.5q0 -157 98 -228t315 -71q185 0 282 49.5t97 138.5v17h82v-17q0 -188 -125.5 -303.5t-335.5 -115.5q-236 0 -362.5 140.5t-126.5 389.5q0 248 126.5 389t362.5 141q211 0 336 -109t125 -290v-16h-82v16q0 78 -97.5 123
t-281.5 45z" />
    <glyph glyph-name="d" unicode="d" horiz-adv-x="1212" 
d="M965 242q-79 -260 -412 -260q-227 0 -349 140.5t-122 389.5q0 248 122 389t349 141q333 0 412 -260v754h84v-1536h-84v242zM567 213q195 0 296.5 64.5t101.5 183.5v102q0 119 -101.5 183.5t-296.5 64.5q-211 0 -306 -70.5t-95 -228.5q0 -159 94.5 -229t306.5 -70z" />
    <glyph glyph-name="e" unicode="e" horiz-adv-x="1118" 
d="M82 512q0 248 126.5 389t362.5 141q216 0 336.5 -118.5t120.5 -333.5v-150h-864q20 -120 117.5 -173.5t289.5 -53.5q175 0 268 29.5t93 81.5v8h84v-8q0 -152 -122.5 -247t-322.5 -95q-236 0 -362.5 140.5t-126.5 389.5zM571 811q-369 0 -407 -168h788q0 54 -53 92.5
t-138 57t-190 18.5z" />
    <glyph glyph-name="f" unicode="f" horiz-adv-x="759" 
d="M616 1307q-156 0 -242.5 -46.5t-86.5 -123.5v-113h424v-229h-424v-795h-82v795h-119v229h119v113q0 180 109.5 289.5t301.5 109.5h103v-229h-103z" />
    <glyph glyph-name="g" unicode="g" horiz-adv-x="1169" 
d="M938 795q25 229 158 229h28v-229h-28q-123 0 -123 -164q0 -181 -117.5 -282t-320.5 -101h-201q-46 0 -74.5 -18.5t-28.5 -53.5q0 -34 28.5 -52t74.5 -18h330q197 0 306 -82t109 -231q0 -151 -142.5 -235t-393.5 -84q-248 0 -375 81.5t-127 237.5q0 100 53 160.5t166 81.5
q-98 36 -98 135q0 45 27.5 83t78.5 56q-174 82 -174 322q0 198 113 304.5t328 106.5q330 0 403 -247zM535 813q-178 0 -272.5 -46t-94.5 -136q0 -89 94.5 -135.5t272.5 -46.5q180 0 272 46.5t92 135.5q0 182 -364 182zM1006 -207q0 96 -342 96h-258q-291 0 -291 -96
q0 -54 100 -80t328 -26q247 0 355 26t108 80z" />
    <glyph glyph-name="h" unicode="h" 
d="M248 786q80 256 381 256q207 0 313.5 -106.5t106.5 -312.5v-623h-82v623q0 94 -90 142t-263 48q-180 0 -273 -64.5t-93 -185.5v-563h-84v1536h84v-750z" />
    <glyph glyph-name="i" unicode="i" horiz-adv-x="432" 
d="M258 1024v-1024h-84v1024h84zM215 1208q-76 0 -117 39.5t-41 110.5t41 110t117 39q75 0 116.5 -39t41.5 -110q0 -70 -43.5 -110t-114.5 -40z" />
    <glyph glyph-name="j" unicode="j" horiz-adv-x="411" 
d="M-338 -152h82q0 -145 211 -145q103 0 157 40t54 116v1165h82v-1186q0 -171 -77 -267.5t-216 -96.5q-138 0 -215.5 101t-77.5 273zM199 1208q-76 0 -117 39.5t-41 110.5t41 110t117 39q75 0 116 -39t41 -110q0 -70 -43 -110t-114 -40z" />
    <glyph glyph-name="k" unicode="k" horiz-adv-x="1116" 
d="M248 0h-84v1536h84v-899h151l379 387h258l-491 -500l518 -524h-125l-403 408h-287v-408z" />
    <glyph glyph-name="l" unicode="l" horiz-adv-x="411" 
d="M248 1536v-1536h-84v1536h84z" />
    <glyph glyph-name="m" unicode="m" horiz-adv-x="1785" 
d="M248 799q73 243 325 243q272 0 340 -235q79 235 353 235q181 0 272.5 -106.5t91.5 -312.5v-623h-84v623q0 190 -297 190q-154 0 -232.5 -64.5t-78.5 -185.5v-563h-84v623q0 190 -297 190q-152 0 -230.5 -64.5t-78.5 -185.5v-563h-84v1024h84v-225z" />
    <glyph glyph-name="n" unicode="n" 
d="M248 786q80 256 381 256q207 0 313.5 -106.5t106.5 -312.5v-623h-82v623q0 94 -90 142t-263 48q-180 0 -273 -64.5t-93 -185.5v-563h-84v1024h84v-238z" />
    <glyph glyph-name="o" unicode="o" horiz-adv-x="1140" 
d="M571 1042q235 0 361.5 -141t126.5 -389q0 -249 -126.5 -389.5t-361.5 -140.5q-236 0 -362.5 140.5t-126.5 389.5q0 248 126.5 389t362.5 141zM571 213q214 0 313 71.5t99 227.5q0 155 -99 227t-313 72q-216 0 -314.5 -71.5t-98.5 -227.5q0 -157 98 -228t315 -71z" />
    <glyph glyph-name="p" unicode="p" horiz-adv-x="1212" 
d="M248 782q79 260 411 260q227 0 349 -140.5t122 -389.5q0 -248 -122 -389t-349 -141q-332 0 -411 260v-754h-84v1536h84v-242zM645 811q-195 0 -296 -64t-101 -184v-102q0 -120 101 -184t296 -64q211 0 306.5 70.5t95.5 228.5q0 159 -95 229t-307 70z" />
    <glyph glyph-name="q" unicode="q" horiz-adv-x="1212" 
d="M82 512q0 249 122 389.5t349 140.5q333 0 412 -260v242h84v-1536h-84v754q-79 -260 -412 -260q-227 0 -349 141t-122 389zM567 213q195 0 296.5 64.5t101.5 183.5v102q0 119 -101.5 183.5t-296.5 64.5q-212 0 -306.5 -70t-94.5 -229q0 -158 95 -228.5t306 -70.5z" />
    <glyph glyph-name="r" unicode="r" horiz-adv-x="792" 
d="M248 727q82 315 416 315h67v-231h-67q-206 0 -311 -89.5t-105 -254.5v-467h-84v1024h84v-297z" />
    <glyph glyph-name="s" unicode="s" horiz-adv-x="1038" 
d="M862 328q0 51 -42 81.5t-109 41.5t-148 17t-162 15.5t-148 29t-109 65t-42 116.5q0 70 25 131.5t74.5 110.5t131 77.5t185.5 28.5q194 0 305 -92.5t111 -255.5v-10h-84v10q0 70 -77 93.5t-255 23.5q-133 0 -206 -12.5t-100.5 -37t-27.5 -67.5q0 -51 42 -81.5t109 -41.5
t148 -17t162 -15.5t148 -29t109 -65t42 -116.5q0 -69 -25.5 -129.5t-75.5 -110t-134.5 -78t-192.5 -28.5q-195 0 -310.5 95.5t-115.5 250.5v26h84v-26q0 -66 81.5 -90.5t260.5 -24.5q194 0 270 28.5t76 86.5z" />
    <glyph glyph-name="t" unicode="t" horiz-adv-x="950" 
d="M539 211q128 0 190 30.5t62 104.5h81q0 -171 -87 -267.5t-246 -96.5t-246.5 96.5t-87.5 267.5v449h-119v229h119l14 219h68v-219h469v-229h-469v-449q0 -74 62 -104.5t190 -30.5z" />
    <glyph glyph-name="u" unicode="u" 
d="M956 238q-80 -256 -381 -256q-207 0 -313 106.5t-106 312.5v623h82v-623q0 -94 89.5 -142t262.5 -48q180 0 273 64.5t93 185.5v563h84v-1024h-84v238z" />
    <glyph glyph-name="v" unicode="v" horiz-adv-x="1044" 
d="M618 0h-192l-393 1024h84l276 -721l49 -133h4l41 133l277 721h248z" />
    <glyph glyph-name="w" unicode="w" horiz-adv-x="1579" 
d="M1542 1024l-285 -1024h-178l-241 715l-41 147h-4l-41 -147l-242 -715h-188l-285 1024h74l186 -668l47 -178h4l47 178l232 668h180l225 -668l53 -178h2l41 178l185 668h229z" />
    <glyph glyph-name="x" unicode="x" horiz-adv-x="1083" 
d="M999 1024l-356 -547l383 -477h-102l-252 313l-80 111h-4l-62 -111l-202 -313h-267l381 582l-354 442h102l226 -283l75 -102h5l57 102l184 283h266z" />
    <glyph glyph-name="y" unicode="y" horiz-adv-x="1044" 
d="M1024 1024l-453 -1133q-69 -171 -122.5 -259t-109.5 -123t-138 -35h-47v229h47q117 0 185.5 40t107.5 148l41 109l-494 1024h88l285 -588l69 -162h6l56 162l233 588h246z" />
    <glyph glyph-name="z" unicode="z" horiz-adv-x="962" 
d="M842 1024v-217l-600 -578h614v-229h-750v217l601 578h-576v229h711z" />
    <glyph glyph-name="braceleft" unicode="{" horiz-adv-x="739" 
d="M266 389q0 65 -27.5 101t-80.5 36h-76v217h76q53 0 80.5 36t27.5 102v544q0 168 76 263.5t211 95.5h166v-238h-166q-201 0 -201 -121v-544q0 -167 -67 -246q67 -79 67 -246v-543q0 -120 201 -120h166v-238h-166q-135 0 -211 95t-76 263v543z" />
    <glyph glyph-name="bar" unicode="|" horiz-adv-x="516" 
d="M215 -512v1946h86v-1946h-86z" />
    <glyph glyph-name="braceright" unicode="}" horiz-adv-x="739" 
d="M473 389v-543q0 -168 -76 -263t-211 -95h-166v238h166q201 0 201 120v543q0 165 68 246q-68 81 -68 246v544q0 121 -201 121h-166v238h166q135 0 211 -95.5t76 -263.5v-544q0 -65 28 -101.5t81 -36.5h75v-217h-75q-53 0 -81 -36t-28 -101z" />
    <glyph glyph-name="exclamdown" unicode="&#xa1;" horiz-adv-x="628" 
d="M440 -416h-250l82 1061h86zM164 893q0 71 38 110t111 39q72 0 112 -39t40 -110t-40 -110.5t-112 -39.5q-73 0 -111 39.5t-38 110.5z" />
    <glyph glyph-name="cent" unicode="&#xa2;" horiz-adv-x="1128" 
d="M41 512q0 247 125 388t360 142v289h76v-289q217 -1 344 -110t127 -289v-16h-82v16q0 78 -99.5 123t-289.5 45v-598q191 0 290 49.5t99 138.5v17h82v-17q0 -186 -127.5 -302t-343.5 -117v-289h-76v289q-236 1 -360.5 141.5t-124.5 388.5zM125 512q0 -157 95 -228t306 -71
v598q-210 0 -305.5 -71.5t-95.5 -227.5z" />
    <glyph glyph-name="sterling" unicode="&#xa3;" horiz-adv-x="1341" 
d="M369 516v25h-125v229h125v277q0 84 26 156.5t77.5 130t137 91t195.5 33.5q442 0 442 -497v-37h-86v37q0 94 -30 148.5t-108.5 83t-217.5 28.5q-172 0 -261 -50t-89 -124v-277h463v-229h-463v-25q0 -181 -60 -278h852v-238h-1085v238h37q92 0 131 59t39 219z" />
    <glyph glyph-name="yen" unicode="&#xa5;" horiz-adv-x="1193" 
d="M1061 1434h92l-270 -631h164v-246h-406v-123h406v-246h-406v-188h-86v188h-408v246h408v123h-408v246h164l-270 631h92l270 -631h388z" />
    <glyph glyph-name="brokenbar" unicode="&#xa6;" horiz-adv-x="557" 
d="M236 -512v852h86v-852h-86zM236 623v811h86v-811h-86z" />
    <glyph glyph-name="section" unicode="&#xa7;" horiz-adv-x="1058" 
d="M881 291q0 36 -42 57t-109 31.5t-148.5 19.5t-163 28t-148.5 50t-109 92t-42 148q0 61 35.5 118t103.5 101q-131 85 -131 207q0 63 24 118t71.5 100t127.5 71t182 26q186 0 297 -87t111 -228v-37h-76v37q0 52 -86.5 80t-245.5 28q-97 0 -164 -8.5t-101.5 -24t-49 -33.5
t-14.5 -42q0 -36 41 -57t107 -31.5t145 -19.5t158.5 -28t145.5 -50t107 -92t41 -148q0 -60 -33.5 -116.5t-97.5 -98.5q139 -84 139 -211q0 -63 -25.5 -118t-75.5 -100t-133 -71.5t-190 -26.5q-192 0 -306.5 87.5t-114.5 228.5v37h75v-37q0 -53 88.5 -81t257.5 -28
q349 0 349 109zM532 836q-97 0 -165 -9t-104.5 -26t-52 -37.5t-15.5 -46.5t15.5 -46.5t52 -37.5t104.5 -26t165 -9q98 0 166.5 9t105.5 26t52.5 37.5t15.5 46.5t-15.5 46.5t-52.5 37.5t-105.5 26t-166.5 9z" />
    <glyph glyph-name="dieresis" unicode="&#xa8;" horiz-adv-x="1054" 
d="M295 1208q-71 0 -110.5 40t-39.5 110t39.5 109.5t110.5 39.5t111 -39.5t40 -109.5t-40 -110t-111 -40zM760 1208q-70 0 -110 40t-40 110t39.5 109.5t110.5 39.5t111 -39.5t40 -109.5t-40 -110t-111 -40z" />
    <glyph glyph-name="copyright" unicode="&#xa9;" horiz-adv-x="1941" 
d="M971 -217q380 0 585 191.5t205 537.5q0 342 -207 535.5t-583 193.5q-387 0 -589 -192t-202 -537t202 -537t589 -192zM971 -434q-423 0 -646 247.5t-223 698.5t223 698.5t646 247.5q409 0 638.5 -249.5t229.5 -696.5q0 -446 -230.5 -696t-637.5 -250zM965 811
q-216 0 -315 -71.5t-99 -227.5q0 -157 98.5 -228t315.5 -71q185 0 281.5 49.5t96.5 138.5v17h82v-17q0 -188 -125 -303.5t-335 -115.5q-236 0 -363 140.5t-127 389.5q0 248 127 389t363 141q211 0 335.5 -109t124.5 -290v-16h-82v16q0 78 -97 123t-281 45z" />
    <glyph glyph-name="ordfeminine" unicode="&#xaa;" horiz-adv-x="821" 
d="M418 1458q149 0 235 -72t86 -198v-473h-73v164q-33 -88 -118.5 -138.5t-213.5 -50.5q-122 0 -192 61.5t-70 168.5q0 105 81 165t218 60h295v43q0 67 -248 67q-252 0 -252 -67v-17h-72v17q0 126 86.5 198t237.5 72zM145 926q0 -29 57.5 -45.5t162.5 -16.5q301 0 301 123
h-301q-220 0 -220 -61z" />
    <glyph glyph-name="guillemotleft" unicode="&#xab;" horiz-adv-x="1181" 
d="M158 508l360 -205v-240h-12l-445 449l445 446h12v-239l-360 -207v-4zM678 508l360 -205v-240h-12l-444 449l444 446h12v-239l-360 -207v-4z" />
    <glyph glyph-name="registered" unicode="&#xae;" horiz-adv-x="1941" 
d="M1839 512q0 -446 -230.5 -696t-637.5 -250q-423 0 -646 247.5t-223 698.5t223 698.5t646 247.5q409 0 638.5 -249.5t229.5 -696.5zM180 512q0 -345 202 -537t589 -192q380 0 585 191.5t205 537.5q0 342 -207 535.5t-583 193.5q-387 0 -589 -192t-202 -537zM1391 664
q0 -278 -209 -322l231 -342h-100l-219 324h-441v-324h-82v1024h463q177 0 267 -94.5t90 -265.5zM1307 664q0 131 -273 131h-381v-263h381q273 0 273 132z" />
    <glyph glyph-name="macron" unicode="&#xaf;" horiz-adv-x="1028" 
d="M944 1243h-821v230h821v-230z" />
    <glyph glyph-name="degree" unicode="&#xb0;" horiz-adv-x="770" 
d="M385 1004q260 0 260 124q0 125 -260 125t-260 -125q0 -124 260 -124zM385 803q-163 0 -247.5 85t-84.5 240q0 156 84 241t248 85q157 0 244.5 -86t87.5 -240q0 -153 -88 -239t-244 -86z" />
    <glyph glyph-name="plusminus" unicode="&#xb1;" horiz-adv-x="1173" 
d="M137 854v238h406v329h86v-329h407v-238h-407v-334h-86v334h-406zM137 418h899v-238h-899v238z" />
    <glyph glyph-name="acute" unicode="&#xb4;" horiz-adv-x="495" 
d="M133 1182l80 354h258l-272 -354h-66z" />
    <glyph glyph-name="paragraph" unicode="&#xb6;" horiz-adv-x="1290" 
d="M102 987q0 212 127.5 329.5t356.5 117.5h544v-1948h-86v1710h-448v-1708h-86v1057q-194 19 -301 134t-107 308z" />
    <glyph glyph-name="periodcentered" unicode="&#xb7;" horiz-adv-x="423" 
d="M61 567q0 71 38.5 110.5t111.5 39.5q72 0 111.5 -39.5t39.5 -110.5t-39.5 -110t-111.5 -39q-73 0 -111.5 39t-38.5 110z" />
    <glyph glyph-name="cedilla" unicode="&#xb8;" horiz-adv-x="614" 
d="M330 -164q0 55 -129 55h-27v197h74v-139q67 -2 115.5 -19.5t73 -46t35.5 -59t11 -64.5q0 -108 -79 -161.5t-214 -53.5q-68 0 -127 13v225q47 -8 130 -8q78 0 107.5 14t29.5 47z" />
    <glyph glyph-name="ordmasculine" unicode="&#xba;" horiz-adv-x="886" 
d="M444 895q153 0 226 43t73 135q0 93 -73 136.5t-226 43.5q-155 0 -228 -43.5t-73 -136.5q0 -92 73.5 -135t227.5 -43zM444 1458q181 0 277 -102t96 -283q0 -180 -96.5 -281.5t-276.5 -101.5q-178 0 -276 102t-98 281q0 180 98 282.5t276 102.5z" />
    <glyph glyph-name="guillemotright" unicode="&#xbb;" horiz-adv-x="1181" 
d="M143 303l361 205v4l-361 207v239h13l444 -446l-444 -449h-13v240zM664 303l360 205v4l-360 207v239h12l444 -446l-444 -449h-12v240z" />
    <glyph glyph-name="questiondown" unicode="&#xbf;" horiz-adv-x="1239" 
d="M127 -10q0 168 116 277t330 112v268h86v-463h-41q-196 0 -300.5 -51t-104.5 -143q0 -91 105.5 -141t299.5 -50q202 0 305 43.5t103 126.5v92h86v-92q0 -193 -130 -300t-364 -107q-232 0 -361.5 113t-129.5 315zM614 1044q73 0 111.5 -39t38.5 -110t-38.5 -110.5
t-111.5 -39.5q-72 0 -111.5 39.5t-39.5 110.5t39.5 110t111.5 39z" />
    <glyph glyph-name="Agrave" unicode="&#xc0;" horiz-adv-x="1300" 
d="M1079 254h-860l-72 -254h-92l406 1434h368l416 -1434h-92zM287 492h725l-156 532l-49 188h-322l-49 -188zM559 2046l115 -449h-76l-338 449h299z" />
    <glyph glyph-name="Aacute" unicode="&#xc1;" horiz-adv-x="1300" 
d="M1079 254h-860l-72 -254h-92l406 1434h368l416 -1434h-92zM287 492h725l-156 532l-49 188h-322l-49 -188zM688 1597h-76l54 449h299z" />
    <glyph glyph-name="Acircumflex" unicode="&#xc2;" horiz-adv-x="1300" 
d="M1079 254h-860l-72 -254h-92l406 1434h368l416 -1434h-92zM287 492h725l-156 532l-49 188h-322l-49 -188zM467 1597h-311l467 449h67l467 -449h-309l-191 367z" />
    <glyph glyph-name="Atilde" unicode="&#xc3;" horiz-adv-x="1300" 
d="M1079 254h-860l-72 -254h-92l406 1434h368l416 -1434h-92zM287 492h725l-156 532l-49 188h-322l-49 -188zM518 1815q40 0 71.5 14t53 36t41 48.5t41.5 53.5t48 49t66 36t91 14q145 0 199.5 -106t3.5 -320l-11 -43h-250l11 43q22 91 -6 140t-84 49q-40 0 -71.5 -14
t-53 -36t-41 -49t-41.5 -54t-48 -49t-66 -36t-91 -14q-145 0 -199.5 106t-3.5 320l10 43h250l-10 -43q-22 -91 6 -139.5t84 -48.5z" />
    <glyph glyph-name="Adieresis" unicode="&#xc4;" horiz-adv-x="1300" 
d="M1079 254h-860l-72 -254h-92l406 1434h368l416 -1434h-92zM287 492h725l-156 532l-49 188h-322l-49 -188zM516 1821q0 -74 -43 -116t-117 -42q-75 0 -116 41.5t-41 116.5t41 116t116 41q74 0 117 -41.5t43 -115.5zM1063 1821q0 -74 -43 -116t-117 -42q-75 0 -116.5 41.5
t-41.5 116.5t41.5 116t116.5 41q74 0 117 -41.5t43 -115.5z" />
    <glyph glyph-name="Aring" unicode="&#xc5;" horiz-adv-x="1300" 
d="M969 1714q0 -98 -36 -170t-104 -110l416 -1434h-92l-74 254h-860l-72 -254h-92l406 1434q-139 79 -139 280q0 154 84 240t239 86t239.5 -86t84.5 -240zM287 492h725l-156 532l-49 188h-322l-49 -188zM389 1714q0 -59 67 -92t189 -33t189 33t67 92t-67 92t-189 33
t-189 -33t-67 -92z" />
    <glyph glyph-name="AE" unicode="&#xc6;" horiz-adv-x="1888" 
d="M141 0h-86l590 1434h1131v-238h-732v-348h699v-238h-699v-372h732v-238h-818v262h-708zM958 1196h-323l-287 -696h610v696z" />
    <glyph glyph-name="Ccedilla" unicode="&#xc7;" horiz-adv-x="1431" 
d="M731 1458q124 0 231 -38.5t186.5 -110t125 -181t45.5 -243.5v-31h-86v31q0 158 -143 247t-359 89q-258 0 -398 -133.5t-140 -370.5t140 -370.5t398 -133.5q140 0 252.5 41t181 123.5t68.5 193.5v37h88v-37q0 -133 -41 -242.5t-114 -184t-172 -117.5t-216 -50v-22
q59 -4 102 -19t65.5 -33.5t35 -47t15.5 -50t3 -51.5q0 -49 -16.5 -90.5t-52.5 -75.5t-99.5 -53.5t-150.5 -19.5q-62 0 -139 14v235q82 -12 184 -12q88 0 118.5 16t30.5 50q0 30 -30.5 47.5t-114.5 17.5h-37v92q-277 14 -431.5 209t-154.5 533q0 350 165.5 545.5t459.5 195.5
z" />
    <glyph glyph-name="Egrave" unicode="&#xc8;" horiz-adv-x="1175" 
d="M164 0v1434h899v-238h-813v-348h780v-238h-780v-372h813v-238h-899zM678 1597h-76l-338 449h299z" />
    <glyph glyph-name="Eacute" unicode="&#xc9;" horiz-adv-x="1175" 
d="M164 0v1434h899v-238h-813v-348h780v-238h-780v-372h813v-238h-899zM596 1597l53 449h299l-276 -449h-76z" />
    <glyph glyph-name="Ecircumflex" unicode="&#xca;" horiz-adv-x="1185" 
d="M1071 0h-899v1434h899v-238h-813v-348h780v-238h-780v-372h813v-238zM438 1597h-311l467 449h68l466 -449h-309l-190 367z" />
    <glyph glyph-name="Edieresis" unicode="&#xcb;" horiz-adv-x="1175" 
d="M164 0v1434h899v-238h-813v-348h780v-238h-780v-372h813v-238h-899zM893 1663q-75 0 -116.5 41.5t-41.5 116.5t41.5 116t116.5 41q74 0 117 -41.5t43 -115.5t-43 -116t-117 -42zM346 1663q-75 0 -116.5 41.5t-41.5 116.5t41.5 116t116.5 41q74 0 117 -41.5t43 -115.5
t-43 -116t-117 -42z" />
    <glyph glyph-name="Igrave" unicode="&#xcc;" horiz-adv-x="634" 
d="M164 0v238h110v958h-110v238h307v-238h-111v-958h111v-238h-307zM356 1597h-75l-338 449h299z" />
    <glyph glyph-name="Iacute" unicode="&#xcd;" horiz-adv-x="634" 
d="M164 0v238h110v958h-110v238h307v-238h-111v-958h111v-238h-307zM276 1597l54 449h299l-277 -449h-76z" />
    <glyph glyph-name="Icircumflex" unicode="&#xce;" horiz-adv-x="634" 
d="M471 0h-307v238h110v958h-110v238h307v-238h-111v-958h111v-238zM211 1597h-311l385 449h67l385 -449h-309l-109 383z" />
    <glyph glyph-name="Idieresis" unicode="&#xcf;" horiz-adv-x="634" 
d="M164 0v238h110v958h-110v238h307v-238h-111v-958h111v-238h-307zM526 1663q-75 0 -116 41.5t-41 116.5t41 116t116 41q74 0 117 -41.5t43 -115.5t-43 -116t-117 -42zM106 1663q-75 0 -116 41.5t-41 116.5t41 116t116 41q74 0 117 -41.5t43 -115.5t-43 -116t-117 -42z" />
    <glyph glyph-name="Eth" unicode="&#xd0;" horiz-adv-x="1404" 
d="M1298 717q0 -338 -165 -527.5t-459 -189.5h-510v612h-119v238h119v584h510q294 0 459 -189.5t165 -527.5zM1212 717q0 225 -140 352t-398 127h-424v-346h500v-238h-500v-374h424q259 0 398.5 126t139.5 353z" />
    <glyph glyph-name="Ntilde" unicode="&#xd1;" horiz-adv-x="1458" 
d="M1057 0l-809 1227h-4l4 -203v-1024h-84v1434h237l809 -1227h4l-4 203v1024h84v-1434h-237zM1010 2066q145 0 199 -106t3 -320l-10 -43h-250l11 43q22 91 -6.5 140t-84.5 49q-40 0 -71.5 -14t-53 -36t-41 -49t-41 -54t-47.5 -49t-66 -36t-91 -14q-145 0 -199.5 106
t-3.5 320l10 43h250l-10 -43q-22 -91 6 -139.5t84 -48.5q40 0 71.5 14t53 36t41 48.5t41.5 53.5t48 49t66 36t91 14z" />
    <glyph glyph-name="Ograve" unicode="&#xd2;" horiz-adv-x="1462" 
d="M1278 717q0 237 -142 370.5t-405 133.5t-405 -133.5t-142 -370.5t142 -370.5t405 -133.5t405 133.5t142 370.5zM106 717q0 350 165.5 545.5t459.5 195.5t459.5 -195.5t165.5 -545.5t-165.5 -546t-459.5 -196t-459.5 196t-165.5 546zM772 1597h-76l-338 449h299z" />
    <glyph glyph-name="Oacute" unicode="&#xd3;" horiz-adv-x="1462" 
d="M1278 717q0 237 -142 370.5t-405 133.5t-405 -133.5t-142 -370.5t142 -370.5t405 -133.5t405 133.5t142 370.5zM106 717q0 350 165.5 545.5t459.5 195.5t459.5 -195.5t165.5 -545.5t-165.5 -546t-459.5 -196t-459.5 196t-165.5 546zM725 1597l53 449h299l-276 -449h-76z
" />
    <glyph glyph-name="Ocircumflex" unicode="&#xd4;" horiz-adv-x="1462" 
d="M731 -25q-294 0 -459.5 196t-165.5 546t165.5 545.5t459.5 195.5t459.5 -195.5t165.5 -545.5t-165.5 -546t-459.5 -196zM731 213q263 0 405 133.5t142 370.5t-142 370.5t-405 133.5t-405 -133.5t-142 -370.5t142 -370.5t405 -133.5zM549 1597h-311l467 449h67l467 -449
h-309l-191 367z" />
    <glyph glyph-name="Otilde" unicode="&#xd5;" horiz-adv-x="1462" 
d="M1278 717q0 237 -142 370.5t-405 133.5t-405 -133.5t-142 -370.5t142 -370.5t405 -133.5t405 133.5t142 370.5zM106 717q0 350 165.5 545.5t459.5 195.5t459.5 -195.5t165.5 -545.5t-165.5 -546t-459.5 -196t-459.5 196t-165.5 546zM1012 2066q145 0 199 -106t3 -320
l-10 -43h-250l11 43q22 91 -6.5 140t-84.5 49q-40 0 -71.5 -14t-53 -36t-41 -49t-41 -54t-47.5 -49t-66 -36t-91 -14q-145 0 -199.5 106t-3.5 320l10 43h250l-10 -43q-22 -91 6 -139.5t84 -48.5q40 0 71.5 14t53 36t41 48.5t41.5 53.5t48 49t66 36t91 14z" />
    <glyph glyph-name="Odieresis" unicode="&#xd6;" horiz-adv-x="1462" 
d="M1278 717q0 237 -142 370.5t-405 133.5t-405 -133.5t-142 -370.5t142 -370.5t405 -133.5t405 133.5t142 370.5zM106 717q0 350 165.5 545.5t459.5 195.5t459.5 -195.5t165.5 -545.5t-165.5 -546t-459.5 -196t-459.5 196t-165.5 546zM1004 1663q-75 0 -116.5 41.5
t-41.5 116.5t41.5 116t116.5 41q74 0 116.5 -41.5t42.5 -115.5q0 -75 -42.5 -116.5t-116.5 -41.5zM457 1663q-75 0 -116.5 41.5t-41.5 116.5t41.5 116t116.5 41q74 0 116.5 -41.5t42.5 -115.5q0 -75 -42.5 -116.5t-116.5 -41.5z" />
    <glyph glyph-name="multiply" unicode="&#xd7;" horiz-adv-x="1050" 
d="M463 731l-385 275l174 174l274 -385l273 385l174 -174l-383 -275l385 -276l-174 -174l-275 387l-276 -385l-174 174z" />
    <glyph glyph-name="Oslash" unicode="&#xd8;" horiz-adv-x="1503" 
d="M752 1458q273 0 434 -155l108 131h92l-151 -185q162 -198 162 -532q0 -350 -171 -546t-474 -196q-270 0 -437 156l-106 -131h-92l149 182q-160 199 -160 535q0 349 171.5 545t474.5 196zM1311 717q0 266 -185 401l-688 -839q129 -66 314 -66q268 0 413.5 133.5
t145.5 370.5zM193 717q0 -270 182 -402l690 840q-129 66 -313 66q-268 0 -413.5 -133.5t-145.5 -370.5z" />
    <glyph glyph-name="Ugrave" unicode="&#xd9;" horiz-adv-x="1400" 
d="M1245 1434v-826q0 -300 -143 -466.5t-400 -166.5q-263 0 -404.5 165.5t-141.5 467.5v826h86v-826q0 -189 118.5 -292t341.5 -103q219 0 338 103.5t119 291.5v826h86zM745 1597h-75l-338 449h299z" />
    <glyph glyph-name="Uacute" unicode="&#xda;" horiz-adv-x="1400" 
d="M1245 1434v-826q0 -300 -143 -466.5t-400 -166.5q-263 0 -404.5 165.5t-141.5 467.5v826h86v-826q0 -189 118.5 -292t341.5 -103q219 0 338 103.5t119 291.5v826h86zM662 1597l53 449h299l-277 -449h-75z" />
    <glyph glyph-name="Ucircumflex" unicode="&#xdb;" horiz-adv-x="1400" 
d="M702 213q219 0 338 103.5t119 291.5v826h86v-826q0 -300 -143 -466.5t-400 -166.5q-263 0 -404.5 165.5t-141.5 467.5v826h86v-826q0 -189 118.5 -292t341.5 -103zM512 1597h-311l467 449h67l467 -449h-309l-191 367z" />
    <glyph glyph-name="Udieresis" unicode="&#xdc;" horiz-adv-x="1400" 
d="M1245 1434v-826q0 -300 -143 -466.5t-400 -166.5q-263 0 -404.5 165.5t-141.5 467.5v826h86v-826q0 -189 118.5 -292t341.5 -103q219 0 338 103.5t119 291.5v826h86zM973 1663q-75 0 -116.5 41.5t-41.5 116.5t41.5 116t116.5 41q74 0 117 -41.5t43 -115.5t-43 -116
t-117 -42zM426 1663q-75 0 -116.5 41.5t-41.5 116.5t41.5 116t116.5 41q74 0 117 -41.5t43 -115.5t-43 -116t-117 -42z" />
    <glyph glyph-name="Yacute" unicode="&#xdd;" horiz-adv-x="1193" 
d="M555 0v422l-514 1012h92l299 -590l80 -176h4l78 176l299 590h260l-512 -1012v-422h-86zM610 1597h-75l53 449h299z" />
    <glyph glyph-name="Thorn" unicode="&#xde;" horiz-adv-x="1222" 
d="M250 514h414q185 0 282.5 52.5t97.5 148.5t-97.5 148t-282.5 52h-414v-401zM164 1434h86v-281h414q221 0 343.5 -115.5t122.5 -322.5t-122.5 -323t-343.5 -116h-414v-276h-86v1434z" />
    <glyph glyph-name="germandbls" unicode="&#xdf;" horiz-adv-x="1273" 
d="M164 1137q0 179 113 289t305 110h589v-229l-364 -273q185 -29 285 -166.5t100 -355.5q0 -248 -127 -389t-358 -141h-129v231h129q204 0 302.5 72t98.5 227q0 154 -98.5 226.5t-302.5 72.5h-129v231h102l354 265h-452q-163 0 -248.5 -46t-85.5 -124v-1137h-84v1137z" />
    <glyph glyph-name="agrave" unicode="&#xe0;" horiz-adv-x="1138" 
d="M567 1042q194 0 305 -85.5t111 -235.5v-721h-84v248q-46 -123 -162.5 -194.5t-290.5 -71.5q-153 0 -240 84t-87 233q0 146 87 227.5t240 81.5h453v113q0 92 -332 92q-334 0 -334 -92v-25h-83v25q0 151 111 236t306 85zM203 307q0 -47 66 -71.5t188 -24.5q442 0 442 192
h-442q-254 0 -254 -96zM463 1536l139 -354h-65l-332 354h258z" />
    <glyph glyph-name="aacute" unicode="&#xe1;" horiz-adv-x="1138" 
d="M567 1042q194 0 305 -85.5t111 -235.5v-721h-84v248q-46 -123 -162.5 -194.5t-290.5 -71.5q-153 0 -240 84t-87 233q0 146 87 227.5t240 81.5h453v113q0 92 -332 92q-334 0 -334 -92v-25h-83v25q0 151 111 236t306 85zM203 307q0 -47 66 -71.5t188 -24.5q442 0 442 192
h-442q-254 0 -254 -96zM604 1182h-65l79 354h259z" />
    <glyph glyph-name="acircumflex" unicode="&#xe2;" horiz-adv-x="1138" 
d="M567 1042q194 0 305 -85.5t111 -235.5v-721h-84v248q-46 -123 -162.5 -194.5t-290.5 -71.5q-153 0 -240 84t-87 233q0 146 87 227.5t240 81.5h453v113q0 92 -332 92q-334 0 -334 -92v-25h-83v25q0 151 111 236t306 85zM203 307q0 -47 66 -71.5t188 -24.5q442 0 442 192
h-442q-254 0 -254 -96zM430 1182h-289l383 354h60l379 -354h-287l-123 262z" />
    <glyph glyph-name="atilde" unicode="&#xe3;" horiz-adv-x="1140" 
d="M582 1042q194 0 304.5 -85.5t110.5 -235.5v-721h-84v248q-46 -124 -162 -195t-290 -71q-153 0 -240.5 84t-87.5 233q0 146 87.5 227.5t240.5 81.5h452v113q0 92 -331 92q-334 0 -334 -92v-25h-84v25q0 151 111.5 236t306.5 85zM678 1364q-45 0 -79 -21t-57.5 -50.5
t-49.5 -59.5t-70.5 -51t-104.5 -21q-116 0 -157 83t-6 261l6 31h223l-6 -31q-14 -75 7.5 -113t64.5 -38q45 0 79 21t57.5 50.5t49 59t70 50.5t104.5 21q118 0 164 -86.5t0 -257.5l-8 -30h-222l7 30q14 75 -7.5 113.5t-64.5 38.5zM217 307q0 -47 66 -71.5t188 -24.5
q442 0 442 192h-442q-254 0 -254 -96z" />
    <glyph glyph-name="adieresis" unicode="&#xe4;" horiz-adv-x="1138" 
d="M567 1042q194 0 305 -85.5t111 -235.5v-721h-84v248q-46 -123 -162.5 -194.5t-290.5 -71.5q-153 0 -240 84t-87 233q0 146 87 227.5t240 81.5h453v113q0 92 -332 92q-334 0 -334 -92v-25h-83v25q0 151 111 236t306 85zM203 307q0 -47 66 -71.5t188 -24.5q442 0 442 192
h-442q-254 0 -254 -96zM934 1358q0 -70 -40.5 -110t-111.5 -40q-70 0 -109.5 39.5t-39.5 110.5q0 70 39.5 109.5t109.5 39.5q71 0 111.5 -39.5t40.5 -109.5zM469 1358q0 -70 -40.5 -110t-111.5 -40q-70 0 -109.5 39.5t-39.5 110.5q0 70 39 109.5t110 39.5t111.5 -39.5
t40.5 -109.5z" />
    <glyph glyph-name="aring" unicode="&#xe5;" horiz-adv-x="1138" 
d="M567 1042q194 0 305 -85.5t111 -235.5v-721h-84v248q-46 -123 -162.5 -194.5t-290.5 -71.5q-153 0 -240 84t-87 233q0 146 87 227.5t240 81.5h453v113q0 92 -332 92q-334 0 -334 -92v-25h-83v25q0 151 111 236t306 85zM891 1464q0 -153 -85 -239t-239 -86t-238.5 86
t-84.5 239q0 154 84 240t239 86t239.5 -86t84.5 -240zM203 307q0 -47 66 -71.5t188 -24.5q442 0 442 192h-442q-254 0 -254 -96zM311 1464q0 -59 67 -92t189 -33t189 33t67 92t-67 92t-189 33t-189 -33t-67 -92z" />
    <glyph glyph-name="ae" unicode="&#xe6;" horiz-adv-x="1781" 
d="M1679 324q0 -152 -106 -247t-281 -95q-144 0 -242.5 69t-146.5 197q-44 -124 -160 -195t-292 -71q-154 0 -243 84t-89 233q0 145 88.5 227t243.5 82h413v92q0 113 -313 113q-318 0 -318 -92v-25h-83v25q0 151 106.5 236t294.5 85q147 0 245.5 -55.5t133.5 -155.5
q111 211 362 211q189 0 294.5 -118.5t105.5 -333.5v-174h-738q23 -106 104.5 -154.5t233.5 -48.5q147 0 225 29.5t78 81.5v12h84v-12zM203 307q0 -96 258 -96q401 0 401 192h-401q-258 0 -258 -96zM1292 811q-155 0 -247 -47t-99 -146h662q0 91 -90 142t-226 51z" />
    <glyph glyph-name="ccedilla" unicode="&#xe7;" horiz-adv-x="1118" 
d="M950 643q0 78 -97.5 123t-281.5 45q-216 0 -314.5 -71.5t-98.5 -227.5q0 -157 98 -228t315 -71q185 0 282 49.5t97 138.5v17h82v-17q0 -181 -118 -296.5t-318 -122.5v-33q67 -2 115.5 -19.5t73 -46t35.5 -59t11 -64.5q0 -108 -78.5 -161.5t-213.5 -53.5q-68 0 -127 13
v225q47 -8 129 -8q78 0 107.5 14t29.5 47q0 55 -129 55h-27v93q-213 15 -326.5 153.5t-113.5 374.5q0 248 126.5 389t362.5 141q211 0 336 -109t125 -290v-16h-82v16z" />
    <glyph glyph-name="egrave" unicode="&#xe8;" horiz-adv-x="1118" 
d="M82 512q0 248 126.5 389t362.5 141q216 0 336.5 -118.5t120.5 -333.5v-150h-864q20 -120 117.5 -173.5t289.5 -53.5q175 0 268 29.5t93 81.5v8h84v-8q0 -152 -122.5 -247t-322.5 -95q-236 0 -362.5 140.5t-126.5 389.5zM571 811q-369 0 -407 -168h788q0 54 -53 92.5
t-138 57t-190 18.5zM459 1536l139 -354h-66l-331 354h258z" />
    <glyph glyph-name="eacute" unicode="&#xe9;" horiz-adv-x="1118" 
d="M82 512q0 248 126.5 389t362.5 141q216 0 336.5 -118.5t120.5 -333.5v-150h-864q20 -120 117.5 -173.5t289.5 -53.5q175 0 268 29.5t93 81.5v8h84v-8q0 -152 -122.5 -247t-322.5 -95q-236 0 -362.5 140.5t-126.5 389.5zM571 811q-369 0 -407 -168h788q0 54 -53 92.5
t-138 57t-190 18.5zM596 1182h-66l80 354h258z" />
    <glyph glyph-name="ecircumflex" unicode="&#xea;" horiz-adv-x="1118" 
d="M82 512q0 248 126.5 389t362.5 141q216 0 336.5 -118.5t120.5 -333.5v-150h-864q20 -120 117.5 -173.5t289.5 -53.5q175 0 268 29.5t93 81.5v8h84v-8q0 -152 -122.5 -247t-322.5 -95q-236 0 -362.5 140.5t-126.5 389.5zM434 1182h-289l383 354h60l379 -354h-287l-123 262
zM571 811q-369 0 -407 -168h788q0 54 -53 92.5t-138 57t-190 18.5z" />
    <glyph glyph-name="edieresis" unicode="&#xeb;" horiz-adv-x="1118" 
d="M82 512q0 248 126.5 389t362.5 141q216 0 336.5 -118.5t120.5 -333.5v-150h-864q20 -120 117.5 -173.5t289.5 -53.5q175 0 268 29.5t93 81.5v8h84v-8q0 -152 -122.5 -247t-322.5 -95q-236 0 -362.5 140.5t-126.5 389.5zM571 811q-369 0 -407 -168h788q0 54 -53 92.5
t-138 57t-190 18.5zM938 1358q0 -70 -40.5 -110t-111.5 -40q-70 0 -109.5 39.5t-39.5 110.5q0 70 39.5 109.5t109.5 39.5q71 0 111.5 -39.5t40.5 -109.5zM473 1358q0 -70 -40 -110t-111 -40q-70 0 -110 40t-40 110t39.5 109.5t110.5 39.5t111 -39.5t40 -109.5z" />
    <glyph glyph-name="igrave" unicode="&#xec;" horiz-adv-x="432" 
d="M258 1024v-1024h-84v1024h84zM240 1182h-66l-250 354h258z" />
    <glyph glyph-name="iacute" unicode="&#xed;" horiz-adv-x="432" 
d="M258 1024v-1024h-84v1024h84zM178 1182l80 354h258l-272 -354h-66z" />
    <glyph glyph-name="icircumflex" unicode="&#xee;" horiz-adv-x="432" 
d="M135 1182h-268l321 354h60l317 -354h-266l-82 297zM174 1024h84v-1024h-84v1024z" />
    <glyph glyph-name="idieresis" unicode="&#xef;" horiz-adv-x="432" 
d="M258 1024v-1024h-84v1024h84zM51 1208q-76 0 -116.5 39.5t-40.5 110.5t40.5 110t116.5 39q75 0 116.5 -39t41.5 -110q0 -70 -43.5 -110t-114.5 -40zM383 1208q-76 0 -117 39.5t-41 110.5t41 110t117 39q75 0 116.5 -39t41.5 -110q0 -70 -43.5 -110t-114.5 -40z" />
    <glyph glyph-name="eth" unicode="&#xf0;" horiz-adv-x="1177" 
d="M1096 471q0 -229 -129 -359t-363 -130q-235 0 -362 129.5t-127 359.5q0 210 127 329.5t362 119.5q125 0 223 -35l-245 307l-252 -180l-49 202l180 129l-154 193h99l118 -147l207 147l49 -203l-137 -96l240 -301q130 -164 171.5 -257t41.5 -208zM1012 471
q0 131 -101 194.5t-307 63.5t-306.5 -63t-100.5 -195q0 -134 100.5 -196t306.5 -62q214 0 311 61.5t97 196.5z" />
    <glyph glyph-name="ntilde" unicode="&#xf1;" 
d="M248 788q80 256 381 256q207 0 313.5 -106.5t106.5 -312.5v-623h-82v623q0 94 -90 142t-263 48q-180 0 -273 -64.5t-93 -185.5v-563h-84v1024h84v-238zM719 1364q-45 0 -79 -21t-57.5 -50.5t-49.5 -59.5t-70.5 -51t-104.5 -21q-116 0 -157 83t-6 261l6 31h223l-6 -31
q-14 -75 7 -113t64 -38q45 0 79 21t57.5 50.5t49.5 59t70.5 50.5t104.5 21q118 0 164 -86.5t0 -257.5l-8 -30h-222l7 30q14 75 -7.5 113.5t-64.5 38.5z" />
    <glyph glyph-name="ograve" unicode="&#xf2;" horiz-adv-x="1140" 
d="M571 1042q235 0 361.5 -141t126.5 -389q0 -249 -126.5 -389.5t-361.5 -140.5q-236 0 -362.5 140.5t-126.5 389.5q0 248 126.5 389t362.5 141zM571 213q214 0 313 71.5t99 227.5q0 155 -99 227t-313 72q-216 0 -314.5 -71.5t-98.5 -227.5q0 -157 98 -228t315 -71z
M608 1182h-65l-332 354h258z" />
    <glyph glyph-name="oacute" unicode="&#xf3;" horiz-adv-x="1140" 
d="M571 1042q235 0 361.5 -141t126.5 -389q0 -249 -126.5 -389.5t-361.5 -140.5q-236 0 -362.5 140.5t-126.5 389.5q0 248 126.5 389t362.5 141zM571 213q214 0 313 71.5t99 227.5q0 155 -99 227t-313 72q-216 0 -314.5 -71.5t-98.5 -227.5q0 -157 98 -228t315 -71z
M543 1182l80 354h258l-273 -354h-65z" />
    <glyph glyph-name="ocircumflex" unicode="&#xf4;" horiz-adv-x="1140" 
d="M82 512q0 248 126.5 389t362.5 141q235 0 361.5 -141t126.5 -389q0 -249 -126.5 -389.5t-361.5 -140.5q-236 0 -362.5 140.5t-126.5 389.5zM158 512q0 -157 98 -228t315 -71q214 0 313 71.5t99 227.5q0 155 -99 227t-313 72q-216 0 -314.5 -71.5t-98.5 -227.5zM449 1182
h-289l383 354h59l379 -354h-287l-123 262z" />
    <glyph glyph-name="otilde" unicode="&#xf5;" horiz-adv-x="1140" 
d="M571 1042q235 0 361.5 -141t126.5 -389q0 -249 -126.5 -389.5t-361.5 -140.5q-236 0 -362.5 140.5t-126.5 389.5q0 248 126.5 389t362.5 141zM571 213q214 0 313 71.5t99 227.5q0 155 -99 227t-313 72q-216 0 -314.5 -71.5t-98.5 -227.5q0 -157 98 -228t315 -71z
M322 1161q-116 0 -157.5 83.5t-6.5 260.5l6 31h223l-6 -31q-14 -75 7.5 -113t64.5 -38q45 0 79 21t57.5 50.5t49 59t70 50.5t104.5 21q118 0 164 -86.5t0 -257.5l-8 -30h-221l6 30q14 75 -7.5 113.5t-64.5 38.5q-39 0 -69.5 -15t-49 -37.5t-41.5 -49t-46 -49t-63 -37.5
t-91 -15z" />
    <glyph glyph-name="odieresis" unicode="&#xf6;" horiz-adv-x="1140" 
d="M571 1042q235 0 361.5 -141t126.5 -389q0 -249 -126.5 -389.5t-361.5 -140.5q-236 0 -362.5 140.5t-126.5 389.5q0 248 126.5 389t362.5 141zM571 213q214 0 313 71.5t99 227.5q0 155 -99 227t-313 72q-216 0 -314.5 -71.5t-98.5 -227.5q0 -157 98 -228t315 -71z
M336 1208q-70 0 -110 40t-40 110t39.5 109.5t110.5 39.5t111 -39.5t40 -109.5t-40 -110t-111 -40zM801 1208q-71 0 -110.5 40t-39.5 110t39.5 109.5t110.5 39.5t111 -39.5t40 -109.5t-40 -110t-111 -40z" />
    <glyph glyph-name="divide" unicode="&#xf7;" horiz-adv-x="1173" 
d="M1036 870v-237h-899v237h899zM436 346q0 71 38.5 110.5t111.5 39.5q72 0 111.5 -39.5t39.5 -110.5t-39.5 -110t-111.5 -39q-73 0 -111.5 39t-38.5 110zM436 1155q0 71 38.5 110.5t111.5 39.5q72 0 111.5 -39.5t39.5 -110.5t-39.5 -110t-111.5 -39q-73 0 -111.5 39
t-38.5 110z" />
    <glyph glyph-name="oslash" unicode="&#xf8;" horiz-adv-x="1212" 
d="M106 512q0 248 129.5 389t372.5 141q217 0 340 -114l90 96h92l-135 -145q113 -131 113 -367q0 -249 -129 -389.5t-371 -140.5q-218 0 -344 114l-90 -96h-92l135 145q-111 132 -111 367zM1024 512q0 180 -139 250l-490 -524q89 -25 213 -25q216 0 316 71.5t100 227.5z
M190 512q0 -181 138 -250l489 524q-86 25 -209 25q-218 0 -318 -72t-100 -227z" />
    <glyph glyph-name="ugrave" unicode="&#xf9;" 
d="M956 238q-80 -256 -381 -256q-207 0 -313 106.5t-106 312.5v623h82v-623q0 -94 89.5 -142t262.5 -48q180 0 273 64.5t93 185.5v563h84v-1024h-84v238zM496 1536l139 -354h-66l-331 354h258z" />
    <glyph glyph-name="uacute" unicode="&#xfa;" 
d="M956 238q-80 -256 -381 -256q-207 0 -313 106.5t-106 312.5v623h82v-623q0 -94 89.5 -142t262.5 -48q180 0 273 64.5t93 185.5v563h84v-1024h-84v238zM616 1182h-65l80 354h258z" />
    <glyph glyph-name="ucircumflex" unicode="&#xfb;" 
d="M956 238q-80 -256 -381 -256q-207 0 -313 106.5t-106 312.5v623h82v-623q0 -94 89.5 -142t262.5 -48q180 0 273 64.5t93 185.5v563h84v-1024h-84v238zM475 1182h-289l383 354h60l379 -354h-287l-123 262z" />
    <glyph glyph-name="udieresis" unicode="&#xfc;" 
d="M956 238q-80 -256 -381 -256q-207 0 -313 106.5t-106 312.5v623h82v-623q0 -94 89.5 -142t262.5 -48q180 0 273 64.5t93 185.5v563h84v-1024h-84v238zM981 1358q0 -70 -40.5 -110t-111.5 -40q-70 0 -109.5 39.5t-39.5 110.5q0 70 39 109.5t110 39.5t111.5 -39.5
t40.5 -109.5zM516 1358q0 -70 -40 -110t-111 -40t-110.5 40t-39.5 110t39.5 109.5t110.5 39.5t111 -39.5t40 -109.5z" />
    <glyph glyph-name="yacute" unicode="&#xfd;" horiz-adv-x="1044" 
d="M1024 1024l-453 -1133q-69 -171 -122.5 -259t-109.5 -123t-138 -35h-47v229h47q117 0 185.5 40t107.5 148l41 109l-494 1024h88l285 -588l69 -162h6l56 162l233 588h246zM481 1182l80 354h258l-272 -354h-66z" />
    <glyph glyph-name="thorn" unicode="&#xfe;" horiz-adv-x="1212" 
d="M248 782q79 260 411 260q227 0 349 -140.5t122 -389.5q0 -248 -122 -389t-349 -141q-332 0 -411 260v-754h-84v2048h84v-754zM645 811q-195 0 -296 -64t-101 -184v-102q0 -120 101 -184t296 -64q211 0 306.5 70.5t95.5 228.5q0 159 -95 229t-307 70z" />
    <glyph glyph-name="ydieresis" unicode="&#xff;" horiz-adv-x="1044" 
d="M1024 1024l-453 -1133q-69 -171 -122.5 -259t-109.5 -123t-138 -35h-47v229h47q117 0 185.5 40t107.5 148l41 109l-494 1024h88l285 -588l69 -162h6l56 162l233 588h246zM299 1208q-70 0 -109.5 39.5t-39.5 110.5q0 70 39 109.5t110 39.5t111.5 -39.5t40.5 -109.5
t-40.5 -110t-111.5 -40zM764 1208q-70 0 -110 40t-40 110t39.5 109.5t110.5 39.5t111 -39.5t40 -109.5t-40 -110t-111 -40z" />
    <glyph glyph-name="Amacron" unicode="&#x100;" horiz-adv-x="1300" 
d="M1079 254h-860l-72 -254h-92l406 1434h368l416 -1434h-92zM287 492h725l-156 532l-49 188h-322l-49 -188zM1104 1939v-237h-909v237h909z" />
    <glyph glyph-name="amacron" unicode="&#x101;" horiz-adv-x="1138" 
d="M567 1042q194 0 305 -85.5t111 -235.5v-721h-84v248q-46 -123 -162.5 -194.5t-290.5 -71.5q-153 0 -240 84t-87 233q0 146 87 227.5t240 81.5h453v113q0 92 -332 92q-334 0 -334 -92v-25h-83v25q0 151 111 236t306 85zM963 1473v-230h-822v230h822zM203 307
q0 -47 66 -71.5t188 -24.5q442 0 442 192h-442q-254 0 -254 -96z" />
    <glyph glyph-name="Abreve" unicode="&#x102;" horiz-adv-x="1300" 
d="M1079 254h-860l-72 -254h-92l406 1434h368l416 -1434h-92zM287 492h725l-156 532l-49 188h-322l-49 -188zM240 2015q0 -97 105 -148.5t304 -51.5q203 0 306.5 51.5t103.5 148.5v31h86v-31q0 -208 -132 -323t-364 -115q-233 0 -364 115t-131 323v31h86v-31z" />
    <glyph glyph-name="abreve" unicode="&#x103;" horiz-adv-x="1138" 
d="M567 1042q194 0 305 -85.5t111 -235.5v-721h-84v248q-46 -123 -162.5 -194.5t-290.5 -71.5q-153 0 -240 84t-87 233q0 146 87 227.5t240 81.5h453v113q0 92 -332 92q-334 0 -334 -92v-25h-83v25q0 151 111 236t306 85zM225 1513q0 -66 83.5 -101.5t242.5 -35.5
q328 0 328 137v23h84v-23q0 -166 -110.5 -259t-301.5 -93q-190 0 -300 93t-110 259v23h84v-23zM203 307q0 -47 66 -71.5t188 -24.5q442 0 442 192h-442q-254 0 -254 -96z" />
    <glyph glyph-name="Aogonek" unicode="&#x104;" horiz-adv-x="1298" 
d="M950 -252q0 107 42.5 182.5t144.5 118.5l-60 205h-860l-72 -254h-92l406 1434h368l416 -1434q-168 -37 -168 -150q0 -98 129 -98q60 0 133 12v-235q-93 -10 -139 -10q-122 0 -185 65t-63 164zM285 492h725l-156 532l-49 188h-322l-49 -188z" />
    <glyph glyph-name="aogonek" unicode="&#x105;" horiz-adv-x="1138" 
d="M567 1042q194 0 305 -85.5t111 -235.5v-721q-107 -31 -145.5 -59.5t-38.5 -77.5q0 -86 143 -86q70 0 125 10v-225q-60 -13 -121 -13q-124 0 -199 63.5t-75 170.5t56 170.5t171 101.5v193q-46 -123 -162.5 -194.5t-290.5 -71.5q-153 0 -240 84t-87 233q0 146 87 227.5
t240 81.5h453v113q0 92 -332 92q-334 0 -334 -92v-25h-83v25q0 151 111 236t306 85zM203 307q0 -47 66 -71.5t188 -24.5q442 0 442 192h-442q-254 0 -254 -96z" />
    <glyph glyph-name="Cacute" unicode="&#x106;" horiz-adv-x="1431" 
d="M1319 854h-86v31q0 158 -143 247t-359 89q-258 0 -398 -133.5t-140 -370.5t140 -370.5t398 -133.5q140 0 252.5 41t181 123.5t68.5 193.5v37h88v-37q0 -186 -78.5 -322.5t-210.5 -205t-301 -68.5q-294 0 -459.5 196t-165.5 546t165.5 545.5t459.5 195.5q124 0 231 -38.5
t186.5 -110t125 -181t45.5 -243.5v-31zM676 1597l53 449h299l-276 -449h-76z" />
    <glyph glyph-name="cacute" unicode="&#x107;" horiz-adv-x="1118" 
d="M571 811q-216 0 -314.5 -71.5t-98.5 -227.5q0 -157 98 -228t315 -71q185 0 282 49.5t97 138.5v17h82v-17q0 -188 -125.5 -303.5t-335.5 -115.5q-236 0 -362.5 140.5t-126.5 389.5q0 248 126.5 389t362.5 141q211 0 336 -109t125 -290v-16h-82v16q0 78 -97.5 123
t-281.5 45zM545 1182l80 354h258l-273 -354h-65z" />
    <glyph glyph-name="Ccircumflex" unicode="&#x108;" horiz-adv-x="1431" 
d="M731 1458q124 0 231 -38.5t186.5 -110t125 -181t45.5 -243.5v-31h-86v31q0 158 -143 247t-359 89q-258 0 -398 -133.5t-140 -370.5t140 -370.5t398 -133.5q140 0 252.5 41t181 123.5t68.5 193.5v37h88v-37q0 -186 -78.5 -322.5t-210.5 -205t-301 -68.5q-294 0 -459.5 196
t-165.5 546t165.5 545.5t459.5 195.5zM530 1597h-311l467 449h68l467 -449h-310l-190 367z" />
    <glyph glyph-name="ccircumflex" unicode="&#x109;" horiz-adv-x="1118" 
d="M950 643q0 78 -97.5 123t-281.5 45q-216 0 -314.5 -71.5t-98.5 -227.5q0 -157 98 -228t315 -71q185 0 282 49.5t97 138.5v17h82v-17q0 -188 -125.5 -303.5t-335.5 -115.5q-236 0 -362.5 140.5t-126.5 389.5q0 248 126.5 389t362.5 141q211 0 336 -109t125 -290v-16h-82
v16zM436 1182h-289l383 354h60l379 -354h-287l-123 262z" />
    <glyph glyph-name="Cdotaccent" unicode="&#x10a;" horiz-adv-x="1431" 
d="M1319 854h-86v31q0 158 -143 247t-359 89q-258 0 -398 -133.5t-140 -370.5t140 -370.5t398 -133.5q140 0 252.5 41t181 123.5t68.5 193.5v37h88v-37q0 -186 -78.5 -322.5t-210.5 -205t-301 -68.5q-294 0 -459.5 196t-165.5 546t165.5 545.5t459.5 195.5q124 0 231 -38.5
t186.5 -110t125 -181t45.5 -243.5v-31zM713 1663q-75 0 -116.5 41.5t-41.5 116.5t41.5 116t116.5 41q74 0 116.5 -41.5t42.5 -115.5q0 -75 -42.5 -116.5t-116.5 -41.5z" />
    <glyph glyph-name="cdotaccent" unicode="&#x10b;" horiz-adv-x="1118" 
d="M571 811q-216 0 -314.5 -71.5t-98.5 -227.5q0 -157 98 -228t315 -71q185 0 282 49.5t97 138.5v17h82v-17q0 -188 -125.5 -303.5t-335.5 -115.5q-236 0 -362.5 140.5t-126.5 389.5q0 248 126.5 389t362.5 141q211 0 336 -109t125 -290v-16h-82v16q0 78 -97.5 123
t-281.5 45zM557 1208q-76 0 -117 39.5t-41 110.5t41 110t117 39q75 0 116.5 -39t41.5 -110q0 -70 -43.5 -110t-114.5 -40z" />
    <glyph glyph-name="Ccaron" unicode="&#x10c;" horiz-adv-x="1431" 
d="M731 1458q124 0 231 -38.5t186.5 -110t125 -181t45.5 -243.5v-31h-86v31q0 158 -143 247t-359 89q-258 0 -398 -133.5t-140 -370.5t140 -370.5t398 -133.5q140 0 252.5 41t181 123.5t68.5 193.5v37h88v-37q0 -186 -78.5 -322.5t-210.5 -205t-301 -68.5q-294 0 -459.5 196
t-165.5 546t165.5 545.5t459.5 195.5zM686 1597l-467 449h311l191 -367l190 367h310l-467 -449h-68z" />
    <glyph glyph-name="ccaron" unicode="&#x10d;" horiz-adv-x="1118" 
d="M950 643q0 78 -97.5 123t-281.5 45q-216 0 -314.5 -71.5t-98.5 -227.5q0 -157 98 -228t315 -71q185 0 282 49.5t97 138.5v17h82v-17q0 -188 -125.5 -303.5t-335.5 -115.5q-236 0 -362.5 140.5t-126.5 389.5q0 248 126.5 389t362.5 141q211 0 336 -109t125 -290v-16h-82
v16zM680 1536h289l-383 -354h-60l-379 354h287l123 -262z" />
    <glyph glyph-name="Dcaron" unicode="&#x10e;" horiz-adv-x="1404" 
d="M1298 717q0 -338 -165 -527.5t-459 -189.5h-510v1434h510q294 0 459 -189.5t165 -527.5zM1212 717q0 225 -140 352t-398 127h-424v-958h424q259 0 398.5 126t139.5 353zM705 1597l-467 449h311l190 -367l191 367h309l-467 -449h-67z" />
    <glyph glyph-name="dcaron" unicode="&#x10f;" horiz-adv-x="1415" 
d="M965 242q-79 -260 -412 -260q-227 0 -349 140.5t-122 389.5q0 248 122 389t349 141q333 0 412 -260v754h84v-1536h-84v242zM567 213q195 0 296.5 64.5t101.5 183.5v102q0 119 -101.5 183.5t-296.5 64.5q-211 0 -306 -70.5t-95 -228.5q0 -159 94.5 -229t306.5 -70z
M1456 1432q0 -70 -49 -121l-121 -129h-74l-36 239q-11 66 28 109t109 43q67 0 105 -37.5t38 -103.5z" />
    <glyph glyph-name="Dcroat" unicode="&#x110;" horiz-adv-x="1404" 
d="M1298 717q0 -338 -165 -527.5t-459 -189.5h-510v612h-119v238h119v584h510q294 0 459 -189.5t165 -527.5zM1212 717q0 225 -140 352t-398 127h-424v-346h500v-238h-500v-374h424q259 0 398.5 126t139.5 353z" />
    <glyph glyph-name="dcroat" unicode="&#x111;" horiz-adv-x="1212" 
d="M965 242q-79 -260 -412 -260q-227 0 -349 140.5t-122 389.5q0 248 122 389t349 141q333 0 412 -260v373h-390v229h390v152h84v-152h133v-229h-133v-1155h-84v242zM567 213q195 0 296.5 64.5t101.5 183.5v102q0 119 -101.5 183.5t-296.5 64.5q-211 0 -306 -70.5
t-95 -228.5q0 -159 94.5 -229t306.5 -70z" />
    <glyph glyph-name="Emacron" unicode="&#x112;" horiz-adv-x="1175" 
d="M164 0v1434h899v-238h-813v-348h780v-238h-780v-372h813v-238h-899zM1067 1702h-909v237h909v-237z" />
    <glyph glyph-name="emacron" unicode="&#x113;" horiz-adv-x="1118" 
d="M82 512q0 248 126.5 389t362.5 141q216 0 336.5 -118.5t120.5 -333.5v-150h-864q20 -120 117.5 -173.5t289.5 -53.5q175 0 268 29.5t93 81.5v8h84v-8q0 -152 -122.5 -247t-322.5 -95q-236 0 -362.5 140.5t-126.5 389.5zM967 1473v-230h-822v230h822zM571 811
q-369 0 -407 -168h788q0 54 -53 92.5t-138 57t-190 18.5z" />
    <glyph glyph-name="Ebreve" unicode="&#x114;" horiz-adv-x="1175" 
d="M164 0v1434h899v-238h-813v-348h780v-238h-780v-372h813v-238h-899zM612 1815q203 0 306.5 51.5t103.5 148.5v31h86v-31q0 -208 -132 -323t-364 -115q-233 0 -364 115t-131 323v31h86v-31q0 -97 105 -148.5t304 -51.5z" />
    <glyph glyph-name="ebreve" unicode="&#x115;" horiz-adv-x="1118" 
d="M82 512q0 248 126.5 389t362.5 141q216 0 336.5 -118.5t120.5 -333.5v-150h-864q20 -120 117.5 -173.5t289.5 -53.5q175 0 268 29.5t93 81.5v8h84v-8q0 -152 -122.5 -247t-322.5 -95q-236 0 -362.5 140.5t-126.5 389.5zM229 1513q0 -66 83.5 -101.5t242.5 -35.5
q328 0 328 137v23h84v-23q0 -166 -110.5 -259t-301.5 -93q-190 0 -300 93t-110 259v23h84v-23zM571 811q-369 0 -407 -168h788q0 54 -53 92.5t-138 57t-190 18.5z" />
    <glyph glyph-name="Edotaccent" unicode="&#x116;" horiz-adv-x="1175" 
d="M164 0v1434h899v-238h-813v-348h780v-238h-780v-372h813v-238h-899zM625 1663q-75 0 -116.5 41.5t-41.5 116.5t41.5 116t116.5 41q74 0 116.5 -41.5t42.5 -115.5q0 -75 -42.5 -116.5t-116.5 -41.5z" />
    <glyph glyph-name="edotaccent" unicode="&#x117;" horiz-adv-x="1118" 
d="M82 512q0 248 126.5 389t362.5 141q216 0 336.5 -118.5t120.5 -333.5v-150h-864q20 -120 117.5 -173.5t289.5 -53.5q175 0 268 29.5t93 81.5v8h84v-8q0 -152 -122.5 -247t-322.5 -95q-236 0 -362.5 140.5t-126.5 389.5zM571 811q-369 0 -407 -168h788q0 54 -53 92.5
t-138 57t-190 18.5zM713 1358q0 -70 -43.5 -110t-114.5 -40q-76 0 -117 39.5t-41 110.5t41 110t117 39q75 0 116.5 -39t41.5 -110z" />
    <glyph glyph-name="Eogonek" unicode="&#x118;" horiz-adv-x="1175" 
d="M770 -252q0 170 102 252h-708v1434h899v-238h-813v-348h780v-238h-780v-372h813v-238q-168 -37 -168 -150q0 -98 129 -98q60 0 133 12v-235q-93 -10 -139 -10q-122 0 -185 65t-63 164z" />
    <glyph glyph-name="eogonek" unicode="&#x119;" horiz-adv-x="1118" 
d="M82 512q0 248 126.5 389t362.5 141q216 0 336.5 -118.5t120.5 -333.5v-150h-864q20 -120 117.5 -173.5t289.5 -53.5q175 0 268 29.5t93 81.5v8h84v-8q0 -118 -77 -204t-212 -120q-105 -31 -143.5 -59.5t-38.5 -77.5q0 -86 143 -86q70 0 125 10v-225q-60 -13 -121 -13
q-124 0 -199 63.5t-75 170.5q0 132 88 201q-205 20 -314.5 158.5t-109.5 369.5zM571 811q-369 0 -407 -168h788q0 54 -53 92.5t-138 57t-190 18.5z" />
    <glyph glyph-name="Ecaron" unicode="&#x11a;" horiz-adv-x="1185" 
d="M1063 0h-899v1434h899v-238h-813v-348h780v-238h-780v-372h813v-238zM594 1597l-467 449h311l191 -367l190 367h309l-466 -449h-68z" />
    <glyph glyph-name="ecaron" unicode="&#x11b;" horiz-adv-x="1118" 
d="M82 512q0 248 126.5 389t362.5 141q216 0 336.5 -118.5t120.5 -333.5v-150h-864q20 -120 117.5 -173.5t289.5 -53.5q175 0 268 29.5t93 81.5v8h84v-8q0 -152 -122.5 -247t-322.5 -95q-236 0 -362.5 140.5t-126.5 389.5zM678 1536h289l-383 -354h-60l-379 354h287
l123 -262zM571 811q-369 0 -407 -168h788q0 54 -53 92.5t-138 57t-190 18.5z" />
    <glyph glyph-name="Gcircumflex" unicode="&#x11c;" horiz-adv-x="1458" 
d="M731 213q143 0 257 21.5t183.5 66t69.5 105.5v18h-520v238h606v-662h-86v240q-56 -128 -191 -196.5t-319 -68.5q-294 0 -459.5 196t-165.5 546t165.5 545.5t459.5 195.5q123 0 230 -38.5t186 -110t124.5 -181t45.5 -243.5v-31h-86v31q0 158 -142 247t-358 89
q-258 0 -398 -133.5t-140 -370.5t140 -370.5t398 -133.5zM528 1597h-311l467 449h68l467 -449h-310l-190 367z" />
    <glyph glyph-name="gcircumflex" unicode="&#x11d;" horiz-adv-x="1169" 
d="M938 795q25 229 158 229h28v-229h-28q-123 0 -123 -164q0 -181 -117.5 -282t-320.5 -101h-201q-46 0 -74.5 -18.5t-28.5 -53.5q0 -34 28.5 -52t74.5 -18h330q197 0 306 -82t109 -231q0 -151 -142.5 -235t-393.5 -84q-248 0 -375 81.5t-127 237.5q0 100 53 160.5t166 81.5
q-98 36 -98 135q0 45 27.5 83t78.5 56q-174 82 -174 322q0 198 113 304.5t328 106.5q330 0 403 -247zM535 813q-178 0 -272.5 -46t-94.5 -136q0 -89 94.5 -135.5t272.5 -46.5q180 0 272 46.5t92 135.5q0 182 -364 182zM1006 -207q0 96 -342 96h-254h-4q-291 0 -291 -96
q0 -54 100 -80t328 -26q247 0 355 26t108 80zM412 1182h-289l383 354h59l379 -354h-287l-122 262z" />
    <glyph glyph-name="Gbreve" unicode="&#x11e;" horiz-adv-x="1458" 
d="M731 213q143 0 257 21.5t183.5 66t69.5 105.5v18h-520v238h606v-662h-86v240q-56 -128 -191 -196.5t-319 -68.5q-294 0 -459.5 196t-165.5 546t165.5 545.5t459.5 195.5q123 0 230 -38.5t186 -110t124.5 -181t45.5 -243.5v-31h-86v31q0 158 -142 247t-358 89
q-258 0 -398 -133.5t-140 -370.5t140 -370.5t398 -133.5zM311 2015q0 -97 105.5 -148.5t304.5 -51.5q202 0 305.5 51t103.5 149v31h87v-31q0 -208 -132 -323t-364 -115q-233 0 -364.5 115t-131.5 323v31h86v-31z" />
    <glyph glyph-name="gbreve" unicode="&#x11f;" horiz-adv-x="1169" 
d="M938 795q25 229 158 229h28v-229h-28q-123 0 -123 -164q0 -181 -117.5 -282t-320.5 -101h-201q-46 0 -74.5 -18.5t-28.5 -53.5q0 -34 28.5 -52t74.5 -18h330q197 0 306 -82t109 -231q0 -151 -142.5 -235t-393.5 -84q-248 0 -375 81.5t-127 237.5q0 100 53 160.5t166 81.5
q-98 36 -98 135q0 45 27.5 83t78.5 56q-174 82 -174 322q0 198 113 304.5t328 106.5q330 0 403 -247zM535 813q-178 0 -272.5 -46t-94.5 -136q0 -89 94.5 -135.5t272.5 -46.5q180 0 272 46.5t92 135.5q0 182 -364 182zM203 1513q0 -66 83 -101.5t242 -35.5q328 0 328 137v23
h84v-23q0 -166 -110.5 -259t-301.5 -93q-190 0 -299.5 93t-109.5 259v23h84v-23zM1006 -207q0 96 -342 96h-254h-4q-291 0 -291 -96q0 -54 100 -80t328 -26q247 0 355 26t108 80z" />
    <glyph glyph-name="Gdotaccent" unicode="&#x120;" horiz-adv-x="1458" 
d="M731 213q143 0 257 21.5t183.5 66t69.5 105.5v18h-520v238h606v-662h-86v240q-56 -128 -191 -196.5t-319 -68.5q-294 0 -459.5 196t-165.5 546t165.5 545.5t459.5 195.5q123 0 230 -38.5t186 -110t124.5 -181t45.5 -243.5v-31h-86v31q0 158 -142 247t-358 89
q-258 0 -398 -133.5t-140 -370.5t140 -370.5t398 -133.5zM887 1821q0 -74 -43 -116t-117 -42q-75 0 -116.5 41.5t-41.5 116.5t41.5 116t116.5 41q74 0 117 -41.5t43 -115.5z" />
    <glyph glyph-name="gdotaccent" unicode="&#x121;" horiz-adv-x="1169" 
d="M938 795q25 229 158 229h28v-229h-28q-123 0 -123 -164q0 -181 -117.5 -282t-320.5 -101h-201q-46 0 -74.5 -18.5t-28.5 -53.5q0 -34 28.5 -52t74.5 -18h330q197 0 306 -82t109 -231q0 -151 -142.5 -235t-393.5 -84q-248 0 -375 81.5t-127 237.5q0 100 53 160.5t166 81.5
q-98 36 -98 135q0 45 27.5 83t78.5 56q-174 82 -174 322q0 198 113 304.5t328 106.5q330 0 403 -247zM535 813q-178 0 -272.5 -46t-94.5 -136q0 -89 94.5 -135.5t272.5 -46.5q180 0 272 46.5t92 135.5q0 182 -364 182zM1006 -207q0 96 -342 96h-254h-4q-291 0 -291 -96
q0 -54 100 -80t328 -26q247 0 355 26t108 80zM692 1358q0 -70 -43 -110t-114 -40q-76 0 -117 39.5t-41 110.5t41 110t117 39q75 0 116 -39t41 -110z" />
    <glyph glyph-name="uni0122" unicode="&#x122;" horiz-adv-x="1458" 
d="M731 213q143 0 257 21.5t183.5 66t69.5 105.5v18h-520v238h606v-662h-86v240q-56 -128 -191 -196.5t-319 -68.5q-294 0 -459.5 196t-165.5 546t165.5 545.5t459.5 195.5q123 0 230 -38.5t186 -110t124.5 -181t45.5 -243.5v-31h-86v31q0 158 -142 247t-358 89
q-258 0 -398 -133.5t-140 -370.5t140 -370.5t398 -133.5zM854 -264q0 -70 -49 -121l-121 -129h-74l-37 240q-10 66 28.5 108.5t109.5 42.5q67 0 105 -37.5t38 -103.5z" />
    <glyph glyph-name="uni0123" unicode="&#x123;" horiz-adv-x="1169" 
d="M938 795q25 229 158 229h28v-229h-28q-123 0 -123 -164q0 -181 -117.5 -282t-320.5 -101h-201q-46 0 -74.5 -18.5t-28.5 -53.5q0 -34 28.5 -52t74.5 -18h330q197 0 306 -82t109 -231q0 -151 -142.5 -235t-393.5 -84q-248 0 -375 81.5t-127 237.5q0 100 53 160.5t166 81.5
q-98 36 -98 135q0 45 27.5 83t78.5 56q-174 82 -174 322q0 198 113 304.5t328 106.5q330 0 403 -247zM535 813q-178 0 -272.5 -46t-94.5 -136q0 -89 94.5 -135.5t272.5 -46.5q180 0 272 46.5t92 135.5q0 182 -364 182zM1006 -207q0 96 -342 96h-254h-4q-291 0 -291 -96
q0 -54 100 -80t328 -26q247 0 355 26t108 80zM389 1348q0 69 49 120l121 129h74l37 -239q11 -66 -28.5 -109t-109.5 -43q-67 0 -105 38t-38 104z" />
    <glyph glyph-name="Hcircumflex" unicode="&#x124;" horiz-adv-x="1413" 
d="M1249 1434v-1434h-86v612h-913v-612h-86v1434h86v-584h913v584h86zM524 1597h-311l467 449h68l466 -449h-309l-190 367z" />
    <glyph glyph-name="hcircumflex" unicode="&#x125;" 
d="M248 786q80 256 381 256q207 0 313.5 -106.5t106.5 -312.5v-623h-82v623q0 94 -90 142t-263 48q-180 0 -273 -64.5t-93 -185.5v-563h-84v1536h84v-750zM485 1653h-288l383 354h59l379 -354h-287l-123 262z" />
    <glyph glyph-name="Hbar" unicode="&#x126;" horiz-adv-x="1413" 
d="M1249 1026v-1026h-86v612h-913v-612h-86v1026h-144v238h144v170h86v-170h913v170h86v-170h144v-238h-144zM1163 850v176h-913v-176h913z" />
    <glyph glyph-name="hbar" unicode="&#x127;" 
d="M248 786q80 256 381 256q207 0 313.5 -106.5t106.5 -312.5v-623h-82v623q0 94 -90 142t-263 48q-180 0 -273 -64.5t-93 -185.5v-563h-84v1178h-123v206h123v152h84v-152h448v-206h-448v-392z" />
    <glyph glyph-name="Itilde" unicode="&#x128;" horiz-adv-x="634" 
d="M164 0v238h110v958h-110v238h307v-238h-111v-958h111v-238h-307zM551 2066q132 0 182.5 -107t-0.5 -319l-10 -43h-229l10 43q22 91 -6 140t-84 49q-32 0 -59.5 -26t-51 -63t-50 -74t-70 -63t-99.5 -26q-132 0 -182.5 107t0.5 319l10 43h229l-10 -43q-22 -91 6 -139.5
t84 -48.5q32 0 59.5 26t51 62.5t50 73.5t70 63t99.5 26z" />
    <glyph glyph-name="itilde" unicode="&#x129;" horiz-adv-x="432" 
d="M258 1024v-1024h-84v1024h84zM8 1161q-116 0 -157.5 83.5t-6.5 260.5l6 31h224l-6 -31q-14 -75 7 -113t64 -38q24 0 46 21t42 50.5t44 59t62 50.5t85 21q118 0 164 -86.5t0 -257.5l-9 -30h-221l6 30q14 75 -7 113.5t-64 38.5q-24 0 -46 -21t-42 -50.5t-44 -59.5t-62 -51
t-85 -21z" />
    <glyph glyph-name="Imacron" unicode="&#x12a;" horiz-adv-x="634" 
d="M164 0v238h110v958h-110v238h307v-238h-111v-958h111v-238h-307zM772 1702h-909v237h909v-237z" />
    <glyph glyph-name="imacron" unicode="&#x12b;" horiz-adv-x="432" 
d="M258 1024v-1024h-84v1024h84zM504 1243h-576v230h576v-230z" />
    <glyph glyph-name="Ibreve" unicode="&#x12c;" horiz-adv-x="634" 
d="M164 -2v238h110v958h-110v238h307v-238h-111v-958h111v-238h-307zM317 1815q162 0 245 51.5t83 148.5v31h86v-31q0 -208 -110.5 -323t-303.5 -115q-194 0 -303.5 115t-109.5 323v31h86v-31q0 -97 84 -148.5t243 -51.5z" />
    <glyph glyph-name="ibreve" unicode="&#x12d;" horiz-adv-x="432" 
d="M258 1024v-1024h-84v1024h84zM215 1376q246 0 246 137v23h84v-23q0 -166 -88.5 -259t-241.5 -93q-152 0 -240 93t-88 259v23h84v-23q0 -66 62.5 -101.5t181.5 -35.5z" />
    <glyph glyph-name="Iogonek" unicode="&#x12e;" horiz-adv-x="634" 
d="M178 -252q0 169 103 252h-117v238h110v958h-110v238h307v-238h-111v-958h111v-238q-168 -37 -168 -150q0 -98 129 -98q59 0 133 12v-235q-93 -10 -139 -10q-122 0 -185 65t-63 164z" />
    <glyph glyph-name="iogonek" unicode="&#x12f;" horiz-adv-x="432" 
d="M-53 -219q0 107 56 170.5t171 101.5v971h84v-1026q-107 -31 -145.5 -59.5t-38.5 -77.5q0 -86 143 -86q70 0 125 10v-225q-60 -13 -121 -13q-124 0 -199 63.5t-75 170.5zM373 1358q0 -70 -43.5 -110t-114.5 -40q-76 0 -117 39.5t-41 110.5t41 110t117 39q75 0 116.5 -39
t41.5 -110z" />
    <glyph glyph-name="Idotaccent" unicode="&#x130;" horiz-adv-x="634" 
d="M164 0v238h110v958h-110v238h307v-238h-111v-958h111v-238h-307zM317 1663q-75 0 -116 41.5t-41 116.5t41 116t116 41q74 0 117 -41.5t43 -115.5t-43 -116t-117 -42z" />
    <glyph glyph-name="dotlessi" unicode="&#x131;" horiz-adv-x="411" 
d="M248 1024v-1024h-84v1024h84z" />
    <glyph glyph-name="IJ" unicode="&#x132;" horiz-adv-x="1370" 
d="M154 610v238h94v348h-94v238h272v-238h-92v-348h92v-238h-272zM836 1434h378v-963q0 -246 -111.5 -371t-371.5 -125t-371.5 125t-111.5 371v53h86v-53q0 -64 15 -105.5t56.5 -75.5t121.5 -49.5t204 -15.5q125 0 205 15.5t121.5 49.5t56 75.5t14.5 105.5v725h-292v238z
" />
    <glyph glyph-name="ij" unicode="&#x133;" horiz-adv-x="925" 
d="M258 1024v-1024h-84v1024h84zM174 -152h82q0 -145 211 -145q103 0 157 40t54 116v1165h82v-1186q0 -171 -77 -267.5t-216 -96.5q-138 0 -215.5 101t-77.5 273zM215 1208q-76 0 -117 39.5t-41 110.5t41 110t117 39q75 0 116.5 -39t41.5 -110q0 -70 -43.5 -110t-114.5 -40z
M711 1208q-76 0 -117 39.5t-41 110.5t41 110t117 39q75 0 116 -39t41 -110q0 -70 -43 -110t-114 -40z" />
    <glyph glyph-name="Jcircumflex" unicode="&#x134;" horiz-adv-x="1228" 
d="M571 -25q-257 0 -370 125.5t-113 370.5v47h86v-47q0 -66 16 -110.5t58.5 -79.5t122 -51.5t200.5 -16.5q124 0 204.5 16.5t122 52t56.5 79t15 110.5v963h86v-963q0 -246 -112 -371t-372 -125zM383 1597h-311l467 449h67l467 -449h-309l-191 367z" />
    <glyph glyph-name="jcircumflex" unicode="&#x135;" horiz-adv-x="411" 
d="M-47 -526q-138 0 -215.5 101t-77.5 273h82q0 -145 211 -145q103 0 157 40t54 116v1165h82v-1186q0 -171 -77 -267.5t-216 -96.5zM84 1182h-289l383 354h60l378 -354h-286l-123 262z" />
    <glyph glyph-name="uni0136" unicode="&#x136;" horiz-adv-x="1316" 
d="M164 0v1434h86v-562h186l453 562h309l-573 -711l622 -723h-135l-555 635h-307v-635h-86zM745 -262q0 -70 -49 -121l-121 -129h-73l-37 240q-11 66 28 108.5t109 42.5q67 0 105 -37.5t38 -103.5z" />
    <glyph glyph-name="uni0137" unicode="&#x137;" horiz-adv-x="1116" 
d="M248 0h-84v1536h84v-899h151l379 387h258l-491 -500l518 -524h-125l-403 408h-287v-408zM729 -276q0 -70 -49 -121l-121 -129h-74l-36 239q-11 66 28 109t109 43q67 0 105 -37.5t38 -103.5z" />
    <glyph glyph-name="Lacute" unicode="&#x139;" horiz-adv-x="1120" 
d="M1051 238v-238h-887v1434h86v-1196h801zM170 1597l53 449h299l-276 -449h-76z" />
    <glyph glyph-name="lacute" unicode="&#x13a;" horiz-adv-x="411" 
d="M248 1536v-1536h-84v1536h84zM174 1597l80 355h258l-272 -355h-66z" />
    <glyph glyph-name="uni013B" unicode="&#x13b;" horiz-adv-x="1120" 
d="M1051 238v-238h-887v1434h86v-1196h801zM580 -512h-74l-37 240q-11 66 28 108.5t109 42.5q67 0 105.5 -37.5t38.5 -103.5q0 -69 -50 -121z" />
    <glyph glyph-name="uni013C" unicode="&#x13c;" horiz-adv-x="411" 
d="M248 1536v-1536h-84v1536h84zM178 -526h-74l-36 239q-11 66 28 109t109 43q67 0 105 -37.5t38 -103.5q0 -70 -49 -121z" />
    <glyph glyph-name="Lcaron" unicode="&#x13d;" horiz-adv-x="1208" 
d="M1139 238v-238h-887v1434h86v-1196h801zM922 1180h-74l-37 239q-11 66 28 109t109 43q67 0 105.5 -37.5t38.5 -103.5q0 -69 -50 -121z" />
    <glyph glyph-name="lcaron" unicode="&#x13e;" horiz-adv-x="614" 
d="M248 1536v-1536h-84v1536h84zM485 1180h-73l-37 239q-11 66 28 109t109 43q67 0 105 -37.5t38 -103.5q0 -70 -49 -121z" />
    <glyph glyph-name="Ldot" unicode="&#x13f;" horiz-adv-x="1120" 
d="M1051 238v-238h-887v1434h86v-1196h801zM651 569q-75 0 -116 41.5t-41 116.5t41 116.5t116 41.5q74 0 117 -42t43 -116t-43 -116t-117 -42z" />
    <glyph glyph-name="ldot" unicode="&#x140;" horiz-adv-x="610" 
d="M248 1536v-1536h-84v1536h84zM360 512q0 71 38.5 110.5t111.5 39.5q72 0 112 -39.5t40 -110.5t-40 -110.5t-112 -39.5q-73 0 -111.5 39.5t-38.5 110.5z" />
    <glyph glyph-name="Lslash" unicode="&#x141;" horiz-adv-x="1120" 
d="M250 791l735 401h14v-252l-749 -408v-294h801v-238h-887v485l-105 -57h-14v252l119 65v689h86v-643z" />
    <glyph glyph-name="lslash" unicode="&#x142;" horiz-adv-x="411" 
d="M248 864l164 107v-271l-164 -106v-594h-84v541l-164 -107v271l164 106v725h84v-672z" />
    <glyph glyph-name="Nacute" unicode="&#x143;" horiz-adv-x="1458" 
d="M1057 0l-809 1227h-4l4 -203v-1024h-84v1434h237l809 -1227h4l-4 203v1024h84v-1434h-237zM682 1597l53 449h299l-276 -449h-76z" />
    <glyph glyph-name="nacute" unicode="&#x144;" 
d="M248 786q80 256 381 256q207 0 313.5 -106.5t106.5 -312.5v-623h-82v623q0 94 -90 142t-263 48q-180 0 -273 -64.5t-93 -185.5v-563h-84v1024h84v-238zM678 1182h-66l80 354h258z" />
    <glyph glyph-name="uni0145" unicode="&#x145;" horiz-adv-x="1458" 
d="M1057 0l-809 1227h-4l4 -203v-1024h-84v1434h237l809 -1227h4l-4 203v1024h84v-1434h-237zM702 -512h-73l-37 240q-11 66 28 108.5t109 42.5q67 0 105 -37.5t38 -103.5q0 -70 -49 -121z" />
    <glyph glyph-name="uni0146" unicode="&#x146;" 
d="M248 786q80 256 381 256q207 0 313.5 -106.5t106.5 -312.5v-623h-82v623q0 94 -90 142t-263 48q-180 0 -273 -64.5t-93 -185.5v-563h-84v1024h84v-238zM750 -262q0 -69 -50 -121l-120 -129h-74l-37 240q-11 66 28 108.5t109 42.5q67 0 105.5 -37.5t38.5 -103.5z" />
    <glyph glyph-name="Ncaron" unicode="&#x147;" horiz-adv-x="1458" 
d="M248 0h-84v1434h237l809 -1227h4l-4 203v1024h84v-1434h-237l-809 1227h-4l4 -203v-1024zM702 1597l-466 449h311l190 -367l191 367h309l-467 -449h-68z" />
    <glyph glyph-name="ncaron" unicode="&#x148;" 
d="M248 786q80 256 381 256q207 0 313.5 -106.5t106.5 -312.5v-623h-82v623q0 94 -90 142t-263 48q-180 0 -273 -64.5t-93 -185.5v-563h-84v1024h84v-238zM729 1536h289l-383 -354h-60l-378 354h286l123 -262z" />
    <glyph glyph-name="napostrophe" unicode="&#x149;" 
d="M248 786q80 256 381 256q207 0 313.5 -106.5t106.5 -312.5v-623h-82v623q0 94 -90 142t-263 48q-180 0 -273 -64.5t-93 -185.5v-563h-84v1024h84v-238zM414 1415q0 -70 -49 -121l-121 -129h-74l-37 240q-11 66 28 108.5t109 42.5q67 0 105.5 -37.5t38.5 -103.5z" />
    <glyph glyph-name="Eng" unicode="&#x14a;" horiz-adv-x="1458" 
d="M1294 -31q0 -245 -110 -370t-363 -125h-49v250h49q119 0 197.5 15.5t120 49t57.5 75.5t16 105v31h-155l-809 1227h-4l4 -203v-1024h-84v1434h237l809 -1227h4l-4 203v1024h84v-1465z" />
    <glyph glyph-name="eng" unicode="&#x14b;" 
d="M629 1042q207 0 313.5 -106.5t106.5 -312.5v-744q0 -206 -101.5 -305.5t-308.5 -99.5h-49v229h49q168 0 248 43t80 133v744q0 94 -90 142t-263 48q-180 0 -273 -64.5t-93 -185.5v-563h-84v1024h84v-238q80 256 381 256z" />
    <glyph glyph-name="Omacron" unicode="&#x14c;" horiz-adv-x="1462" 
d="M1278 717q0 237 -142 370.5t-405 133.5t-405 -133.5t-142 -370.5t142 -370.5t405 -133.5t405 133.5t142 370.5zM106 717q0 350 165.5 545.5t459.5 195.5t459.5 -195.5t165.5 -545.5t-165.5 -546t-459.5 -196t-459.5 196t-165.5 546zM1186 1702h-910v237h910v-237z" />
    <glyph glyph-name="omacron" unicode="&#x14d;" horiz-adv-x="1140" 
d="M571 1042q235 0 361.5 -141t126.5 -389q0 -249 -126.5 -389.5t-361.5 -140.5q-236 0 -362.5 140.5t-126.5 389.5q0 248 126.5 389t362.5 141zM571 213q214 0 313 71.5t99 227.5q0 155 -99 227t-313 72q-216 0 -314.5 -71.5t-98.5 -227.5q0 -157 98 -228t315 -71z
M981 1243h-821v230h821v-230z" />
    <glyph glyph-name="Obreve" unicode="&#x14e;" horiz-adv-x="1462" 
d="M1278 717q0 237 -142 370.5t-405 133.5t-405 -133.5t-142 -370.5t142 -370.5t405 -133.5t405 133.5t142 370.5zM106 717q0 350 165.5 545.5t459.5 195.5t459.5 -195.5t165.5 -545.5t-165.5 -546t-459.5 -196t-459.5 196t-165.5 546zM731 1815q203 0 306.5 51.5
t103.5 148.5v31h86v-31q0 -208 -132 -323t-364 -115q-233 0 -364 115t-131 323v31h86v-31q0 -97 105 -148.5t304 -51.5z" />
    <glyph glyph-name="obreve" unicode="&#x14f;" horiz-adv-x="1140" 
d="M571 1042q235 0 361.5 -141t126.5 -389q0 -249 -126.5 -389.5t-361.5 -140.5q-236 0 -362.5 140.5t-126.5 389.5q0 248 126.5 389t362.5 141zM571 213q214 0 313 71.5t99 227.5q0 155 -99 227t-313 72q-216 0 -314.5 -71.5t-98.5 -227.5q0 -157 98 -228t315 -71z
M569 1376q328 0 328 137v23h84v-23q0 -166 -110.5 -259t-301.5 -93q-190 0 -299.5 93t-109.5 259v23h84v-23q0 -66 83 -101.5t242 -35.5z" />
    <glyph glyph-name="Ohungarumlaut" unicode="&#x150;" horiz-adv-x="1492" 
d="M1278 717q0 237 -142 370.5t-405 133.5t-405 -133.5t-142 -370.5t142 -370.5t405 -133.5t405 133.5t142 370.5zM106 717q0 350 165.5 545.5t459.5 195.5t459.5 -195.5t165.5 -545.5t-165.5 -546t-459.5 -196t-459.5 196t-165.5 546zM487 1597h-71l119 449h299zM1001 1597
h-73l159 449h299z" />
    <glyph glyph-name="ohungarumlaut" unicode="&#x151;" horiz-adv-x="1140" 
d="M571 1042q235 0 361.5 -141t126.5 -389q0 -249 -126.5 -389.5t-361.5 -140.5q-236 0 -362.5 140.5t-126.5 389.5q0 248 126.5 389t362.5 141zM571 213q214 0 313 71.5t99 227.5q0 155 -99 227t-313 72q-216 0 -314.5 -71.5t-98.5 -227.5q0 -157 98 -228t315 -71z
M385 1182h-68l41 354h258zM807 1182h-68l82 354h258z" />
    <glyph glyph-name="OE" unicode="&#x152;" horiz-adv-x="2121" 
d="M690 -25q-274 0 -429 196t-155 546t155 545.5t429 195.5q173 0 300.5 -78.5t199.5 -228.5v283h819v-238h-733v-348h700v-238h-700v-372h733v-238h-819v283q-72 -150 -199.5 -229t-300.5 -79zM690 221q240 0 370 131t130 365t-130 364.5t-370 130.5q-239 0 -368 -130.5
t-129 -364.5t129 -365t368 -131z" />
    <glyph glyph-name="oe" unicode="&#x153;" horiz-adv-x="1857" 
d="M1755 324q0 -152 -109.5 -247t-289.5 -95q-317 0 -418 190q-111 -190 -406 -190q-218 0 -334 140t-116 390q0 248 116 389t334 141q298 0 406 -192q45 98 156.5 145t261.5 47q194 0 302.5 -118.5t108.5 -333.5v-174h-776q26 -106 115.5 -154.5t249.5 -48.5
q154 0 234.5 29.5t80.5 81.5v12h84v-12zM166 512q0 -157 86.5 -228t277.5 -71q190 0 278.5 71.5t88.5 227.5q0 155 -89 227t-278 72q-190 0 -277 -71.5t-87 -227.5zM1356 811q-165 0 -265 -47.5t-106 -145.5h698v25q0 81 -91 124.5t-236 43.5z" />
    <glyph glyph-name="Racute" unicode="&#x154;" horiz-adv-x="1308" 
d="M1171 995q0 -187 -101.5 -300.5t-287.5 -133.5l428 -561h-98l-424 557h-438v-557h-86v1434h538q222 0 345.5 -116t123.5 -323zM1085 995q0 96 -99 148.5t-284 52.5h-452v-401h452q185 0 284 52t99 148zM651 1597h-76l54 449h299z" />
    <glyph glyph-name="racute" unicode="&#x155;" horiz-adv-x="792" 
d="M248 727q82 315 416 315h67v-231h-67q-206 0 -311 -89.5t-105 -254.5v-467h-84v1024h84v-297zM459 1182h-66l80 354h258z" />
    <glyph glyph-name="uni0156" unicode="&#x156;" horiz-adv-x="1308" 
d="M1171 995q0 -187 -101.5 -300.5t-287.5 -133.5l428 -561h-98l-424 557h-438v-557h-86v1434h538q222 0 345.5 -116t123.5 -323zM1085 995q0 96 -99 148.5t-284 52.5h-452v-401h452q185 0 284 52t99 148zM829 -262q0 -70 -49 -121l-121 -129h-73l-37 240q-11 66 28 108.5
t109 42.5q67 0 105 -37.5t38 -103.5z" />
    <glyph glyph-name="uni0157" unicode="&#x157;" horiz-adv-x="792" 
d="M248 727q82 315 416 315h67v-231h-67q-206 0 -311 -89.5t-105 -254.5v-467h-84v1024h84v-297zM352 -276q0 -70 -49 -121l-121 -129h-73l-37 239q-11 66 28 109t109 43q67 0 105 -37.5t38 -103.5z" />
    <glyph glyph-name="Rcaron" unicode="&#x158;" horiz-adv-x="1308" 
d="M1171 995q0 -187 -101.5 -300.5t-287.5 -133.5l428 -561h-98l-424 557h-438v-557h-86v1434h538q222 0 345.5 -116t123.5 -323zM1085 995q0 96 -99 148.5t-284 52.5h-452v-401h452q185 0 284 52t99 148zM631 1597l-467 449h311l191 -367l190 367h309l-467 -449h-67z" />
    <glyph glyph-name="rcaron" unicode="&#x159;" horiz-adv-x="792" 
d="M248 727q82 315 416 315h67v-231h-67q-206 0 -311 -89.5t-105 -254.5v-467h-84v1024h84v-297zM584 1536h288l-383 -354h-59l-379 354h287l123 -262z" />
    <glyph glyph-name="Sacute" unicode="&#x15a;" horiz-adv-x="1296" 
d="M1190 424q0 -88 -33 -167t-97.5 -143t-171 -101.5t-241.5 -37.5q-541 0 -541 506v37h87v-37q0 -97 39.5 -153.5t139 -85.5t275.5 -29q244 0 350.5 48.5t106.5 162.5q0 76 -33.5 127.5t-90 77.5t-130 40t-154 21t-161.5 15.5t-154.5 28t-130 53t-90 97t-33.5 154.5
q0 85 31 159t92.5 133.5t163.5 93.5t233 34q522 0 522 -497v-37h-86v37q0 94 -37 148.5t-133 83t-266 28.5q-232 0 -333 -41.5t-101 -141.5q0 -75 33.5 -126.5t90 -77t130 -39.5t154.5 -21t161.5 -15t154 -28t130 -54t90 -98t33.5 -155zM606 1597l53 449h299l-276 -449h-76z
" />
    <glyph glyph-name="sacute" unicode="&#x15b;" horiz-adv-x="1038" 
d="M862 328q0 51 -42 81.5t-109 41.5t-148 17t-162 15.5t-148 29t-109 65t-42 116.5q0 70 25 131.5t74.5 110.5t131 77.5t185.5 28.5q194 0 305 -92.5t111 -255.5v-10h-84v10q0 70 -77 93.5t-255 23.5q-133 0 -206 -12.5t-100.5 -37t-27.5 -67.5q0 -51 42 -81.5t109 -41.5
t148 -17t162 -15.5t148 -29t109 -65t42 -116.5q0 -69 -25.5 -129.5t-75.5 -110t-134.5 -78t-192.5 -28.5q-195 0 -310.5 95.5t-115.5 250.5v26h84v-26q0 -66 81.5 -90.5t260.5 -24.5q194 0 270 28.5t76 86.5zM494 1182l79 354h258l-272 -354h-65z" />
    <glyph glyph-name="Scircumflex" unicode="&#x15c;" horiz-adv-x="1296" 
d="M213 1038q0 -75 33.5 -126.5t90 -77t130 -39.5t154.5 -21t161.5 -15t154 -28t130 -54t90 -98t33.5 -155q0 -88 -33 -167t-97.5 -143t-171 -101.5t-241.5 -37.5q-541 0 -541 506v37h87v-37q0 -97 39.5 -153.5t139 -85.5t275.5 -29q244 0 350.5 48.5t106.5 162.5
q0 76 -33.5 127.5t-90 77.5t-130 40t-154 21t-161.5 15.5t-154.5 28t-130 53t-90 97t-33.5 154.5q0 85 31 159t92.5 133.5t163.5 93.5t233 34q522 0 522 -497v-37h-86v37q0 94 -37 148.5t-133 83t-266 28.5q-232 0 -333 -41.5t-101 -141.5zM461 1597h-311l466 449h68
l467 -449h-309l-191 367z" />
    <glyph glyph-name="scircumflex" unicode="&#x15d;" horiz-adv-x="1038" 
d="M516 213q194 0 270 28.5t76 86.5q0 51 -42 81.5t-109 41.5t-148 17t-162 15.5t-148 29t-109 65t-42 116.5q0 70 25 131.5t74.5 110.5t131 77.5t185.5 28.5q194 0 305 -92.5t111 -255.5v-10h-84v10q0 70 -77 93.5t-255 23.5q-133 0 -206 -12.5t-100.5 -37t-27.5 -67.5
q0 -51 42 -81.5t109 -41.5t148 -17t162 -15.5t148 -29t109 -65t42 -116.5q0 -69 -25.5 -129.5t-75.5 -110t-134.5 -78t-192.5 -28.5q-195 0 -310.5 95.5t-115.5 250.5v26h84v-26q0 -66 81.5 -90.5t260.5 -24.5zM395 1182h-289l383 354h60l379 -354h-287l-123 262z" />
    <glyph glyph-name="Scedilla" unicode="&#x15e;" horiz-adv-x="1296" 
d="M213 1038q0 -75 33.5 -126.5t90 -77t130 -39.5t154.5 -21t161.5 -15t154 -28t130 -54t90 -98t33.5 -155q0 -84 -30.5 -160t-89 -138.5t-155 -102t-219.5 -46.5v-22q59 -4 102 -19t65.5 -33.5t35.5 -47t16 -50t3 -51.5q0 -49 -17 -90.5t-52.5 -75.5t-99.5 -53.5
t-151 -19.5q-62 0 -139 14v235q82 -12 184 -12q88 0 119 16t31 50q0 65 -146 65h-37v92q-504 18 -504 506v37h87v-37q0 -97 39.5 -153.5t139 -85.5t275.5 -29q244 0 350.5 48.5t106.5 162.5q0 76 -33.5 127.5t-90 77.5t-130 40t-154 21t-161.5 15.5t-154.5 28t-130 53
t-90 97t-33.5 154.5q0 85 31 159t92.5 133.5t163.5 93.5t233 34q522 0 522 -497v-37h-86v37q0 94 -37 148.5t-133 83t-266 28.5q-232 0 -333 -41.5t-101 -141.5z" />
    <glyph glyph-name="scedilla" unicode="&#x15f;" horiz-adv-x="1038" 
d="M516 213q194 0 270 28.5t76 86.5q0 51 -42 81.5t-109 41.5t-148 17t-162 15.5t-148 29t-109 65t-42 116.5q0 70 25 131.5t74.5 110.5t131 77.5t185.5 28.5q194 0 305 -92.5t111 -255.5v-10h-84v10q0 70 -77 93.5t-255 23.5q-133 0 -206 -12.5t-100.5 -37t-27.5 -67.5
q0 -51 42 -81.5t109 -41.5t148 -17t162 -15.5t148 -29t109 -65t42 -116.5q0 -69 -25.5 -129.5t-75.5 -110t-134.5 -78t-192.5 -28.5v-33q67 -2 115.5 -19.5t73.5 -46t36 -59t11 -64.5q0 -108 -79 -161.5t-214 -53.5q-69 0 -127 13v225q47 -8 129 -8q78 0 107.5 14t29.5 47
q0 55 -129 55h-27v95q-163 19 -257.5 111t-94.5 231v26h84v-26q0 -66 81.5 -90.5t260.5 -24.5z" />
    <glyph glyph-name="Scaron" unicode="&#x160;" horiz-adv-x="1296" 
d="M213 1038q0 -75 33.5 -126.5t90 -77t130 -39.5t154.5 -21t161.5 -15t154 -28t130 -54t90 -98t33.5 -155q0 -88 -33 -167t-97.5 -143t-171 -101.5t-241.5 -37.5q-541 0 -541 506v37h87v-37q0 -97 39.5 -153.5t139 -85.5t275.5 -29q244 0 350.5 48.5t106.5 162.5
q0 76 -33.5 127.5t-90 77.5t-130 40t-154 21t-161.5 15.5t-154.5 28t-130 53t-90 97t-33.5 154.5q0 85 31 159t92.5 133.5t163.5 93.5t233 34q522 0 522 -497v-37h-86v37q0 94 -37 148.5t-133 83t-266 28.5q-232 0 -333 -41.5t-101 -141.5zM614 1597l-467 449h312l190 -367
l191 367h309l-467 -449h-68z" />
    <glyph glyph-name="scaron" unicode="&#x161;" horiz-adv-x="1038" 
d="M516 213q194 0 270 28.5t76 86.5q0 51 -42 81.5t-109 41.5t-148 17t-162 15.5t-148 29t-109 65t-42 116.5q0 70 25 131.5t74.5 110.5t131 77.5t185.5 28.5q194 0 305 -92.5t111 -255.5v-10h-84v10q0 70 -77 93.5t-255 23.5q-133 0 -206 -12.5t-100.5 -37t-27.5 -67.5
q0 -51 42 -81.5t109 -41.5t148 -17t162 -15.5t148 -29t109 -65t42 -116.5q0 -69 -25.5 -129.5t-75.5 -110t-134.5 -78t-192.5 -28.5q-195 0 -310.5 95.5t-115.5 250.5v26h84v-26q0 -66 81.5 -90.5t260.5 -24.5zM639 1536h289l-383 -354h-60l-379 354h287l123 -262z" />
    <glyph glyph-name="uni0162" unicode="&#x162;" horiz-adv-x="1179" 
d="M47 1196v238h1086v-238h-500v-1196h-86v1196h-500zM563 -512h-74l-36 240q-11 66 28 108.5t109 42.5q67 0 105 -37.5t38 -103.5q0 -70 -49 -121z" />
    <glyph glyph-name="uni0163" unicode="&#x163;" horiz-adv-x="950" 
d="M539 211q128 0 190 30.5t62 104.5h81q0 -171 -87 -267.5t-246 -96.5t-246.5 96.5t-87.5 267.5v449h-119v229h119l14 219h68v-219h469v-229h-469v-449q0 -74 62 -104.5t190 -30.5zM686 -262q0 -70 -49 -121l-121 -129h-74l-36 240q-11 66 28 108.5t109 42.5
q67 0 105 -37.5t38 -103.5z" />
    <glyph glyph-name="Tcaron" unicode="&#x164;" horiz-adv-x="1179" 
d="M547 1196h-500v238h1086v-238h-500v-1196h-86v1196zM563 1597l-467 449h312l190 -367l190 367h310l-467 -449h-68z" />
    <glyph glyph-name="tcaron" unicode="&#x165;" horiz-adv-x="950" 
d="M539 211q128 0 190 30.5t62 104.5h81q0 -171 -87 -267.5t-246 -96.5t-246.5 96.5t-87.5 267.5v449h-119v229h119l14 219h68v-219h469v-229h-469v-449q0 -74 62 -104.5t190 -30.5zM897 1432q0 -70 -49 -121l-121 -129h-74l-37 239q-11 66 28.5 109t109.5 43
q67 0 105 -37.5t38 -103.5z" />
    <glyph glyph-name="Tbar" unicode="&#x166;" horiz-adv-x="1179" 
d="M547 1196h-500v238h1086v-238h-500v-348h411v-238h-411v-610h-86v610h-412v238h412v348z" />
    <glyph glyph-name="tbar" unicode="&#x167;" horiz-adv-x="950" 
d="M539 211q128 0 190 30.5t62 104.5h81q0 -171 -87 -267.5t-246 -96.5t-246.5 96.5t-87.5 267.5v94h-119v215h119v140h-119v229h119l14 219h68v-219h469v-229h-469v-140h469v-215h-469v-94q0 -74 62 -104.5t190 -30.5z" />
    <glyph glyph-name="Utilde" unicode="&#x168;" horiz-adv-x="1400" 
d="M1245 1434v-826q0 -300 -143 -466.5t-400 -166.5q-263 0 -404.5 165.5t-141.5 467.5v826h86v-826q0 -189 118.5 -292t341.5 -103q219 0 338 103.5t119 291.5v826h86zM981 2066q145 0 199.5 -106t3.5 -320l-10 -43h-250l10 43q22 91 -6 140t-84 49q-40 0 -71.5 -14
t-53 -36t-41 -49t-41.5 -54t-48 -49t-66 -36t-91 -14q-145 0 -199.5 106t-3.5 320l11 43h249l-10 -43q-22 -91 6 -139.5t84 -48.5q40 0 71.5 14t53 36t41 48.5t41.5 53.5t48 49t66 36t91 14z" />
    <glyph glyph-name="utilde" unicode="&#x169;" horiz-adv-x="1198" 
d="M950 238q-80 -256 -381 -256q-207 0 -313 106.5t-106 312.5v623h81v-623q0 -94 90 -142t263 -48q180 0 273 64.5t93 185.5v563h84v-1024h-84v238zM705 1364q-45 0 -79 -21t-57.5 -50.5t-49.5 -59.5t-70.5 -51t-104.5 -21q-116 0 -157.5 83.5t-6.5 260.5l6 31h224l-7 -31
q-14 -75 7.5 -113t64.5 -38q45 0 79 21t57.5 50.5t49.5 59t70.5 50.5t104.5 21q118 0 163.5 -86t-0.5 -258l-8 -30h-221l6 30q14 75 -7 113.5t-64 38.5z" />
    <glyph glyph-name="Umacron" unicode="&#x16a;" horiz-adv-x="1400" 
d="M1245 1434v-826q0 -300 -143 -466.5t-400 -166.5q-263 0 -404.5 165.5t-141.5 467.5v826h86v-826q0 -189 118.5 -292t341.5 -103q219 0 338 103.5t119 291.5v826h86zM1155 1702h-909v237h909v-237z" />
    <glyph glyph-name="umacron" unicode="&#x16b;" 
d="M956 238q-80 -256 -381 -256q-207 0 -313 106.5t-106 312.5v623h82v-623q0 -94 89.5 -142t262.5 -48q180 0 273 64.5t93 185.5v563h84v-1024h-84v238zM1010 1473v-230h-822v230h822z" />
    <glyph glyph-name="Ubreve" unicode="&#x16c;" horiz-adv-x="1400" 
d="M1245 1434v-826q0 -300 -143 -466.5t-400 -166.5q-263 0 -404.5 165.5t-141.5 467.5v826h86v-826q0 -189 118.5 -292t341.5 -103q219 0 338 103.5t119 291.5v826h86zM700 1815q203 0 306.5 51.5t103.5 148.5v31h86v-31q0 -208 -132 -323t-364 -115q-233 0 -364 115
t-131 323v31h86v-31q0 -97 105 -148.5t304 -51.5z" />
    <glyph glyph-name="ubreve" unicode="&#x16d;" 
d="M956 238q-80 -256 -381 -256q-207 0 -313 106.5t-106 312.5v623h82v-623q0 -94 89.5 -142t262.5 -48q180 0 273 64.5t93 185.5v563h84v-1024h-84v238zM272 1513q0 -66 83.5 -101.5t242.5 -35.5q328 0 328 137v23h84v-23q0 -166 -110.5 -259t-301.5 -93q-190 0 -300 93
t-110 259v23h84v-23z" />
    <glyph glyph-name="Uring" unicode="&#x16e;" horiz-adv-x="1400" 
d="M1245 1434v-826q0 -300 -143 -466.5t-400 -166.5q-263 0 -404.5 165.5t-141.5 467.5v826h86v-826q0 -189 118.5 -292t341.5 -103q219 0 338 103.5t119 291.5v826h86zM700 1446q-154 0 -238.5 86.5t-84.5 239.5q0 154 84 239.5t239 85.5t239.5 -85.5t84.5 -239.5
q0 -153 -85 -239.5t-239 -86.5zM700 1647q122 0 189 33t67 92t-67 91.5t-189 32.5t-189 -32.5t-67 -91.5t67 -92t189 -33z" />
    <glyph glyph-name="uring" unicode="&#x16f;" 
d="M920 1464q0 -153 -85 -239t-239 -86t-239 86t-85 239q0 154 84.5 240t239.5 86t239.5 -86t84.5 -240zM956 238q-80 -256 -381 -256q-207 0 -313 106.5t-106 312.5v623h82v-623q0 -94 89.5 -142t262.5 -48q180 0 273 64.5t93 185.5v563h84v-1024h-84v238zM340 1464
q0 -59 67 -92t189 -33t189 33t67 92t-67 92t-189 33t-189 -33t-67 -92z" />
    <glyph glyph-name="Uhungarumlaut" unicode="&#x170;" horiz-adv-x="1400" 
d="M1245 1434v-826q0 -300 -143 -466.5t-400 -166.5q-263 0 -404.5 165.5t-141.5 467.5v826h86v-826q0 -189 118.5 -292t341.5 -103q219 0 338 103.5t119 291.5v826h86zM442 1597h-71l118 449h299zM956 1597h-73l159 449h299z" />
    <glyph glyph-name="uhungarumlaut" unicode="&#x171;" 
d="M956 238q-80 -256 -381 -256q-207 0 -313 106.5t-106 312.5v623h82v-623q0 -94 89.5 -142t262.5 -48q180 0 273 64.5t93 185.5v563h84v-1024h-84v238zM891 1536h258l-272 -354h-68zM686 1536l-231 -354h-68l41 354h258z" />
    <glyph glyph-name="Uogonek" unicode="&#x172;" horiz-adv-x="1400" 
d="M588 -252q0 147 80 227q-247 10 -379.5 175t-132.5 458v826h86v-826q0 -189 118.5 -292t341.5 -103q219 0 338 103.5t119 291.5v826h86v-826q0 -244 -94.5 -400.5t-269.5 -207.5q-91 -27 -129.5 -63.5t-38.5 -86.5q0 -98 129 -98q60 0 133 12v-235q-92 -10 -139 -10
q-122 0 -185 65t-63 164z" />
    <glyph glyph-name="uogonek" unicode="&#x173;" 
d="M956 238q-80 -256 -381 -256q-207 0 -313 106.5t-106 312.5v623h82v-623q0 -94 89.5 -142t262.5 -48q180 0 273 64.5t93 185.5v563h84v-1024q-107 -31 -145.5 -59.5t-38.5 -77.5q0 -86 143 -86q70 0 125 10v-225q-60 -13 -120 -13q-124 0 -199.5 63.5t-75.5 170.5
t56 170.5t171 101.5v183z" />
    <glyph glyph-name="Wcircumflex" unicode="&#x174;" horiz-adv-x="2007" 
d="M1710 1434h252l-365 -1434h-254l-276 1012l-63 270h-5l-59 -270l-276 -1012h-254l-365 1434h88l262 -1024l60 -271h4l63 271l281 1024h237l281 -1024l63 -271h5l59 271zM815 1597h-311l467 449h67l467 -449h-309l-190 367z" />
    <glyph glyph-name="wcircumflex" unicode="&#x175;" horiz-adv-x="1579" 
d="M1313 1024h229l-285 -1024h-178l-241 715l-41 147h-4l-41 -147l-242 -715h-188l-285 1024h74l186 -668l47 -178h4l47 178l232 668h180l225 -668l53 -178h2l41 178zM668 1182h-289l383 354h59l379 -354h-287l-122 262z" />
    <glyph glyph-name="Ycircumflex" unicode="&#x176;" horiz-adv-x="1193" 
d="M555 0v422l-514 1012h92l299 -590l80 -176h4l78 176l299 590h260l-512 -1012v-422h-86zM408 1597h-312l467 449h68l467 -449h-310l-190 367z" />
    <glyph glyph-name="ycircumflex" unicode="&#x177;" horiz-adv-x="1044" 
d="M201 -297q117 0 185.5 40t107.5 148l41 109l-494 1024h88l285 -588l69 -162h6l56 162l233 588h246l-453 -1133q-69 -171 -122.5 -259t-109.5 -123t-138 -35h-47v229h47zM416 1182h-289l383 354h59l379 -354h-286l-123 262z" />
    <glyph glyph-name="Ydieresis" unicode="&#x178;" horiz-adv-x="1193" 
d="M555 0v422l-514 1012h92l299 -590l80 -176h4l78 176l299 590h260l-512 -1012v-422h-86zM481 1821q0 -75 -42.5 -116.5t-116.5 -41.5q-75 0 -116.5 41.5t-41.5 116.5t41.5 116t116.5 41q74 0 116.5 -41.5t42.5 -115.5zM1028 1821q0 -74 -43 -116t-117 -42q-75 0 -116 41.5
t-41 116.5t41 116t116 41q74 0 117 -41.5t43 -115.5z" />
    <glyph glyph-name="Zacute" unicode="&#x179;" horiz-adv-x="1196" 
d="M1065 1196l-846 -954v-4h866v-238h-974v238l845 954v4h-804v238h913v-238zM549 1597l53 449h299l-276 -449h-76z" />
    <glyph glyph-name="zacute" unicode="&#x17a;" horiz-adv-x="962" 
d="M842 1024v-217l-600 -578h614v-229h-750v217l601 578h-576v229h711zM512 1182h-66l80 354h258z" />
    <glyph glyph-name="Zdotaccent" unicode="&#x17b;" horiz-adv-x="1196" 
d="M1065 1196l-846 -954v-4h866v-238h-974v238l845 954v4h-804v238h913v-238zM598 1663q-75 0 -116.5 41.5t-41.5 116.5t41.5 116t116.5 41q74 0 117 -41.5t43 -115.5t-43 -116t-117 -42z" />
    <glyph glyph-name="zdotaccent" unicode="&#x17c;" horiz-adv-x="962" 
d="M842 1024v-217l-600 -578h614v-229h-750v217l601 578h-576v229h711zM643 1358q0 -70 -43.5 -110t-114.5 -40q-76 0 -116.5 39.5t-40.5 110.5t40.5 110t116.5 39q75 0 116.5 -39t41.5 -110z" />
    <glyph glyph-name="Zcaron" unicode="&#x17d;" horiz-adv-x="1206" 
d="M1077 1434v-238l-846 -954v-4h867v-238h-975v238l846 954v4h-805v238h913zM571 1597l-467 449h312l190 -367l191 367h309l-467 -449h-68z" />
    <glyph glyph-name="zcaron" unicode="&#x17e;" horiz-adv-x="962" 
d="M842 1024v-217l-600 -578h614v-229h-750v217l601 578h-576v229h711zM602 1536h289l-383 -354h-59l-379 354h286l123 -262z" />
    <glyph glyph-name="Aringacute" unicode="&#x1fa;" horiz-adv-x="1300" 
d="M969 1714q0 -98 -36 -170t-104 -110l416 -1434h-92l-74 254h-860l-72 -254h-92l406 1434q-139 79 -139 280q0 148 77 233.5t219 92.5l68 301h258l-235 -305q125 -17 192.5 -101t67.5 -221zM287 492h725l-156 532l-49 188h-322l-49 -188zM389 1714q0 -59 67 -92t189 -33
t189 33t67 92t-67 92t-189 33t-189 -33t-67 -92z" />
    <glyph glyph-name="aringacute" unicode="&#x1fb;" horiz-adv-x="1138" 
d="M563 1042q194 0 305 -85.5t111 -235.5v-721h-84v248q-46 -123 -162.5 -194.5t-290.5 -71.5q-153 0 -240 84t-87 233q0 146 87 227.5t240 81.5h453v113q0 92 -332 92q-334 0 -334 -92v-25h-84v25q0 151 111.5 236t306.5 85zM887 1464q0 -153 -85 -239t-239 -86t-238.5 86
t-84.5 239q0 145 75 230t213 94l64 285h258l-221 -287q124 -19 191 -102t67 -220zM199 307q0 -47 66 -71.5t188 -24.5q442 0 442 192h-442q-254 0 -254 -96zM307 1464q0 -59 67 -92t189 -33t189 33t67 92t-67 92t-189 33t-189 -33t-67 -92z" />
    <glyph glyph-name="AEacute" unicode="&#x1fc;" horiz-adv-x="1888" 
d="M141 0h-86l590 1434h1131v-238h-732v-348h699v-238h-699v-372h732v-238h-818v262h-708zM958 1196h-323l-287 -696h610v696zM1059 1597h-76l53 449h299z" />
    <glyph glyph-name="aeacute" unicode="&#x1fd;" horiz-adv-x="1781" 
d="M1679 324q0 -152 -106 -247t-281 -95q-144 0 -242.5 69t-146.5 197q-44 -124 -160 -195t-292 -71q-154 0 -243 84t-89 233q0 145 88.5 227t243.5 82h413v92q0 113 -313 113q-318 0 -318 -92v-25h-83v25q0 151 106.5 236t294.5 85q147 0 245.5 -55.5t133.5 -155.5
q111 211 362 211q189 0 294.5 -118.5t105.5 -333.5v-174h-738q23 -106 104.5 -154.5t233.5 -48.5q147 0 225 29.5t78 81.5v12h84v-12zM203 307q0 -96 258 -96q401 0 401 192h-401q-258 0 -258 -96zM1292 811q-155 0 -247 -47t-99 -146h662q0 91 -90 142t-226 51zM956 1182
h-65l80 354h258z" />
    <glyph glyph-name="Oslashacute" unicode="&#x1fe;" horiz-adv-x="1503" 
d="M752 1458q273 0 434 -155l108 131h92l-151 -185q162 -198 162 -532q0 -350 -171 -546t-474 -196q-270 0 -437 156l-106 -131h-92l149 182q-160 199 -160 535q0 349 171.5 545t474.5 196zM1311 717q0 266 -185 401l-688 -839q129 -66 314 -66q268 0 413.5 133.5
t145.5 370.5zM193 717q0 -270 182 -402l690 840q-129 66 -313 66q-268 0 -413.5 -133.5t-145.5 -370.5zM788 1591h-65l80 355h258z" />
    <glyph glyph-name="oslashacute" unicode="&#x1ff;" horiz-adv-x="1212" 
d="M106 512q0 248 129.5 389t372.5 141q217 0 340 -114l90 96h92l-135 -145q113 -131 113 -367q0 -249 -129 -389.5t-371 -140.5q-218 0 -344 114l-90 -96h-92l135 145q-111 132 -111 367zM1024 512q0 180 -139 250l-490 -524q89 -25 213 -25q216 0 316 71.5t100 227.5z
M190 512q0 -181 138 -250l489 524q-86 25 -209 25q-218 0 -318 -72t-100 -227zM643 1182h-65l79 354h258z" />
    <glyph glyph-name="uni0218" unicode="&#x218;" horiz-adv-x="1296" 
d="M1190 424q0 -88 -33 -167t-97.5 -143t-171 -101.5t-241.5 -37.5q-541 0 -541 506v37h87v-37q0 -97 39.5 -153.5t139 -85.5t275.5 -29q244 0 350.5 48.5t106.5 162.5q0 76 -33.5 127.5t-90 77.5t-130 40t-154 21t-161.5 15.5t-154.5 28t-130 53t-90 97t-33.5 154.5
q0 85 31 159t92.5 133.5t163.5 93.5t233 34q522 0 522 -497v-37h-86v37q0 94 -37 148.5t-133 83t-266 28.5q-232 0 -333 -41.5t-101 -141.5q0 -75 33.5 -126.5t90 -77t130 -39.5t154.5 -21t161.5 -15t154 -28t130 -54t90 -98t33.5 -155zM618 -512h-73l-37 240
q-11 66 28 108.5t109 42.5q67 0 105 -37.5t38 -103.5q0 -70 -49 -121z" />
    <glyph glyph-name="uni0219" unicode="&#x219;" horiz-adv-x="1038" 
d="M862 328q0 51 -42 81.5t-109 41.5t-148 17t-162 15.5t-148 29t-109 65t-42 116.5q0 70 25 131.5t74.5 110.5t131 77.5t185.5 28.5q194 0 305 -92.5t111 -255.5v-10h-84v10q0 70 -77 93.5t-255 23.5q-133 0 -206 -12.5t-100.5 -37t-27.5 -67.5q0 -51 42 -81.5t109 -41.5
t148 -17t162 -15.5t148 -29t109 -65t42 -116.5q0 -69 -25.5 -129.5t-75.5 -110t-134.5 -78t-192.5 -28.5q-195 0 -310.5 95.5t-115.5 250.5v26h84v-26q0 -66 81.5 -90.5t260.5 -24.5q194 0 270 28.5t76 86.5zM489 -526h-73l-37 239q-11 66 28 109t109 43q67 0 105 -37.5
t38 -103.5q0 -70 -49 -121z" />
    <glyph glyph-name="uni0237" unicode="&#x237;" horiz-adv-x="415" 
d="M-340 -152h82q0 -145 211 -145q103 0 157 40t54 116v1165h82v-1186q0 -171 -77 -267.5t-216 -96.5q-138 0 -215.5 101t-77.5 273z" />
    <glyph glyph-name="circumflex" unicode="&#x2c6;" horiz-adv-x="960" 
d="M350 1182h-289l383 354h60l379 -354h-287l-123 262z" />
    <glyph glyph-name="caron" unicode="&#x2c7;" horiz-adv-x="942" 
d="M594 1536h289l-383 -354h-60l-379 354h287l123 -262z" />
    <glyph glyph-name="breve" unicode="&#x2d8;" horiz-adv-x="1064" 
d="M532 1376q328 0 328 137v23h84v-23q0 -166 -110.5 -259t-301.5 -93q-190 0 -299.5 93t-109.5 259v23h84v-23q0 -66 83 -101.5t242 -35.5z" />
    <glyph glyph-name="dotaccent" unicode="&#x2d9;" horiz-adv-x="571" 
d="M287 1208q-76 0 -117 39.5t-41 110.5t41 110t117 39q75 0 116 -39t41 -110q0 -70 -43 -110t-114 -40z" />
    <glyph glyph-name="ring" unicode="&#x2da;" horiz-adv-x="899" 
d="M451 1036q-154 0 -239 86.5t-85 239.5q0 154 84.5 240t239.5 86t239 -86t84 -240q0 -153 -84.5 -239.5t-238.5 -86.5zM451 1237q122 0 189 33t67 92t-67 92t-189 33t-189 -33t-67 -92t67 -92t189 -33z" />
    <glyph glyph-name="ogonek" unicode="&#x2db;" horiz-adv-x="608" 
d="M352 72l27 -72q-107 -31 -145.5 -59.5t-38.5 -77.5q0 -86 143 -86q70 0 125 10v-225q-60 -13 -121 -13q-124 0 -199 63.5t-75 170.5q0 119 69 184.5t215 104.5z" />
    <glyph glyph-name="tilde" unicode="&#x2dc;" horiz-adv-x="1144" 
d="M317 1161q-116 0 -157 83t-6 261l6 31h223l-6 -31q-14 -75 7.5 -113t64.5 -38q45 0 79 21t57.5 50.5t49 59t70 50.5t104.5 21q118 0 164 -86.5t0 -257.5l-8 -30h-222l7 30q14 75 -7.5 113.5t-64.5 38.5q-45 0 -79 -21t-57.5 -50.5t-49.5 -59.5t-70.5 -51t-104.5 -21z" />
    <glyph glyph-name="hungarumlaut" unicode="&#x2dd;" horiz-adv-x="1079" 
d="M250 1182h-68l41 354h258zM672 1182h-68l82 354h258z" />
    <glyph glyph-name="uni0401" unicode="&#x401;" horiz-adv-x="1175" 
d="M164 0v1434h899v-238h-813v-348h780v-238h-780v-372h813v-238h-899zM885 1663q-75 0 -116.5 41.5t-41.5 116.5t41.5 116t116.5 41q74 0 116.5 -41.5t42.5 -115.5q0 -75 -42.5 -116.5t-116.5 -41.5zM338 1663q-75 0 -116.5 41.5t-41.5 116.5t41.5 116t116.5 41
q74 0 117 -41.5t43 -115.5t-43 -116t-117 -42z" />
    <glyph glyph-name="uni0402" unicode="&#x402;" horiz-adv-x="1601" 
d="M633 674q91 198 381 198q121 0 212.5 -25t146.5 -66t89 -101t46 -121t12 -135t-12 -135t-46 -121.5t-89 -101t-146.5 -66t-212.5 -25.5h-68v238h47q91 0 163 8.5t119 24.5t79.5 35.5t49 44.5t23.5 48t7 50t-7 50t-23.5 48t-49 44.5t-79.5 35.5t-119 24.5t-163 8.5
t-158 -12t-105 -30.5t-60.5 -46t-29.5 -53t-7 -57.5v-436h-86v1196h-500v238h1086v-238h-500v-522z" />
    <glyph glyph-name="uni0403" unicode="&#x403;" horiz-adv-x="1075" 
d="M1051 1434v-238h-801v-1196h-86v1434h887zM553 1597l53 449h299l-276 -449h-76z" />
    <glyph glyph-name="uni0404" unicode="&#x404;" horiz-adv-x="1431" 
d="M731 1458q123 0 230 -38.5t186 -110t124.5 -181t45.5 -243.5v-31h-86v31q0 158 -142 247t-358 89q-219 0 -354 -97t-172 -274h866v-238h-870q30 -190 166 -294.5t364 -104.5q140 0 252.5 41t181 123.5t68.5 193.5v37h88v-37q0 -140 -45.5 -253.5t-125 -188t-187 -114.5
t-232.5 -40q-295 0 -460 196t-165 546t165 545.5t460 195.5z" />
    <glyph glyph-name="uni0405" unicode="&#x405;" horiz-adv-x="1288" 
d="M1190 424q0 -88 -33 -167t-97.5 -143t-171 -101.5t-241.5 -37.5q-541 0 -541 506v37h87v-37q0 -97 39.5 -153.5t139 -85.5t275.5 -29q244 0 350.5 48.5t106.5 162.5q0 76 -33.5 127.5t-90 77.5t-130 40t-154 21t-161.5 15.5t-154.5 28t-130 53t-90 97t-33.5 154.5
q0 85 31 159t92.5 133.5t163.5 93.5t233 34q522 0 522 -497v-37h-86v37q0 94 -37 148.5t-133 83t-266 28.5q-232 0 -333 -41.5t-101 -141.5q0 -75 33.5 -126.5t90 -77t130 -39.5t154.5 -21t161.5 -15t154 -28t130 -54t90 -98t33.5 -155z" />
    <glyph glyph-name="uni0406" unicode="&#x406;" horiz-adv-x="634" 
d="M164 0v238h110v958h-110v238h307v-238h-111v-958h111v-238h-307z" />
    <glyph glyph-name="uni0407" unicode="&#x407;" horiz-adv-x="634" 
d="M164 0v238h110v958h-110v238h307v-238h-111v-958h111v-238h-307zM526 1663q-75 0 -116 41.5t-41 116.5t41 116t116 41q74 0 117 -41.5t43 -115.5t-43 -116t-117 -42zM106 1663q-75 0 -116 41.5t-41 116.5t41 116t116 41q74 0 117 -41.5t43 -115.5t-43 -116t-117 -42z" />
    <glyph glyph-name="uni0408" unicode="&#x408;" horiz-adv-x="1202" 
d="M158 518v-47q0 -66 16 -110.5t58.5 -79.5t122 -51.5t200.5 -16.5q100 0 171 11.5t115 31.5t68.5 53.5t33.5 71t9 90.5v963h86v-963q0 -246 -111.5 -371t-371.5 -125q-257 0 -370 125.5t-113 370.5v47h86z" />
    <glyph glyph-name="uni0409" unicode="&#x409;" horiz-adv-x="2025" 
d="M137 233q36 0 57.5 2.5t47 13t39.5 31t25 58t13 92.5l39 1004h793v-582h311q221 0 343 -112.5t122 -313.5t-122 -313.5t-343 -112.5h-397v1196h-641l-27 -766q-4 -119 -17.5 -200.5t-32.5 -129t-53 -72.5t-68 -32.5t-89 -7.5h-59v245h59zM1849 426q0 90 -99.5 139
t-287.5 49h-311v-376h311q188 0 287.5 49t99.5 139z" />
    <glyph glyph-name="uni040A" unicode="&#x40a;" horiz-adv-x="2019" 
d="M1921 426q0 -201 -122 -313.5t-343 -112.5h-397v614h-809v-614h-86v1434h86v-582h809v582h86v-582h311q221 0 343 -112.5t122 -313.5zM1835 426q0 90 -98 139t-281 49h-311v-376h311q183 0 281 49t98 139z" />
    <glyph glyph-name="uni040B" unicode="&#x40b;" horiz-adv-x="1622" 
d="M633 664q98 208 422 208q111 0 195 -24.5t134.5 -64.5t82 -98.5t42.5 -117.5t11 -131v-436h-86v436q0 31 -8 57t-33 53.5t-65.5 46t-112 30.5t-166.5 12q-104 0 -181.5 -12t-121.5 -30.5t-70.5 -46t-34.5 -53t-8 -57.5v-436h-86v1196h-500v238h1086v-238h-500v-532z" />
    <glyph glyph-name="uni040C" unicode="&#x40c;" horiz-adv-x="1316" 
d="M164 0v1434h86v-562h186l453 562h309l-573 -711l622 -723h-135l-555 635h-307v-635h-86zM643 1597h-76l54 449h299z" />
    <glyph glyph-name="uni040E" unicode="&#x40e;" horiz-adv-x="1193" 
d="M135 1434l338 -590l80 -156h6l70 156l274 590h260l-461 -992q-51 -109 -86.5 -178t-73 -122.5t-66.5 -80.5t-71 -44t-81 -21t-103 -4h-33v237h33q42 0 67 1t63 5t62.5 12t55.5 23.5t53.5 38t46 56t41.5 77.5l-569 992h94zM604 1815q203 0 306.5 51.5t103.5 148.5v31h86
v-31q0 -208 -132 -323t-364 -115q-233 0 -364 115t-131 323v31h86v-31q0 -97 105 -148.5t304 -51.5z" />
    <glyph glyph-name="uni040F" unicode="&#x40f;" horiz-adv-x="1417" 
d="M666 -408v408h-502v1434h86v-1196h917v1196h86v-1434h-501v-408h-86z" />
    <glyph glyph-name="uni0410" unicode="&#x410;" horiz-adv-x="1300" 
d="M1077 254h-860l-72 -254h-92l406 1434h368l416 -1434h-92zM285 492h725l-156 532l-49 188h-322l-49 -188z" />
    <glyph glyph-name="uni0411" unicode="&#x411;" horiz-adv-x="1228" 
d="M1130 438q0 -207 -121.5 -322.5t-342.5 -115.5h-502v1434h858v-238h-772v-319h416q221 0 342.5 -115.5t121.5 -323.5zM1044 438q0 96 -97.5 148.5t-280.5 52.5h-416v-401h416q183 0 280.5 52t97.5 148z" />
    <glyph glyph-name="uni0412" unicode="&#x412;" horiz-adv-x="1284" 
d="M1174 430q0 -204 -121.5 -317t-343.5 -113h-545v1434h551q220 0 328 -107t108 -305q0 -216 -184 -289q101 -41 154 -119t53 -184zM1087 430q0 87 -96.5 134.5t-281.5 47.5h-459v-374h459q186 0 282 49.5t96 142.5zM1065 1022q0 85 -79.5 129.5t-270.5 44.5h-465v-346h465
q193 0 271.5 43t78.5 129z" />
    <glyph glyph-name="uni0413" unicode="&#x413;" horiz-adv-x="1075" 
d="M1051 1434v-238h-801v-1196h-86v1434h887z" />
    <glyph glyph-name="uni0414" unicode="&#x414;" horiz-adv-x="1523" 
d="M225 238q42 113 69.5 327.5t41.5 630.5l8 238h940v-1196h166v-646h-86v408h-1210v-408h-88v646h159zM422 1196q-19 -404 -47 -623.5t-68 -334.5h891v958h-776z" />
    <glyph glyph-name="uni0415" unicode="&#x415;" horiz-adv-x="1175" 
d="M164 0v1434h899v-238h-813v-348h780v-238h-780v-372h813v-238h-899z" />
    <glyph glyph-name="uni0416" unicode="&#x416;" horiz-adv-x="1978" 
d="M1565 1434h309l-545 -676l594 -758h-115l-497 635h-279v-635h-86v635h-82l-499 -635h-312l594 758l-545 676h115l455 -562h274v562h86v-562h80z" />
    <glyph glyph-name="uni0417" unicode="&#x417;" horiz-adv-x="1247" 
d="M621 -25q-243 0 -380 115.5t-137 323.5v104h86v-104q0 -97 110.5 -149t320.5 -52t320 52t110 149q0 198 -351 198h-243v238h243q106 0 173 11.5t100 37t44 55.5t11 78q0 89 -103.5 139t-303.5 50q-210 0 -319 -50t-109 -139v-108h-87v108q0 201 135.5 313.5t379.5 112.5
q233 0 363 -112.5t130 -313.5q0 -130 -66 -203t-227 -92q316 -47 316 -323q0 -209 -135 -324t-381 -115z" />
    <glyph glyph-name="uni0418" unicode="&#x418;" horiz-adv-x="1466" 
d="M1067 1434h236v-1434h-86v1024l4 203h-4l-818 -1227h-235v1434h86v-1024l-4 -203h4z" />
    <glyph glyph-name="uni0419" unicode="&#x419;" horiz-adv-x="1466" 
d="M1067 1434h236v-1434h-86v1024l4 203h-4l-818 -1227h-235v1434h86v-1024l-4 -203h4zM733 1815q203 0 306.5 51.5t103.5 148.5v31h86v-31q0 -208 -132 -323t-364 -115q-233 0 -364 115t-131 323v31h86v-31q0 -97 105 -148.5t304 -51.5z" />
    <glyph glyph-name="uni041A" unicode="&#x41a;" horiz-adv-x="1316" 
d="M164 0v1434h86v-562h186l453 562h309l-573 -711l622 -723h-135l-555 635h-307v-635h-86z" />
    <glyph glyph-name="uni041B" unicode="&#x41b;" horiz-adv-x="1425" 
d="M137 233q36 0 57.5 2.5t47 13t39.5 31t25 58t13 92.5l39 1004h904v-1434h-86v1196h-752l-27 -766q-4 -119 -17.5 -200.5t-32.5 -129t-53 -72.5t-68 -32.5t-89 -7.5h-59v245h59z" />
    <glyph glyph-name="uni041C" unicode="&#x41c;" horiz-adv-x="1789" 
d="M1626 1434v-1434h-86v1024l2 223h-6l-514 -981h-100l-508 981h-8l4 -223v-1024h-246v1434h260l473 -916h4l473 916h252z" />
    <glyph glyph-name="uni041D" unicode="&#x41d;" horiz-adv-x="1413" 
d="M1249 0h-86v612h-913v-612h-86v1434h86v-584h913v584h86v-1434z" />
    <glyph glyph-name="uni041E" unicode="&#x41e;" horiz-adv-x="1462" 
d="M1278 717q0 237 -142 370.5t-405 133.5t-405 -133.5t-142 -370.5t142 -370.5t405 -133.5t405 133.5t142 370.5zM106 717q0 350 165.5 545.5t459.5 195.5t459.5 -195.5t165.5 -545.5t-165.5 -546t-459.5 -196t-459.5 196t-165.5 546z" />
    <glyph glyph-name="uni041F" unicode="&#x41f;" horiz-adv-x="1417" 
d="M1253 0h-86v1196h-917v-1196h-86v1434h1089v-1434z" />
    <glyph glyph-name="uni0420" unicode="&#x420;" horiz-adv-x="1228" 
d="M666 1196h-416v-401h416q183 0 280.5 52t97.5 148t-97.5 148.5t-280.5 52.5zM164 1434h502q221 0 342.5 -115.5t121.5 -323.5q0 -207 -121.5 -322.5t-342.5 -115.5h-416v-557h-86v1434z" />
    <glyph glyph-name="uni0421" unicode="&#x421;" horiz-adv-x="1431" 
d="M1319 854h-86v31q0 158 -143 247t-359 89q-258 0 -398 -133.5t-140 -370.5t140 -370.5t398 -133.5q140 0 252.5 41t181 123.5t68.5 193.5v37h88v-37q0 -186 -78.5 -322.5t-210.5 -205t-301 -68.5q-294 0 -459.5 196t-165.5 546t165.5 545.5t459.5 195.5q124 0 231 -38.5
t186.5 -110t125 -181t45.5 -243.5v-31z" />
    <glyph glyph-name="uni0422" unicode="&#x422;" horiz-adv-x="1177" 
d="M47 1196v238h1086v-238h-500v-1196h-86v1196h-500z" />
    <glyph glyph-name="uni0423" unicode="&#x423;" horiz-adv-x="1193" 
d="M135 1434l338 -590l80 -156h6l70 156l274 590h260l-461 -992q-51 -109 -86.5 -178t-73 -122.5t-66.5 -80.5t-71 -44t-81 -21t-103 -4h-33v237h33q42 0 67 1t63 5t62.5 12t55.5 23.5t53.5 38t46 56t41.5 77.5l-569 992h94z" />
    <glyph glyph-name="uni0424" unicode="&#x424;" horiz-adv-x="1732" 
d="M86 778q0 286 163 452.5t423 166.5h151v139h86v-139h152q260 0 423 -167t163 -452q0 -286 -163 -452t-423 -166h-152v-160h-86v160h-151q-260 0 -423 166.5t-163 451.5zM1561 778q0 117 -69 205t-181.5 132t-249.5 44h-154v-762h154q137 0 249.5 44.5t181.5 132.5t69 204
zM172 778q0 -117 69 -205t181.5 -132t249.5 -44h153v762h-153q-137 0 -249.5 -44.5t-181.5 -132.5t-69 -204z" />
    <glyph glyph-name="uni0425" unicode="&#x425;" horiz-adv-x="1327" 
d="M928 1434h280l-434 -756l467 -678h-106l-310 453l-98 151h-8l-82 -151l-264 -453h-287l469 799l-436 635h104l281 -410l98 -152h8l82 152z" />
    <glyph glyph-name="uni0426" unicode="&#x426;" horiz-adv-x="1488" 
d="M1329 0h-1165v1434h86v-1196h917v1196h86v-1196h162v-646h-86v408z" />
    <glyph glyph-name="uni0427" unicode="&#x427;" horiz-adv-x="1320" 
d="M379 799h692v635h86v-1434h-86v561h-692q-66 0 -116.5 22.5t-80.5 58.5t-48.5 89t-25 106.5t-6.5 118.5v478h86v-478q0 -32 6.5 -56.5t25.5 -49t59 -38t100 -13.5z" />
    <glyph glyph-name="uni0428" unicode="&#x428;" horiz-adv-x="1933" 
d="M1683 1434h86v-1434h-1605v1434h86v-1196h674v1196h86v-1196h673v1196z" />
    <glyph glyph-name="uni0429" unicode="&#x429;" horiz-adv-x="2004" 
d="M1845 0h-1681v1434h86v-1196h674v1196h86v-1196h673v1196h86v-1196h162v-646h-86v408z" />
    <glyph glyph-name="uni042A" unicode="&#x42a;" horiz-adv-x="1474" 
d="M911 238q184 0 281.5 52t97.5 148t-98 148.5t-281 52.5h-415v-401h415zM496 1434v-557h415q221 0 343 -116t122 -323t-122 -322.5t-343 -115.5h-501v1196h-363v238h449z" />
    <glyph glyph-name="uni042B" unicode="&#x42b;" horiz-adv-x="1708" 
d="M164 0v1434h86v-557h416q221 0 342.5 -115.5t121.5 -323.5q0 -207 -121.5 -322.5t-342.5 -115.5h-502zM666 238q183 0 280.5 52t97.5 148t-97.5 148.5t-280.5 52.5h-416v-401h416zM1544 1434v-1434h-86v1434h86z" />
    <glyph glyph-name="uni042C" unicode="&#x42c;" horiz-adv-x="1228" 
d="M164 0v1434h86v-557h416q221 0 342.5 -115.5t121.5 -323.5q0 -207 -121.5 -322.5t-342.5 -115.5h-502zM666 238q183 0 280.5 52t97.5 148t-97.5 148.5t-280.5 52.5h-416v-401h416z" />
    <glyph glyph-name="uni042D" unicode="&#x42d;" horiz-adv-x="1431" 
d="M700 1221q-140 0 -251.5 -37.5t-179.5 -115t-68 -183.5v-31h-86v31q0 179 78.5 310.5t209.5 197t297 65.5q293 0 459 -196t166 -545t-166 -545.5t-459 -196.5q-169 0 -301 68.5t-210 205t-78 322.5v37h88v-37q0 -111 68 -193.5t180.5 -123.5t252.5 -41q226 0 364 105
t167 294h-869v238h865q-37 176 -173 273.5t-354 97.5z" />
    <glyph glyph-name="uni042E" unicode="&#x42e;" horiz-adv-x="1925" 
d="M1210 -25q-263 0 -421 167t-183 470h-356v-612h-86v1434h86v-584h358q31 290 188 449t414 159q286 0 447.5 -195.5t161.5 -545.5t-161.5 -546t-447.5 -196zM1210 213q245 0 384 134.5t139 369.5t-139 369.5t-384 134.5q-251 0 -386.5 -133.5t-135.5 -370.5t135.5 -370.5
t386.5 -133.5z" />
    <glyph glyph-name="uni042F" unicode="&#x42f;" horiz-adv-x="1320" 
d="M129 987q0 212 123 329.5t346 117.5h559v-1434h-86v541h-473h-39l-342 -541h-102l348 553q-161 34 -247.5 145.5t-86.5 288.5zM215 987q0 -100 99 -154.5t284 -54.5h473v418h-473q-185 0 -284 -54.5t-99 -154.5z" />
    <glyph glyph-name="uni0430" unicode="&#x430;" horiz-adv-x="1138" 
d="M567 1042q194 0 305 -85.5t111 -235.5v-721h-84v248q-46 -123 -162.5 -194.5t-290.5 -71.5q-153 0 -240 84t-87 233q0 146 87 227.5t240 81.5h453v113q0 92 -332 92q-334 0 -334 -92v-25h-83v25q0 151 111 236t306 85zM203 307q0 -47 66 -71.5t188 -24.5q442 0 442 192
h-442q-254 0 -254 -96z" />
    <glyph glyph-name="uni0431" unicode="&#x431;" horiz-adv-x="1177" 
d="M608 -18q-234 0 -361.5 130t-127.5 359v494q0 122 23.5 208t69.5 136t107 72t144 22h334q107 0 148.5 27t41.5 88v16h84v-131q0 -120 -64 -174.5t-210 -54.5h-334q-145 0 -204.5 -47t-59.5 -162v-287q80 283 424 283q230 0 351.5 -130t121.5 -360t-126.5 -359.5
t-361.5 -129.5zM608 729q-202 0 -303.5 -66.5t-101.5 -191.5q4 -138 101 -199t304 -61q209 0 307.5 61t98.5 199q0 135 -99 196.5t-307 61.5z" />
    <glyph glyph-name="uni0432" unicode="&#x432;" horiz-adv-x="1103" 
d="M985 313q0 -147 -98 -230t-277 -83h-446v1024h446q180 0 269.5 -79t89.5 -226q0 -128 -92 -199q108 -73 108 -207zM901 313q0 48 -73.5 75.5t-213.5 27.5h-366v-205h366q287 0 287 102zM885 719q0 47 -63 70.5t-208 23.5h-366v-188h366q145 0 208 23.5t63 70.5z" />
    <glyph glyph-name="uni0433" unicode="&#x433;" horiz-adv-x="876" 
d="M838 1024v-229h-590v-795h-84v1024h674z" />
    <glyph glyph-name="uni0434" unicode="&#x434;" horiz-adv-x="1234" 
d="M176 229q30 69 49 188.5t27 377.5l8 229h778v-795h123v-534h-84v305h-940v-305h-84v534h123zM334 795q-8 -257 -26.5 -377.5t-49.5 -188.5h696v566h-620z" />
    <glyph glyph-name="uni0435" unicode="&#x435;" horiz-adv-x="1118" 
d="M82 512q0 248 126.5 389t362.5 141q216 0 336.5 -118.5t120.5 -333.5v-150h-864q20 -120 117.5 -173.5t289.5 -53.5q175 0 268 29.5t93 81.5v8h84v-8q0 -152 -122.5 -247t-322.5 -95q-236 0 -362.5 140.5t-126.5 389.5zM571 811q-369 0 -407 -168h788q0 54 -53 92.5
t-138 57t-190 18.5z" />
    <glyph glyph-name="uni0436" unicode="&#x436;" horiz-adv-x="1591" 
d="M756 406h-82l-361 -406h-245l477 535l-455 489h111l362 -389h193v389h82v-389h53l360 389h252l-454 -489l477 -535h-111l-360 406h-217v-406h-82v406z" />
    <glyph glyph-name="uni0437" unicode="&#x437;" horiz-adv-x="1101" 
d="M983 317q0 -147 -110 -241t-326 -94q-215 0 -325.5 94t-110.5 241v62h82v-62q0 -32 28.5 -53.5t109.5 -36t216 -14.5t215.5 14.5t108.5 36t28 53.5q0 21 -14.5 36t-49 28t-100.5 20t-162 7h-137v229h135q122 0 193.5 10t97 27t25.5 43q0 31 -26.5 50.5t-103.5 31.5
t-210 12q-100 0 -167.5 -6.5t-104 -19.5t-51.5 -29t-15 -39v-53h-84v53q0 143 106.5 234t315.5 91t315.5 -91t106.5 -234q0 -83 -56 -130.5t-176 -64.5q125 -19 185.5 -69.5t60.5 -135.5z" />
    <glyph glyph-name="uni0438" unicode="&#x438;" horiz-adv-x="1255" 
d="M248 1024v-733h6l721 733h117v-1024h-84v731h-7l-720 -731h-117v1024h84z" />
    <glyph glyph-name="uni0439" unicode="&#x439;" horiz-adv-x="1255" 
d="M248 1024v-733h6l721 733h117v-1024h-84v731h-7l-720 -731h-117v1024h84zM627 1376q327 0 327 137v23h84v-23q0 -166 -110 -259t-301 -93q-190 0 -300 93t-110 259v23h84v-23q0 -66 83.5 -101.5t242.5 -35.5z" />
    <glyph glyph-name="uni043A" unicode="&#x43a;" horiz-adv-x="1116" 
d="M248 0h-84v1024h84v-387h151l379 387h258l-491 -500l518 -524h-125l-403 408h-287v-408z" />
    <glyph glyph-name="uni043B" unicode="&#x43b;" horiz-adv-x="1189" 
d="M276 1024h750v-1024h-84v795h-604l-16 -398q-7 -176 -26.5 -264.5t-49.5 -114.5t-88 -26h-80v237h80q21 0 34.5 5t27 21t21 52t9.5 92z" />
    <glyph glyph-name="uni043C" unicode="&#x43c;" horiz-adv-x="1529" 
d="M1366 1024v-1024h-82v621l14 229h-4l-417 -657h-82l-418 657h-4l14 -229v-621h-223v1024h215l383 -600h4l385 600h215z" />
    <glyph glyph-name="uni043D" unicode="&#x43d;" horiz-adv-x="1212" 
d="M1049 0h-82v408h-719v-408h-84v1024h84v-387h719v387h82v-1024z" />
    <glyph glyph-name="uni043E" unicode="&#x43e;" horiz-adv-x="1140" 
d="M571 1042q235 0 361.5 -141t126.5 -389q0 -249 -126.5 -389.5t-361.5 -140.5q-236 0 -362.5 140.5t-126.5 389.5q0 248 126.5 389t362.5 141zM571 213q214 0 313 71.5t99 227.5q0 155 -99 227t-313 72q-216 0 -314.5 -71.5t-98.5 -227.5q0 -157 98 -228t315 -71z" />
    <glyph glyph-name="uni043F" unicode="&#x43f;" horiz-adv-x="1212" 
d="M1049 0h-82v795h-719v-795h-84v1024h885v-1024z" />
    <glyph glyph-name="uni0440" unicode="&#x440;" horiz-adv-x="1214" 
d="M250 782q79 260 412 260q227 0 349 -140.5t122 -389.5q0 -248 -122 -389t-349 -141q-333 0 -412 260v-754h-84v1536h84v-242zM647 811q-195 0 -296 -64t-101 -184v-102q0 -120 101 -184t296 -64q211 0 306.5 70.5t95.5 228.5q0 159 -95 229t-307 70z" />
    <glyph glyph-name="uni0441" unicode="&#x441;" horiz-adv-x="1118" 
d="M571 811q-216 0 -314.5 -71.5t-98.5 -227.5q0 -157 98 -228t315 -71q185 0 282 49.5t97 138.5v17h82v-17q0 -188 -125.5 -303.5t-335.5 -115.5q-236 0 -362.5 140.5t-126.5 389.5q0 248 126.5 389t362.5 141q211 0 336 -109t125 -290v-16h-82v16q0 78 -97.5 123
t-281.5 45z" />
    <glyph glyph-name="uni0442" unicode="&#x442;" horiz-adv-x="888" 
d="M41 795v229h807v-229h-363v-795h-82v795h-362z" />
    <glyph glyph-name="uni0443" unicode="&#x443;" horiz-adv-x="1044" 
d="M1020 1024l-453 -1133q-69 -171 -122.5 -259t-109.5 -123t-138 -35h-47v229h47q117 0 185 40t107 148l41 109l-493 1024h88l285 -588l69 -162h6l56 162l233 588h246z" />
    <glyph glyph-name="uni0444" unicode="&#x444;" horiz-adv-x="1482" 
d="M924 0h-142v-512h-84v512h-141q-235 0 -356 133.5t-121 378.5t121 378.5t356 133.5h141v512h84v-512h142q231 0 354 -134t123 -378t-123 -378t-354 -134zM557 229h145v566h-145q-192 0 -293.5 -74t-101.5 -209t101.5 -209t293.5 -74zM924 795h-146v-566h146
q186 0 290.5 75t104.5 208t-104.5 208t-290.5 75z" />
    <glyph glyph-name="uni0445" unicode="&#x445;" horiz-adv-x="1083" 
d="M999 1024l-356 -547l383 -477h-102l-252 313l-80 111h-4l-62 -111l-202 -313h-267l381 582l-354 442h102l226 -283l75 -102h5l57 102l184 283h266z" />
    <glyph glyph-name="uni0446" unicode="&#x446;" horiz-adv-x="1245" 
d="M1171 -305h-81v305h-926v1024h84v-795h719v795h82v-795h122v-534z" />
    <glyph glyph-name="uni0447" unicode="&#x447;" horiz-adv-x="1110" 
d="M381 575h481v449h84v-1024h-84v346h-481q-77 0 -133 27.5t-85.5 76t-43 105t-13.5 123.5v346h84v-346q0 -42 44.5 -72.5t146.5 -30.5z" />
    <glyph glyph-name="uni0448" unicode="&#x448;" horiz-adv-x="1662" 
d="M1417 1024h82v-1024h-1335v1024h82v-795h545v795h81v-795h545v795z" />
    <glyph glyph-name="uni0449" unicode="&#x449;" horiz-adv-x="1695" 
d="M1622 -305h-82v305h-1376v1024h82v-795h545v795h81v-795h545v795h82v-795h123v-534z" />
    <glyph glyph-name="uni044A" unicode="&#x44a;" horiz-adv-x="1150" 
d="M252 795h-238v229h322v-303h362q186 0 280.5 -94t94.5 -267q0 -171 -95 -265.5t-280 -94.5h-446v795zM336 229h362q291 0 291 131q0 132 -291 132h-362v-263z" />
    <glyph glyph-name="uni044B" unicode="&#x44b;" horiz-adv-x="1521" 
d="M248 721h362q186 0 280.5 -94t94.5 -267q0 -171 -95 -265.5t-280 -94.5h-446v1024h84v-303zM248 229h362q291 0 291 131q0 132 -291 132h-362v-263zM1358 1024v-1024h-84v1024h84z" />
    <glyph glyph-name="uni044C" unicode="&#x44c;" horiz-adv-x="1062" 
d="M248 721h362q186 0 280.5 -94t94.5 -267q0 -171 -95 -265.5t-280 -94.5h-446v1024h84v-303zM248 229h362q291 0 291 131q0 132 -291 132h-362v-263z" />
    <glyph glyph-name="uni044D" unicode="&#x44d;" horiz-adv-x="1134" 
d="M948 633q-65 178 -393 178q-186 0 -286.5 -45t-100.5 -123v-16h-82v16q0 181 127.5 290t341.5 109q239 0 368.5 -141t129.5 -389q0 -249 -129.5 -389.5t-368.5 -140.5q-214 0 -341.5 115.5t-127.5 303.5v17h82v-17q0 -89 100 -138.5t287 -49.5q174 0 273 48.5t128 150.5
h-667v221h659z" />
    <glyph glyph-name="uni044E" unicode="&#x44e;" horiz-adv-x="1628" 
d="M594 633q28 196 148.5 302.5t324.5 106.5q234 0 356.5 -139t122.5 -391q0 -253 -122.5 -391.5t-356.5 -138.5q-209 0 -329.5 109t-145.5 312h-344v-403h-84v1024h84v-391h346zM670 512q0 -144 101 -221.5t296 -77.5q191 0 294 78t103 221q0 142 -103 220.5t-294 78.5
q-194 0 -295.5 -78t-101.5 -221z" />
    <glyph glyph-name="uni044F" unicode="&#x44f;" horiz-adv-x="1105" 
d="M121 664q0 171 95 265.5t280 94.5h446v-1024h-84v324h-426l-221 -324h-100l237 350q-227 48 -227 314zM203 664q0 -64 74 -98t219 -34h362v263h-362q-144 0 -218.5 -34.5t-74.5 -96.5z" />
    <glyph glyph-name="uni0451" unicode="&#x451;" horiz-adv-x="1118" 
d="M82 512q0 248 126.5 389t362.5 141q216 0 336.5 -118.5t120.5 -333.5v-150h-864q20 -120 117.5 -173.5t289.5 -53.5q175 0 268 29.5t93 81.5v8h84v-8q0 -152 -122.5 -247t-322.5 -95q-236 0 -362.5 140.5t-126.5 389.5zM571 811q-369 0 -407 -168h788q0 54 -53 92.5
t-138 57t-190 18.5zM915 1358q0 -70 -40 -110t-111 -40q-70 0 -110 40t-40 110t39.5 109.5t110.5 39.5t111 -39.5t40 -109.5zM451 1358q0 -70 -40.5 -110t-111.5 -40q-70 0 -109.5 39.5t-39.5 110.5q0 70 39 109.5t110 39.5t111.5 -39.5t40.5 -109.5z" />
    <glyph glyph-name="uni0452" unicode="&#x452;" 
d="M629 1042q207 0 313.5 -106.5t106.5 -312.5v-744q0 -206 -101.5 -305.5t-308.5 -99.5h-49v229h49q168 0 248 43t80 133v744q0 94 -90 142t-263 48q-180 0 -273 -64.5t-93 -185.5v-563h-84v1178h-123v206h123v152h84v-152h448v-206h-448v-392q80 256 381 256z" />
    <glyph glyph-name="uni0453" unicode="&#x453;" horiz-adv-x="876" 
d="M838 1024v-229h-590v-795h-84v1024h674zM500 1182l80 354h258l-273 -354h-65z" />
    <glyph glyph-name="uni0454" unicode="&#x454;" horiz-adv-x="1134" 
d="M967 643q0 78 -100.5 123t-286.5 45q-329 0 -394 -178h660v-221h-668q29 -102 128 -150.5t274 -48.5q187 0 287 49.5t100 138.5v17h82v-17q0 -188 -127.5 -303.5t-341.5 -115.5q-240 0 -369 140.5t-129 389.5q0 248 129 389t369 141q214 0 341.5 -109t127.5 -290v-16h-82
v16z" />
    <glyph glyph-name="uni0455" unicode="&#x455;" horiz-adv-x="1058" 
d="M862 328q0 51 -42 81.5t-109 41.5t-148 17t-162 15.5t-148 29t-109 65t-42 116.5q0 70 25 131.5t74.5 110.5t131 77.5t185.5 28.5q194 0 305 -92.5t111 -255.5v-10h-84v10q0 70 -77 93.5t-255 23.5q-133 0 -206 -12.5t-100.5 -37t-27.5 -67.5q0 -51 42 -81.5t109 -41.5
t148 -17t162 -15.5t148 -29t109 -65t42 -116.5q0 -69 -25.5 -129.5t-75.5 -110t-134.5 -78t-192.5 -28.5q-195 0 -310.5 95.5t-115.5 250.5v26h84v-26q0 -66 81.5 -90.5t260.5 -24.5q194 0 270 28.5t76 86.5z" />
    <glyph glyph-name="uni0456" unicode="&#x456;" horiz-adv-x="432" 
d="M258 1024v-1024h-84v1024h84zM215 1208q-76 0 -117 39.5t-41 110.5t41 110t117 39q75 0 116.5 -39t41.5 -110q0 -70 -43.5 -110t-114.5 -40z" />
    <glyph glyph-name="uni0457" unicode="&#x457;" horiz-adv-x="432" 
d="M258 1024v-1024h-84v1024h84zM51 1208q-76 0 -116.5 39.5t-40.5 110.5t40.5 110t116.5 39q75 0 116.5 -39t41.5 -110q0 -70 -43.5 -110t-114.5 -40zM383 1208q-76 0 -117 39.5t-41 110.5t41 110t117 39q75 0 116.5 -39t41.5 -110q0 -70 -43.5 -110t-114.5 -40z" />
    <glyph glyph-name="uni0458" unicode="&#x458;" horiz-adv-x="411" 
d="M-338 -152h82q0 -145 211 -145q103 0 157 40t54 116v1165h82v-1186q0 -171 -77 -267.5t-216 -96.5q-138 0 -215.5 101t-77.5 273zM199 1208q-76 0 -117 39.5t-41 110.5t41 110t117 39q75 0 116 -39t41 -110q0 -70 -43 -110t-114 -40z" />
    <glyph glyph-name="uni0459" unicode="&#x459;" horiz-adv-x="1630" 
d="M920 229h256q301 0 301 131q0 132 -301 132h-256v-263zM836 0v795h-498l-16 -398q-7 -176 -26.5 -264.5t-49.5 -114.5t-88 -26h-80v237h80q21 0 34.5 5t27 21t21 52t9.5 92l26 625h644v-303h256q187 0 281.5 -94t94.5 -267q0 -171 -94.5 -265.5t-281.5 -94.5h-340z" />
    <glyph glyph-name="uni045A" unicode="&#x45a;" horiz-adv-x="1652" 
d="M942 229h256q301 0 301 88q0 91 -301 91h-256v-179zM860 0v408h-612v-408h-84v1024h84v-387h612v387h82v-387h256q188 0 282.5 -82.5t94.5 -237.5q0 -151 -95 -234t-282 -83h-338z" />
    <glyph glyph-name="uni045B" unicode="&#x45b;" 
d="M248 786q80 256 381 256q207 0 313.5 -106.5t106.5 -312.5v-623h-82v623q0 94 -90 142t-263 48q-180 0 -273 -64.5t-93 -185.5v-563h-84v1178h-123v206h123v152h84v-152h448v-206h-448v-392z" />
    <glyph glyph-name="uni045C" unicode="&#x45c;" horiz-adv-x="1116" 
d="M248 0h-84v1024h84v-387h151l379 387h258l-491 -500l518 -524h-125l-403 408h-287v-408zM539 1182h-66l80 354h258z" />
    <glyph glyph-name="uni045E" unicode="&#x45e;" horiz-adv-x="1044" 
d="M1020 1024l-453 -1133q-69 -171 -122.5 -259t-109.5 -123t-138 -35h-47v229h47q117 0 185 40t107 148l41 109l-493 1024h88l285 -588l69 -162h6l56 162l233 588h246zM528 1376q328 0 328 137v23h84v-23q0 -166 -110.5 -259t-301.5 -93q-190 0 -299.5 93t-109.5 259v23h84
v-23q0 -66 83 -101.5t242 -35.5z" />
    <glyph glyph-name="uni045F" unicode="&#x45f;" horiz-adv-x="1212" 
d="M649 0v-305h-84v305h-401v1024h84v-795h719v795h82v-1024h-400z" />
    <glyph glyph-name="uni0490" unicode="&#x490;" horiz-adv-x="1075" 
d="M164 1434h801v407h86v-645h-801v-1196h-86v1434z" />
    <glyph glyph-name="uni0491" unicode="&#x491;" horiz-adv-x="876" 
d="M164 1024h592v305h82v-534h-590v-795h-84v1024z" />
    <glyph glyph-name="uni0492" unicode="&#x492;" horiz-adv-x="1083" 
d="M172 610h-158v238h158v586h887v-238h-801v-348h561v-238h-561v-610h-86v610z" />
    <glyph glyph-name="uni0493" unicode="&#x493;" horiz-adv-x="876" 
d="M651 573v-229h-403v-344h-84v344h-119v229h119v451h674v-229h-590v-222h403z" />
    <glyph glyph-name="uni0496" unicode="&#x496;" horiz-adv-x="2050" 
d="M1565 1434h309l-545 -676l408 -520h252v-646h-86v408h-95l-497 635h-279v-635h-86v635h-82l-499 -635h-312l594 758l-545 676h115l455 -562h274v562h86v-562h80z" />
    <glyph glyph-name="uni0497" unicode="&#x497;" horiz-adv-x="1634" 
d="M756 406h-82l-361 -406h-245l477 535l-455 489h111l362 -389h193v389h82v-389h53l360 389h252l-454 -489l272 -306h266v-534h-82v305h-90l-360 406h-217v-406h-82v406z" />
    <glyph glyph-name="uni0498" unicode="&#x498;" horiz-adv-x="1247" 
d="M578 -25q-223 11 -348.5 126t-125.5 313v104h86v-104q0 -97 110.5 -149t320.5 -52t320 52t110 149q0 198 -351 198h-243v238h243q106 0 173 11.5t100 37t44 55.5t11 78q0 89 -103.5 139t-303.5 50q-210 0 -319 -50t-109 -139v-108h-87v108q0 201 135.5 313.5t379.5 112.5
q233 0 363 -112.5t130 -313.5q0 -130 -66 -203t-227 -92q316 -47 316 -323q0 -199 -123.5 -313.5t-349.5 -125.5v-383h-86v383z" />
    <glyph glyph-name="uni0499" unicode="&#x499;" horiz-adv-x="1101" 
d="M899 317q0 21 -14.5 36t-49 28t-100.5 20t-162 7h-137v229h135q122 0 193.5 10t97 27t25.5 43q0 31 -26.5 50.5t-103.5 31.5t-210 12q-100 0 -167.5 -6.5t-104 -19.5t-51.5 -29t-15 -39v-53h-84v53q0 143 106.5 234t315.5 91t315.5 -91t106.5 -234q0 -83 -56 -130.5
t-176 -64.5q125 -19 185.5 -69.5t60.5 -135.5q0 -144 -103.5 -236.5t-308.5 -98.5v-287h-84v289q-186 13 -281 104.5t-95 228.5v62h82v-62q0 -32 28.5 -53.5t109.5 -36t216 -14.5t215.5 14.5t108.5 36t28 53.5z" />
    <glyph glyph-name="uni049A" unicode="&#x49a;" horiz-adv-x="1353" 
d="M164 0v1434h86v-562h186l453 562h309l-573 -711l417 -485h250v-646h-86v408h-94l-555 635h-307v-635h-86z" />
    <glyph glyph-name="uni049B" unicode="&#x49b;" horiz-adv-x="1112" 
d="M248 0h-84v1024h84v-387h151l379 387h258l-491 -500l291 -295h297v-534h-82v305h-113l-403 408h-287v-408z" />
    <glyph glyph-name="uni049C" unicode="&#x49c;" horiz-adv-x="1316" 
d="M313 1108h86v-236h37l453 562h309l-573 -711l622 -723h-135l-555 635h-158v-277h-86v277h-63v-635h-86v1434h86v-562h63v236z" />
    <glyph glyph-name="uni049D" unicode="&#x49d;" horiz-adv-x="1116" 
d="M375 164h-84v244h-43v-408h-84v1024h84v-387h43v223h84v-223h24l379 387h258l-491 -500l518 -524h-94l-404 408h-190v-244z" />
    <glyph glyph-name="uni04A0" unicode="&#x4a0;" horiz-adv-x="1533" 
d="M1106 1434h309l-573 -711l622 -723h-135l-555 635h-307v-635h-86v1196h-332l-2 238h420v-562h186z" />
    <glyph glyph-name="uni04A1" unicode="&#x4a1;" 
d="M866 1024h258l-491 -500l518 -524h-94l-404 408h-317v-408h-84v795h-238v229h322v-387h151z" />
    <glyph glyph-name="uni04A2" unicode="&#x4a2;" horiz-adv-x="1484" 
d="M1249 238h162v-646h-86v408h-162v612h-913v-612h-86v1434h86v-584h913v584h86v-1196z" />
    <glyph glyph-name="uni04A3" unicode="&#x4a3;" horiz-adv-x="1245" 
d="M1049 1024v-795h122v-534h-81v305h-123v408h-719v-408h-84v1024h84v-387h719v387h82z" />
    <glyph glyph-name="uni04AA" unicode="&#x4aa;" horiz-adv-x="1431" 
d="M1321 571q0 -133 -41.5 -242.5t-114.5 -184t-172.5 -118t-216.5 -51.5v-383h-86v383q-276 15 -430 210t-154 532q0 350 165.5 545.5t459.5 195.5q124 0 231 -38.5t186.5 -110t125 -181t45.5 -243.5v-31h-86v31q0 158 -143 247t-359 89q-258 0 -398 -133.5t-140 -370.5
t140 -370.5t398 -133.5q140 0 252.5 41t181 123.5t68.5 193.5v37h88v-37z" />
    <glyph glyph-name="uni04AB" unicode="&#x4ab;" horiz-adv-x="1118" 
d="M950 643q0 78 -97.5 123t-281.5 45q-216 0 -314.5 -71.5t-98.5 -227.5q0 -157 98 -228t315 -71q185 0 282 49.5t97 138.5v17h82v-17q0 -181 -117 -295.5t-315 -123.5v-287h-84v289q-211 17 -322.5 155.5t-111.5 372.5q0 248 126.5 389t362.5 141q211 0 336 -109t125 -290
v-16h-82v16z" />
    <glyph glyph-name="uni04AE" unicode="&#x4ae;" horiz-adv-x="1193" 
d="M555 0v422l-514 1012h92l299 -590l80 -176h4l78 176l299 590h260l-512 -1012v-422h-86z" />
    <glyph glyph-name="uni04AF" unicode="&#x4af;" horiz-adv-x="1044" 
d="M479 -512v512l-446 1024h84l325 -748h4l68 181l250 567h248l-449 -1024v-512h-84z" />
    <glyph glyph-name="uni04B0" unicode="&#x4b0;" horiz-adv-x="1193" 
d="M1153 1434l-512 -1012v-70h360v-237h-360v-115h-86v115h-360v237h360v70l-514 1012h92l299 -590l80 -176h4l78 176l299 590h260z" />
    <glyph glyph-name="uni04B1" unicode="&#x4b1;" horiz-adv-x="1044" 
d="M479 -82v82l-446 1024h84l325 -748h4l68 181l250 567h248l-449 -1024v-82h328v-229h-328v-201h-84v201h-325v229h325z" />
    <glyph glyph-name="uni04B2" unicode="&#x4b2;" horiz-adv-x="1376" 
d="M555 799l-436 635h104l281 -410l98 -152h8l82 152l236 410h280l-434 -756l303 -440h238v-646h-86v408h-94l-310 453l-98 151h-8l-82 -151l-264 -453h-287z" />
    <glyph glyph-name="uni04B3" unicode="&#x4b3;" horiz-adv-x="1128" 
d="M733 1024h266l-356 -547l199 -248h245v-534h-81v305h-82l-252 313l-80 111h-4l-62 -111l-202 -313h-267l381 582l-354 442h102l226 -283l75 -102h5l57 102z" />
    <glyph glyph-name="uni04B6" unicode="&#x4b6;" horiz-adv-x="1392" 
d="M102 1434h86v-478q0 -32 6.5 -56.5t25.5 -49t59 -38t100 -13.5h692v635h86v-1196h162v-646h-86v408h-162v561h-692q-66 0 -116.5 22.5t-80.5 58.5t-48.5 89t-25 106.5t-6.5 118.5v478z" />
    <glyph glyph-name="uni04B7" unicode="&#x4b7;" horiz-adv-x="1140" 
d="M190 678q0 -42 44.5 -72.5t146.5 -30.5h481v449h84v-795h121v-534h-82v305h-123v346h-481q-77 0 -133 27.5t-85.5 76t-43 105t-13.5 123.5v346h84v-346z" />
    <glyph glyph-name="uni04BA" unicode="&#x4ba;" horiz-adv-x="1320" 
d="M942 635h-692v-635h-86v1434h86v-562h692q66 0 116.5 -22.5t80.5 -58.5t48.5 -89t25 -106.5t6.5 -118.5v-477h-86v477q0 32 -6.5 56.5t-25.5 49.5t-59 38.5t-100 13.5z" />
    <glyph glyph-name="uni04BB" unicode="&#x4bb;" 
d="M248 786q80 256 381 256q207 0 313.5 -106.5t106.5 -312.5v-623h-82v623q0 94 -90 142t-263 48q-180 0 -273 -64.5t-93 -185.5v-563h-84v1536h84v-750z" />
    <glyph glyph-name="uni04C0" unicode="&#x4c0;" horiz-adv-x="413" 
d="M250 0h-86v1434h86v-1434z" />
    <glyph glyph-name="uni04C1" unicode="&#x4c1;" horiz-adv-x="1978" 
d="M1565 1434h309l-545 -676l594 -758h-115l-497 635h-279v-635h-86v635h-82l-499 -635h-312l594 758l-545 676h115l455 -562h274v562h86v-562h80zM578 2015q0 -97 105 -148.5t304 -51.5q203 0 306.5 51.5t103.5 148.5v31h86v-31q0 -208 -132 -323t-364 -115
q-233 0 -364 115t-131 323v31h86v-31z" />
    <glyph glyph-name="uni04C2" unicode="&#x4c2;" horiz-adv-x="1591" 
d="M756 406h-82l-361 -406h-245l477 535l-455 489h111l362 -389h193v389h82v-389h53l360 389h252l-454 -489l477 -535h-111l-360 406h-217v-406h-82v406zM471 1513q0 -66 83.5 -101.5t242.5 -35.5q327 0 327 137v23h84v-23q0 -166 -110 -259t-301 -93q-190 0 -300 93
t-110 259v23h84v-23z" />
    <glyph glyph-name="uni04CF" unicode="&#x4cf;" horiz-adv-x="411" 
d="M248 1536v-1536h-84v1536h84z" />
    <glyph glyph-name="uni04D8" unicode="&#x4d8;" horiz-adv-x="1431" 
d="M700 -25q-127 0 -232 34.5t-186 104.5t-126 186.5t-45 270.5v279h1120q-15 106 -57 179t-111.5 114.5t-157 59.5t-205.5 18q-228 0 -364.5 -66.5t-136.5 -167.5v-31h-86v31q0 210 163.5 340.5t423.5 130.5q150 0 262.5 -39t195.5 -125t125 -230.5t42 -346.5
q0 -373 -163 -557.5t-462 -184.5zM700 213q483 0 533 399h-1034v-41q0 -79 26 -140.5t70.5 -102t109 -67t137 -37.5t158.5 -11z" />
    <glyph glyph-name="uni04D9" unicode="&#x4d9;" horiz-adv-x="1118" 
d="M1036 512q0 -248 -126.5 -389t-362.5 -141q-216 0 -336.5 118.5t-120.5 333.5v150h864q-20 120 -117.5 173.5t-289.5 53.5q-175 0 -268 -29.5t-93 -81.5v-8h-84v8q0 152 122.5 247t322.5 95q236 0 362.5 -140.5t126.5 -389.5zM547 213q369 0 407 168h-788q0 -54 53 -92.5
t138 -57t190 -18.5z" />
    <glyph glyph-name="uni04E2" unicode="&#x4e2;" horiz-adv-x="1466" 
d="M1067 1434h236v-1434h-86v1024l4 203h-4l-818 -1227h-235v1434h86v-1024l-4 -203h4zM1188 1702h-909v237h909v-237z" />
    <glyph glyph-name="uni04E3" unicode="&#x4e3;" horiz-adv-x="1255" 
d="M248 1024v-733h6l721 733h117v-1024h-84v731h-7l-720 -731h-117v1024h84zM1038 1243h-821v230h821v-230z" />
    <glyph glyph-name="uni04E6" unicode="&#x4e6;" horiz-adv-x="1462" 
d="M1278 717q0 237 -142 370.5t-405 133.5t-405 -133.5t-142 -370.5t142 -370.5t405 -133.5t405 133.5t142 370.5zM106 717q0 350 165.5 545.5t459.5 195.5t459.5 -195.5t165.5 -545.5t-165.5 -546t-459.5 -196t-459.5 196t-165.5 546zM1004 1663q-75 0 -116.5 41.5
t-41.5 116.5t41.5 116t116.5 41q74 0 116.5 -41.5t42.5 -115.5q0 -75 -42.5 -116.5t-116.5 -41.5zM457 1663q-75 0 -116.5 41.5t-41.5 116.5t41.5 116t116.5 41q74 0 116.5 -41.5t42.5 -115.5q0 -75 -42.5 -116.5t-116.5 -41.5z" />
    <glyph glyph-name="uni04E7" unicode="&#x4e7;" horiz-adv-x="1140" 
d="M571 1042q235 0 361.5 -141t126.5 -389q0 -249 -126.5 -389.5t-361.5 -140.5q-236 0 -362.5 140.5t-126.5 389.5q0 248 126.5 389t362.5 141zM571 213q214 0 313 71.5t99 227.5q0 155 -99 227t-313 72q-216 0 -314.5 -71.5t-98.5 -227.5q0 -157 98 -228t315 -71z
M336 1208q-70 0 -110 40t-40 110t39.5 109.5t110.5 39.5t111 -39.5t40 -109.5t-40 -110t-111 -40zM801 1208q-71 0 -110.5 40t-39.5 110t39.5 109.5t110.5 39.5t111 -39.5t40 -109.5t-40 -110t-111 -40z" />
    <glyph glyph-name="uni04E8" unicode="&#x4e8;" horiz-adv-x="1462" 
d="M731 -25q-294 0 -459.5 196t-165.5 546t165.5 545.5t459.5 195.5t459.5 -195.5t165.5 -545.5t-165.5 -546t-459.5 -196zM193 608q31 -189 168.5 -292t369.5 -103q231 0 369.5 103.5t169.5 291.5h-1077zM1266 846q-36 179 -173 277t-362 98q-223 0 -360 -98t-174 -277
h1069z" />
    <glyph glyph-name="uni04E9" unicode="&#x4e9;" horiz-adv-x="1140" 
d="M82 512q0 248 126.5 389t362.5 141q235 0 361.5 -141t126.5 -389q0 -249 -126.5 -389.5t-361.5 -140.5q-236 0 -362.5 140.5t-126.5 389.5zM168 416q28 -105 125 -154t278 -49q178 0 276 49t126 154h-805zM571 811q-170 0 -266.5 -44t-130.5 -138h791q-32 93 -129 137.5
t-265 44.5z" />
    <glyph glyph-name="uni04EE" unicode="&#x4ee;" horiz-adv-x="1193" 
d="M147 1434l338 -590l80 -156h6l70 156l274 590h261l-461 -992q-38 -81 -66.5 -138.5t-58 -106.5t-52 -80t-50.5 -55t-51.5 -37t-58 -21t-66.5 -10t-79 -2h-32v237h32q42 0 67 1t63 5t62.5 12t56 23.5t54 38t46 56t41.5 77.5l-570 992h94zM1069 1702h-909v237h909v-237z
" />
    <glyph glyph-name="uni04EF" unicode="&#x4ef;" horiz-adv-x="1044" 
d="M1020 1024l-453 -1133q-69 -171 -122.5 -259t-109.5 -123t-138 -35h-47v229h47q117 0 185 40t107 148l41 109l-493 1024h88l285 -588l69 -162h6l56 162l233 588h246zM940 1243h-821v230h821v-230z" />
    <glyph glyph-name="uni04F2" unicode="&#x4f2;" horiz-adv-x="1193" 
d="M135 1434l338 -590l80 -156h6l70 156l274 590h260l-461 -992q-51 -109 -86.5 -178t-73 -122.5t-66.5 -80.5t-71 -44t-81 -21t-103 -4h-33v237h33q42 0 67 1t63 5t62.5 12t55.5 23.5t53.5 38t46 56t41.5 77.5l-569 992h94zM272 1597h-71l118 449h299zM786 1597h-73
l159 449h299z" />
    <glyph glyph-name="uni04F3" unicode="&#x4f3;" horiz-adv-x="1044" 
d="M1020 1024l-453 -1133q-69 -171 -122.5 -259t-109.5 -123t-138 -35h-47v229h47q117 0 185 40t107 148l41 109l-493 1024h88l285 -588l69 -162h6l56 162l233 588h246zM297 1182h-68l41 354h258zM719 1182h-68l82 354h258z" />
    <glyph glyph-name="Wgrave" unicode="&#x1e80;" horiz-adv-x="2007" 
d="M1962 1434l-365 -1434h-254l-276 1012l-63 270h-5l-59 -270l-276 -1012h-254l-365 1434h88l262 -1024l60 -271h4l63 271l281 1024h237l281 -1024l63 -271h5l59 271l262 1024h252zM1028 1597h-76l-338 449h299z" />
    <glyph glyph-name="wgrave" unicode="&#x1e81;" horiz-adv-x="1579" 
d="M1542 1024l-285 -1024h-178l-241 715l-41 147h-4l-41 -147l-242 -715h-188l-285 1024h74l186 -668l47 -178h4l47 178l232 668h180l225 -668l53 -178h2l41 178l185 668h229zM782 1182h-65l-332 354h258z" />
    <glyph glyph-name="Wacute" unicode="&#x1e82;" horiz-adv-x="2007" 
d="M1962 1434l-365 -1434h-254l-276 1012l-63 270h-5l-59 -270l-276 -1012h-254l-365 1434h88l262 -1024l60 -271h4l63 271l281 1024h237l281 -1024l63 -271h5l59 271l262 1024h252zM913 1597l54 449h299l-277 -449h-76z" />
    <glyph glyph-name="wacute" unicode="&#x1e83;" horiz-adv-x="1579" 
d="M1542 1024l-285 -1024h-178l-241 715l-41 147h-4l-41 -147l-242 -715h-188l-285 1024h74l186 -668l47 -178h4l47 178l232 668h180l225 -668l53 -178h2l41 178l185 668h229zM748 1182l79 354h258l-272 -354h-65z" />
    <glyph glyph-name="Wdieresis" unicode="&#x1e84;" horiz-adv-x="2007" 
d="M1962 1434l-365 -1434h-254l-276 1012l-63 270h-5l-59 -270l-276 -1012h-254l-365 1434h88l262 -1024l60 -271h4l63 271l281 1024h237l281 -1024l63 -271h5l59 271l262 1024h252zM1276 1663q-75 0 -116.5 41.5t-41.5 116.5t41.5 116t116.5 41q74 0 117 -41.5t43 -115.5
t-43 -116t-117 -42zM729 1663q-75 0 -116.5 41.5t-41.5 116.5t41.5 116t116.5 41q74 0 117 -41.5t43 -115.5t-43 -116t-117 -42z" />
    <glyph glyph-name="wdieresis" unicode="&#x1e85;" horiz-adv-x="1579" 
d="M1542 1024l-285 -1024h-178l-241 715l-41 147h-4l-41 -147l-242 -715h-188l-285 1024h74l186 -668l47 -178h4l47 178l232 668h180l225 -668l53 -178h2l41 178l185 668h229zM555 1208q-70 0 -109.5 39.5t-39.5 110.5q0 70 39 109.5t110 39.5t111.5 -39.5t40.5 -109.5
t-40.5 -110t-111.5 -40zM1020 1208q-70 0 -110 40t-40 110t39.5 109.5t110.5 39.5t111 -39.5t40 -109.5t-40 -110t-111 -40z" />
    <glyph glyph-name="Ygrave" unicode="&#x1ef2;" horiz-adv-x="1193" 
d="M555 0v422l-514 1012h92l299 -590l80 -176h4l78 176l299 590h260l-512 -1012v-422h-86zM522 2046l115 -449h-76l-338 449h299z" />
    <glyph glyph-name="ygrave" unicode="&#x1ef3;" horiz-adv-x="1044" 
d="M1024 1024l-453 -1133q-69 -171 -122.5 -259t-109.5 -123t-138 -35h-47v229h47q117 0 185.5 40t107.5 148l41 109l-494 1024h88l285 -588l69 -162h6l56 162l233 588h246zM575 1182h-65l-332 354h258z" />
    <glyph glyph-name="uni2009" unicode="&#x2009;" horiz-adv-x="102" 
 />
    <glyph glyph-name="endash" unicode="&#x2013;" horiz-adv-x="1118" 
d="M82 420v252h954v-252h-954z" />
    <glyph glyph-name="emdash" unicode="&#x2014;" horiz-adv-x="1486" 
d="M61 420v252h1364v-252h-1364z" />
    <glyph glyph-name="quoteleft" unicode="&#x2018;" horiz-adv-x="460" 
d="M317 1536l41 -360q8 -71 -32.5 -115.5t-116.5 -44.5q-72 0 -112 39t-40 110q0 54 43 125l152 246h65z" />
    <glyph glyph-name="quoteright" unicode="&#x2019;" horiz-adv-x="460" 
d="M143 1016l-41 360q-8 71 33 115.5t117 44.5q72 0 111.5 -39.5t39.5 -110.5q0 -53 -43 -124l-151 -246h-66z" />
    <glyph glyph-name="quotesinglbase" unicode="&#x201a;" horiz-adv-x="460" 
d="M143 -246l-41 361q-8 71 33 115t117 44q72 0 111.5 -39t39.5 -110q0 -54 -43 -125l-151 -246h-66z" />
    <glyph glyph-name="quotedblleft" unicode="&#x201c;" horiz-adv-x="864" 
d="M317 1536l41 -360q8 -71 -32.5 -115.5t-116.5 -44.5q-72 0 -112 39t-40 110q0 54 43 125l152 246h65zM721 1536l41 -360q8 -71 -33 -115.5t-117 -44.5q-72 0 -111.5 39t-39.5 110q0 54 43 125l151 246h66z" />
    <glyph glyph-name="quotedblright" unicode="&#x201d;" horiz-adv-x="864" 
d="M143 1016l-41 360q-8 71 33 115.5t117 44.5q72 0 111.5 -39.5t39.5 -110.5q0 -53 -43 -124l-151 -246h-66zM547 1016l-41 360q-8 71 32.5 115.5t116.5 44.5q72 0 112 -39.5t40 -110.5q0 -53 -43 -124l-152 -246h-65z" />
    <glyph glyph-name="quotedblbase" unicode="&#x201e;" horiz-adv-x="864" 
d="M143 -246l-41 361q-8 71 33 115t117 44q72 0 111.5 -39t39.5 -110q0 -54 -43 -125l-151 -246h-66zM547 -246l-41 361q-8 71 32.5 115t116.5 44q72 0 112 -39t40 -110q0 -54 -43 -125l-152 -246h-65z" />
    <glyph glyph-name="dagger" unicode="&#x2020;" horiz-adv-x="991" 
d="M539 0h-86v786h-371v238h371v410h86v-410h370v-238h-370v-786z" />
    <glyph glyph-name="daggerdbl" unicode="&#x2021;" horiz-adv-x="991" 
d="M539 0h-86v311h-371v238h371v237h-371v238h371v410h86v-410h370v-238h-370v-237h370v-238h-370v-311z" />
    <glyph glyph-name="bullet" unicode="&#x2022;" horiz-adv-x="1667" 
d="M834 -18q-356 0 -544 194t-188 543q0 351 187.5 543t544.5 192q345 0 538 -194t193 -541q0 -345 -193.5 -541t-537.5 -196z" />
    <glyph glyph-name="ellipsis" unicode="&#x2026;" horiz-adv-x="1325" 
d="M61 125q0 71 38.5 110t111.5 39q72 0 111.5 -39t39.5 -110t-39.5 -110.5t-111.5 -39.5q-73 0 -111.5 39.5t-38.5 110.5zM512 125q0 71 38.5 110t111.5 39q72 0 111.5 -39t39.5 -110t-39.5 -110.5t-111.5 -39.5q-73 0 -111.5 39.5t-38.5 110.5zM963 125q0 71 38 110
t111 39q72 0 112 -39t40 -110t-40 -110.5t-112 -39.5q-73 0 -111 39.5t-38 110.5z" />
    <glyph glyph-name="perthousand" unicode="&#x2030;" horiz-adv-x="2164" 
d="M2083 307q0 -153 -88 -239t-244 -86q-220 0 -297 157q-39 -76 -114.5 -116.5t-180.5 -40.5q-160 0 -246 85.5t-86 239.5q0 155 86 240.5t246 85.5q105 0 181 -40.5t114 -115.5q80 156 297 156q156 0 244 -86.5t88 -239.5zM745 1128q0 -152 -88 -238.5t-243 -86.5
q-163 0 -247.5 85t-84.5 240q0 156 84 241t248 85q155 0 243 -86t88 -240zM1364 1434l-1065 -1434h-88l1065 1434h88zM899 307q0 -125 260 -125q124 0 192 33t68 92q0 58 -68.5 91.5t-191.5 33.5q-260 0 -260 -125zM1491 307q0 -125 260 -125q124 0 192 33t68 92
q0 58 -68.5 91.5t-191.5 33.5q-260 0 -260 -125zM154 1128q0 -124 260 -124q122 0 191 33t69 91t-69 91.5t-191 33.5q-260 0 -260 -125z" />
    <glyph glyph-name="minute" unicode="&#x2032;" horiz-adv-x="401" 
d="M152 1042h-86l20 422v72h246v-72z" />
    <glyph glyph-name="second" unicode="&#x2033;" horiz-adv-x="790" 
d="M152 1042h-86l20 422v72h246v-72zM541 1042h-86l20 422v72h246v-72z" />
    <glyph glyph-name="guilsinglleft" unicode="&#x2039;" horiz-adv-x="661" 
d="M158 508l360 -205v-240h-12l-445 449l445 446h12v-239l-360 -207v-4z" />
    <glyph glyph-name="guilsinglright" unicode="&#x203a;" horiz-adv-x="661" 
d="M143 303l361 205v4l-361 207v239h13l444 -446l-444 -449h-13v240z" />
    <glyph glyph-name="fraction" unicode="&#x2044;" horiz-adv-x="614" 
d="M346 0h-96l1040 1434h96z" />
    <glyph glyph-name="Euro" unicode="&#x20ac;" horiz-adv-x="1425" 
d="M745 1458q171 0 307 -65.5t218 -197.5t82 -310v-31h-86v31q0 106 -71.5 183.5t-188 115t-261.5 37.5q-322 0 -466 -195h516l-29 -238h-576q-4 -46 -4 -71q0 -35 2 -51h562l-29 -238h-457q68 -104 191 -159.5t290 -55.5q145 0 262.5 41t189 123.5t71.5 193.5v37h88v-37
q0 -140 -46.5 -253.5t-128.5 -188t-193.5 -114.5t-242.5 -40q-230 0 -387.5 118t-220.5 335h-135v238h98v51q0 48 2 71h-100v238h141q66 208 221.5 320t380.5 112z" />
    <glyph glyph-name="uni20B4" unicode="&#x20b4;" horiz-adv-x="1288" 
d="M1159 1098q0 -57 -61 -103h129v-237h-1186v237h680q171 0 261.5 30t90.5 73q0 24 -25.5 45t-76 39t-136.5 28.5t-196 10.5q-109 0 -194.5 -9t-136 -23.5t-76 -32.5t-25.5 -38v-26h-86v26q0 68 31.5 128.5t92.5 108t162.5 75.5t231.5 28q131 0 233 -29.5t163.5 -80.5
t92.5 -114.5t31 -135.5zM121 336q0 57 59 102h-139v238h1186v-238h-670q-120 0 -201.5 -15t-115 -37t-33.5 -50q0 -24 26 -45.5t76.5 -39t135.5 -28t194 -10.5t194.5 8.5t136 23.5t76 32.5t25.5 37.5v27h86v-27q0 -54 -19 -103.5t-59.5 -93t-100.5 -75t-146.5 -50
t-192.5 -18.5q-130 0 -231.5 29.5t-162.5 80.5t-92.5 115t-31.5 136z" />
    <glyph glyph-name="uni20B8" unicode="&#x20b8;" horiz-adv-x="1177" 
d="M47 827v238h1086v-238h-500v-827h-86v827h-500zM1133 1196h-1086v238h1086v-238z" />
    <glyph glyph-name="uni20BD" unicode="&#x20bd;" horiz-adv-x="1228" 
d="M1130 995q0 -207 -123 -322.5t-345 -115.5h-412v-131h790v-238h-790v-188h-86v188h-164v238h164v131h-164v238h164v639h498q222 0 345 -116t123 -323zM1044 995q0 96 -98.5 148.5t-283.5 52.5h-412v-401h412q185 0 283.5 52t98.5 148z" />
    <glyph glyph-name="uni2116" unicode="&#x2116;" horiz-adv-x="2273" 
d="M1765 600q122 0 189 36.5t67 102.5q0 65 -67.5 102.5t-188.5 37.5q-129 0 -192.5 -37t-63.5 -103q0 -139 256 -139zM1765 414q-158 0 -240.5 85.5t-82.5 239.5q0 156 82.5 241t240.5 85q154 0 239 -86t85 -240q0 -153 -85.5 -239t-238.5 -86zM1206 1434h871v-238h-787
v-1196h-237l-809 1227h-4l4 -203v-1024h-84v1434h237l809 -1227h4l-4 203v1024z" />
    <glyph glyph-name="trademark" unicode="&#x2122;" horiz-adv-x="1701" 
d="M340 1233h-264v201h762l309 -402l303 402h158v-719h-74v499l-320 -413h-137l-323 411v-497h-72v518h-270v-518h-72v518z" />
    <glyph glyph-name="minus" unicode="&#x2212;" horiz-adv-x="1173" 
d="M1036 850v-238h-899v238h899z" />
    <glyph glyph-name="approxequal" unicode="&#x2248;" horiz-adv-x="1173" 
d="M817 696q281 0 281 -350v-24h-82v24q0 65 -33 100t-90 35q-70 0 -128 -18.5t-99 -45l-82 -53t-99 -45t-129 -18.5q-280 0 -280 350v25h84v-25q0 -135 121 -135q70 0 127.5 18.5t98 45l81 53t99 45t130.5 18.5zM817 1159q281 0 281 -350v-25h-82v25q0 65 -33 100t-90 35
q-70 0 -128 -18.5t-99 -45l-82 -53t-99 -45t-129 -18.5q-280 0 -280 350v25h84v-25q0 -135 121 -135q70 0 127.5 18.5t98 45l81 53t99 45t130.5 18.5z" />
    <glyph glyph-name="lessequal" unicode="&#x2264;" horiz-adv-x="1007" 
d="M41 946l819 486h10v-246l-802 -299l802 -303v-244h-10l-819 489v117zM41 238h829v-238h-829v238z" />
    <glyph glyph-name="greaterequal" unicode="&#x2265;" horiz-adv-x="1007" 
d="M137 1188v246h10l820 -486v-117l-820 -489h-10v244l803 303zM137 238h830v-238h-830v238z" />
    <glyph glyph-name="uni24C5" unicode="&#x24c5;" horiz-adv-x="1941" 
d="M696 303v-303h-84v1024h447q185 0 280 -94.5t95 -265.5q0 -173 -94.5 -267t-280.5 -94h-363zM696 795v-263h363q291 0 291 132q0 131 -291 131h-363zM971 -217q380 0 585 191.5t205 537.5q0 342 -207 535.5t-583 193.5q-387 0 -589 -192t-202 -537t202 -537t589 -192z
M971 -434q-423 0 -646 247.5t-223 698.5t223 698.5t646 247.5q409 0 638.5 -249.5t229.5 -696.5q0 -446 -230.5 -696t-637.5 -250z" />
    <glyph glyph-name="uniF6C3" unicode="&#xf6c3;" horiz-adv-x="493" 
d="M274 1597h74l37 -239q11 -66 -28 -109t-109 -43q-67 0 -105.5 38t-38.5 104q0 68 50 120z" />
    <glyph glyph-name="uniF6C9" unicode="&#xf6c9;" horiz-adv-x="577" 
d="M164 1597l53 449h299l-276 -449h-76z" />
    <glyph glyph-name="uniF6CA" unicode="&#xf6ca;" horiz-adv-x="1247" 
d="M590 1597l-467 449h311l191 -367l190 367h309l-467 -449h-67z" />
    <glyph glyph-name="uniF6CB" unicode="&#xf6cb;" horiz-adv-x="1241" 
d="M893 1663q-75 0 -116.5 41.5t-41.5 116.5t41.5 116t116.5 41q74 0 117 -41.5t43 -115.5t-43 -116t-117 -42zM346 1663q-75 0 -116.5 41.5t-41.5 116.5t41.5 116t116.5 41q74 0 117 -41.5t43 -115.5t-43 -116t-117 -42z" />
    <glyph glyph-name="uniF6CE" unicode="&#xf6ce;" horiz-adv-x="577" 
d="M516 1597h-76l-338 449h299z" />
    <glyph glyph-name="uniF6CF" unicode="&#xf6cf;" horiz-adv-x="1273" 
d="M215 1597h-72l119 449h299zM729 1597h-74l160 449h299z" />
    <glyph glyph-name="uniF6D0" unicode="&#xf6d0;" horiz-adv-x="1236" 
d="M1073 1702h-909v237h909v-237z" />
    <glyph glyph-name="Breve" horiz-adv-x="1236" 
d="M618 1815q203 0 306.5 51.5t103.5 148.5v31h86v-31q0 -208 -132 -323t-364 -115q-233 0 -364 115t-131 323v31h86v-31q0 -97 105 -148.5t304 -51.5z" />
    <glyph glyph-name="Cedilla" horiz-adv-x="663" 
d="M444 -182q0 30 -30.5 47.5t-114.5 17.5h-37v228h86v-156q59 -4 102 -19t65.5 -33.5t35 -47t15.5 -50t3 -51.5q0 -49 -16.5 -90.5t-52.5 -75.5t-99.5 -53.5t-150.5 -19.5q-62 0 -139 14v235q82 -12 184 -12q88 0 118.5 16t30.5 50z" />
    <glyph glyph-name="Circumflex" horiz-adv-x="1247" 
d="M434 1597h-311l467 449h67l467 -449h-309l-190 367z" />
    <glyph glyph-name="Dotaccent" horiz-adv-x="694" 
d="M346 1663q-75 0 -116.5 41.5t-41.5 116.5t41.5 116t116.5 41q74 0 117 -41.5t43 -115.5t-43 -116t-117 -42z" />
    <glyph glyph-name="Ogonek" horiz-adv-x="663" 
d="M498 78l22 -78q-168 -37 -168 -150q0 -98 129 -98q59 0 133 12v-235q-93 -10 -139 -10q-122 0 -185 65t-63 164q0 127 61 209.5t210 120.5z" />
    <glyph glyph-name="Tilde" horiz-adv-x="1239" 
d="M899 2066q145 0 199.5 -106t3.5 -320l-10 -43h-250l10 43q22 91 -6 140t-84 49q-40 0 -71.5 -14t-53 -36t-41 -49t-41.5 -54t-48 -49t-66 -36t-91 -14q-145 0 -199.5 106t-3.5 320l11 43h250l-11 -43q-22 -91 6 -139.5t84 -48.5q40 0 71.5 14t53 36t41 48.5t41.5 53.5
t48 49t66 36t91 14z" />
    <glyph glyph-name="idotaccent" horiz-adv-x="573" 
d="M258 1024v-1024h-84v1024h84zM215 1208q-76 0 -117 39.5t-41 110.5t41 110t117 39q75 0 116.5 -39t41.5 -110q0 -70 -43.5 -110t-114.5 -40z" />
    <glyph glyph-name="undercommaaccent" horiz-adv-x="489" 
d="M213 -526h-74l-37 239q-11 66 28.5 109t109.5 43q67 0 105 -37.5t38 -103.5q0 -70 -49 -121z" />
    <glyph glyph-name="hyphen.uc" horiz-adv-x="937" 
d="M786 850v-238h-632v238h632z" />
    <glyph glyph-name="endash.uc" horiz-adv-x="1118" 
d="M82 604v252h954v-252h-954z" />
    <glyph glyph-name="emdash.uc" horiz-adv-x="1486" 
d="M61 604v252h1364v-252h-1364z" />
    <glyph glyph-name="guillemotleft.uc" horiz-adv-x="1181" 
d="M158 713l360 -205v-240h-12l-445 449l445 446h12v-239l-360 -207v-4zM678 713l360 -205v-240h-12l-444 449l444 446h12v-239l-360 -207v-4z" />
    <glyph glyph-name="guillemotright.uc" horiz-adv-x="1181" 
d="M143 508l361 205v4l-361 207v239h13l444 -446l-444 -449h-13v240zM664 508l360 205v4l-360 207v239h12l444 -446l-444 -449h-12v240z" />
    <glyph glyph-name="at.uc" horiz-adv-x="1941" 
d="M1839 717q0 -446 -230.5 -696t-637.5 -250q-423 0 -646 247.5t-223 698.5t223 698.5t646 247.5q409 0 638.5 -249.5t229.5 -696.5zM180 717q0 -345 202 -537t589 -192q380 0 585 191.5t205 537.5q0 342 -207 535.5t-583 193.5q-387 0 -589 -192t-202 -537zM983 1247
q194 0 305 -85.5t111 -235.5v-721h-84v248q-46 -124 -162.5 -195.5t-290.5 -71.5q-153 0 -240 84.5t-87 233.5q0 146 87 227.5t240 81.5h453v113q0 92 -332 92q-334 0 -334 -92v-25h-84v25q0 151 111.5 236t306.5 85zM618 512q0 -47 66 -71.5t188 -24.5q210 0 326.5 47
t116.5 145h-443q-254 0 -254 -96z" />
    <glyph glyph-name="exclamdown.uc" horiz-adv-x="628" 
d="M440 0h-250l82 1061h86zM164 1309q0 71 38 110t111 39q72 0 112 -39t40 -110t-40 -110.5t-112 -39.5q-73 0 -111 39.5t-38 110.5z" />
    <glyph glyph-name="questiondown.uc" horiz-adv-x="1239" 
d="M127 403q0 168 116 277.5t330 112.5v268h86v-463h-41q-196 0 -300.5 -51.5t-104.5 -143.5q0 -91 105 -140.5t300 -49.5q202 0 305 43.5t103 126.5v92h86v-92q0 -193 -130 -300.5t-364 -107.5q-232 0 -361.5 113t-129.5 315zM614 1458q73 0 111.5 -39t38.5 -110
t-38.5 -110.5t-111.5 -39.5q-72 0 -111.5 39.5t-39.5 110.5t39.5 110t111.5 39z" />
    <glyph glyph-name="uni0414.bgr" horiz-adv-x="1466" 
d="M1425 238v-646h-86v408h-1212v-408h-86v646h137l404 1196h311l403 -1196h129zM270 238h934l-323 958h-287z" />
    <glyph glyph-name="uni0416.bgr" horiz-adv-x="1978" 
d="M1565 1434h309l-545 -676l594 -758h-115l-497 635h-279v-635h-86v635h-82l-499 -635h-312l594 758l-545 676h115l455 -562h274v562h86v-562h80z" />
    <glyph glyph-name="uni041A.bgr" horiz-adv-x="1316" 
d="M164 0v1434h86v-562h186l453 562h309l-573 -711l622 -723h-135l-555 635h-307v-635h-86z" />
    <glyph glyph-name="uni041B.bgr" horiz-adv-x="1294" 
d="M492 1434h311l436 -1434h-92l-365 1196h-270l-365 -1196h-92z" />
    <glyph glyph-name="uni0432.bgr" horiz-adv-x="1177" 
d="M614 -20q-210 0 -330 118.5t-120 321.5v672q0 464 434 464q208 0 321 -115t113 -349q0 -249 -162 -351q94 -50 145.5 -135.5t51.5 -185.5q0 -203 -121 -321.5t-332 -118.5zM598 1325q-183 0 -266.5 -51.5t-83.5 -181.5v-254h350q193 0 272.5 63t79.5 191q0 129 -86 181
t-266 52zM983 420q0 98 -88.5 153.5t-263.5 55.5h-383v-209q0 -100 95 -154.5t271 -54.5q182 0 275.5 54t93.5 155z" />
    <glyph glyph-name="uni0433.bgr" horiz-adv-x="1058" 
d="M184 328q0 -58 76 -86.5t270 -28.5q179 0 260.5 24.5t81.5 90.5v26h84v-26q0 -155 -115.5 -250.5t-310.5 -95.5q-108 0 -192.5 28.5t-134.5 78t-75.5 110t-25.5 129.5q0 71 42 116.5t109 65t148 29t162 15.5t148 17t109 41.5t42 81.5q0 43 -27.5 67.5t-100.5 37
t-206 12.5q-178 0 -254.5 -23.5t-76.5 -93.5v-10h-84v10q0 163 110.5 255.5t304.5 92.5q104 0 185.5 -28.5t131 -77.5t74.5 -110.5t25 -131.5q0 -71 -42 -116.5t-109 -65t-148 -29t-162 -15.5t-148 -17t-109 -41.5t-42 -81.5z" />
    <glyph glyph-name="uni0434.bgr" horiz-adv-x="1222" 
d="M92 512q0 248 117 389t332 141q352 0 434 -264v246h84v-1145q0 -206 -119.5 -305.5t-364.5 -99.5q-244 0 -363.5 99.5t-119.5 305.5h82q0 -176 401 -176q206 0 303 43t97 133v367q-82 -264 -434 -264q-214 0 -331.5 141.5t-117.5 388.5zM578 213q199 0 298 63.5t99 184.5
v102q0 121 -99 184.5t-298 63.5q-207 0 -305.5 -70.5t-98.5 -228.5q0 -156 98.5 -227.5t305.5 -71.5z" />
    <glyph glyph-name="uni0436.bgr" horiz-adv-x="1591" 
d="M68 0l477 535l-455 489h111l362 -389h193v901h82v-901h53l360 389h252l-454 -489l477 -535h-111l-360 406h-217v-406h-82v406h-82l-361 -406h-245z" />
    <glyph glyph-name="uni0437.bgr" horiz-adv-x="1056" 
d="M528 811q-138 0 -221 -23.5t-114 -62t-31 -98.5v-54h-82v54q0 86 26.5 159.5t79.5 131.5t140.5 91t201.5 33t201.5 -33t141 -91.5t80 -133t26.5 -163.5q0 -219 -141 -306q155 -99 155 -364q0 -102 -27.5 -188t-82 -153t-145 -104.5t-208.5 -37.5q-115 0 -204.5 38
t-145 104.5t-84 152.5t-28.5 188v61h84v-61q0 -45 10 -81.5t36.5 -69t68.5 -54.5t108.5 -34.5t154.5 -12.5q110 0 186.5 18.5t118 54.5t59 79t17.5 100q0 252 -381 252h-211v229h211q111 0 184.5 12.5t112 38.5t53.5 58.5t15 79.5q0 37 -9.5 65t-34 52.5t-65.5 39.5t-105 24
t-151 9z" />
    <glyph glyph-name="uni0438.bgr" 
d="M956 238q-80 -256 -381 -256q-207 0 -313 106.5t-106 312.5v623h82v-623q0 -94 89.5 -142t262.5 -48q180 0 273 64.5t93 185.5v563h84v-1024h-84v238z" />
    <glyph glyph-name="uni0439.bgr" 
d="M956 238q-80 -256 -381 -256q-207 0 -313 106.5t-106 312.5v623h82v-623q0 -94 89.5 -142t262.5 -48q180 0 273 64.5t93 185.5v563h84v-1024h-84v238zM268 1513q0 -66 83.5 -101.5t242.5 -35.5q328 0 328 137v23h84v-23q0 -166 -110.5 -259t-301.5 -93q-190 0 -300 93
t-110 259v23h84v-23z" />
    <glyph glyph-name="uni043A.bgr" horiz-adv-x="1116" 
d="M248 0h-84v1536h84v-899h151l379 387h258l-491 -500l518 -524h-125l-403 408h-287v-408z" />
    <glyph glyph-name="uni043B.bgr" horiz-adv-x="1034" 
d="M655 1024l353 -1024h-84l-273 795h-266l-272 -795h-84l352 1024h274z" />
    <glyph glyph-name="uni043C.bgr" horiz-adv-x="1785" 
d="M248 799q73 243 325 243q272 0 340 -235q79 235 353 235q181 0 272.5 -106.5t91.5 -312.5v-623h-84v623q0 190 -297 190q-154 0 -232.5 -64.5t-78.5 -185.5v-563h-84v623q0 190 -297 190q-152 0 -230.5 -64.5t-78.5 -185.5v-563h-84v1024h84v-225z" />
    <glyph glyph-name="uni043F.bgr" 
d="M248 786q80 256 381 256q207 0 313.5 -106.5t106.5 -312.5v-623h-82v623q0 94 -90 142t-263 48q-180 0 -273 -64.5t-93 -185.5v-563h-84v1024h84v-238z" />
    <glyph glyph-name="uni0446.bgr" horiz-adv-x="1234" 
d="M956 238q-80 -256 -381 -256q-207 0 -313 106.5t-106 312.5v623h82v-623q0 -94 89.5 -142t262.5 -48q180 0 273 64.5t93 185.5v563h84v-795h121v-534h-82v305h-123v238z" />
    <glyph glyph-name="uni0448.bgr" horiz-adv-x="1794" 
d="M1546 225q-73 -243 -325 -243q-272 0 -340 235q-79 -235 -353 -235q-181 0 -272.5 106.5t-91.5 312.5v623h84v-623q0 -190 297 -190q154 0 232.5 64.5t78.5 185.5v563h84v-623q0 -190 297 -190q152 0 230.5 64.5t78.5 185.5v563h84v-1024h-84v225z" />
    <glyph glyph-name="uni0449.bgr" horiz-adv-x="1800" 
d="M1522 178q-82 -196 -310 -196q-272 0 -340 235q-79 -235 -352 -235q-181 0 -272.5 106.5t-91.5 312.5v623h84v-623q0 -190 297 -190q154 0 232.5 64.5t78.5 185.5v563h84v-623q0 -190 297 -190q152 0 230.5 64.5t78.5 185.5v563h84v-795h104v-534h-81v305h-123v178z" />
    <glyph glyph-name="uni044A.bgr" horiz-adv-x="1150" 
d="M336 492v-142q0 -141 326 -141q327 0 327 141q0 142 -293 142h-360zM252 795h-238v229h322v-303h360q187 0 282 -96.5t95 -274.5q0 -175 -104 -272.5t-307 -97.5q-202 0 -306 97.5t-104 272.5v445z" />
    <glyph glyph-name="uni044B.bgr" horiz-adv-x="1521" 
d="M248 492v-142q0 -141 325 -141q328 0 328 141q0 142 -293 142h-360zM164 350v674h84v-303h360q187 0 282 -96.5t95 -274.5q0 -175 -104.5 -272.5t-307.5 -97.5q-202 0 -305.5 97.5t-103.5 272.5zM1358 1024v-1024h-84v1024h84z" />
    <glyph glyph-name="uni044C.bgr" horiz-adv-x="1062" 
d="M248 492v-142q0 -141 325 -141q328 0 328 141q0 142 -293 142h-360zM164 350v674h84v-303h360q187 0 282 -96.5t95 -274.5q0 -175 -104.5 -272.5t-307.5 -97.5q-202 0 -305.5 97.5t-103.5 272.5z" />
    <glyph glyph-name="uni044E.bgr" horiz-adv-x="1628" 
d="M594 633q28 196 148.5 302.5t324.5 106.5q234 0 356.5 -139t122.5 -391q0 -253 -122.5 -391.5t-356.5 -138.5q-209 0 -329.5 109t-145.5 312h-344v-403h-84v1536h84v-903h346zM670 512q0 -144 101 -221.5t296 -77.5q191 0 294 78t103 221q0 142 -103 220.5t-294 78.5
q-194 0 -295.5 -78t-101.5 -221z" />
    </font>
</defs>
</svg>
